<mxfile host="Electron" modified="2024-05-02T08:24:16.437Z" agent="Mozilla/5.0 (Windows NT 10.0; Win64; x64) AppleWebKit/537.36 (KHTML, like Gecko) draw.io/24.2.5 Chrome/120.0.6099.109 Electron/28.1.0 Safari/537.36" etag="1TCDM6VLxsfFyLjkIibY" version="24.2.5" type="device">
  <diagram name="Pagina-1" id="c2p6aXpGtnYIkzTisIhX">
    <mxGraphModel dx="1434" dy="844" grid="1" gridSize="10" guides="1" tooltips="1" connect="1" arrows="1" fold="1" page="1" pageScale="1" pageWidth="827" pageHeight="1169" math="0" shadow="0">
      <root>
        <mxCell id="0" />
        <mxCell id="1" parent="0" />
        <mxCell id="T_ImtbYxqF7imKT2f7U9-1" value="" style="shape=image;verticalLabelPosition=bottom;labelBackgroundColor=default;verticalAlign=top;aspect=fixed;imageAspect=0;image=data:image/png,iVBORw0KGgoAAAANSUhEUgAABYsAAAOICAYAAACXMq6OAAAAAXNSR0IArs4c6QAAAARnQU1BAACxjwv8YQUAAAAJcEhZcwAADsMAAA7DAcdvqGQAAP+lSURBVHhe7P0HmGTnfd/5/iqHzrl7enpyxgCDnAgCIEgQgJiTKUqiJNKU/MiW11p5bV1fry1az67Xunp8TV55TXMti5QoKlEiKUaQIEEkAgRAhEGYweTY0zlXdeVT97ynTnVXp5kO1fn7GRzU+77n1KnQM11Vv377/3oeuPPWvAAAAAAAAAAAm5rXvQQAAAAAAAAAbGKExQAAAAAAAAAAwmIAAAAAAAAAAGExAAAAAAAAAMBGWAwAAAAAAAAAICwGAAAAAAAAABAWAwAAAAAAAABshMUAAAAAAAAAAHkeuPPWvNveULw+n8LhqEKRsALBkIL25g8E5PPbm73P4/XK4/E4x+bzeeUtS7lcTrlsRtlMRul0Shl7SyWSSibHZdn7AAAAAAAAAGCj2jBhsc/nV0V1taIVVfZWoWA44u4pj3QyofF43N7GFB8dVS6XdfcAAAAAAAAAwPq3rsNifyCoqppaZ4tWVrmjK2M8NqaxkWFny2bS7igAAAAAAAAArE/rMiyuqq5VTX2DKmtq3ZHVFRsZ1sjggMZGh90RAAAAAAAAAFhf1lVYXNfYpLqGprKXmCgXU6piaKBPQ/197ggAAAAAAAAArA/rIiw2IXF9U6sCwaA7srZl0mkN9nUTGgMAAAAAAABlcNuHf0O7auxG+ope/ep3deK69+jDt29RwB4aPfU/9P1nnMOwRGs6LDblJhpatygcWZszia8lmUhooPsK5SkAAAAAAADWmpKwcbpM1/P6+qOvuT2sBWspLPb7/JLH7cxDLpdTPr8+ijusybDYLFzX3Nau6rp6d2R9Gx0aVG9XJwvhAQAAAAAArBVXCYsdIyf0N19/yu2Uy7165FP7Va2Uel74cz3xpju8lkw8L8M6+6Wv6UV3eLWtlbB42849uvO+++XxzD8tTo6P67Hv/IPG4zF3ZO3yupdrRk1dg3btP7RhgmLDPBbzmMxjAwAAAAAAwNpiwsa/+ZLZTmjUHVOkSvvdZtnc06Jqt7lW7e9omDtA3+T8gYBuu+ftymazGurv19DAtbfB/j6ntO6ufWX/27Qs1tTM4tat21Xb0Oj2NqZh+y9J9+ULbg8AAAAAAACrYraZqSVj00tRTMxsdZXunzLr9VX7NBMzlidnEE+/fkHp7N3irOMSU2Y3T+7PdJ3QYMN+tQQL9/1s5a/qxraQvcecr0eNJecpnXU7232YfBw36P5fvsM55xTFmbx2c//DxdsputoM6ZLzlZyjdPyqtz3lOvOYWayP6eN7a51jSx+z7imOL32mdDAY0gc+8Ssa7OvT49/7tjt6dXn7zwc+8UmdP31SR1983h1du9bEzOJQOKIdew9s+KDYMI/RPFbzmAEAAAAAALD6qvf+hj7+KXtzwkcTgP6PkqDYBJkzQ9ZA2x368MM3uL2ihpKg2Aip5cb3XHuGsgk0pwfFRs1+ffyXZ14/0FYIimeKqOOXp56neu/HdJvTukEVs8RRsz+O6QrPwdSg2LAf3+2/oUfucbtTvKaugVShGWxQ23WFpq7rUL1z31MavGQ/xyb0/dQsIXVwi278VPG+z8MzPROzwqub73Vb0m3NhQBZIz3lK6nhKYTApX+ilZXODOLSMfPHPXzdWPWwuKK6Rtv37Fc4WuGObHzmsZrHbB47AAAAAAAA1pJpAeg9xWC2ECI75SpODTu7Ag0dU4PcYEiJU4Vjzo4UxwpB6Ytfn7ze5LnMTNcbdP92N9A0s2adchglxwa3aNeMMNbMki0cN7VWb0gaeN4Zf7XLDWpVq0bn+q/pia+653a34n0sPI7C/snrubdhZvFOPAeFWbuF6z+vHnd5rurtswfiJx497wa4IdV3FALpiTIX6QF1mRnX+4vh+uRj+psXrijjjNWq45pBdtFTOlu87zUtbsh8rxrd+G20tzz1p2erVRytqNS73/8hPfKRjzmzj9ezVQ2LTQ3fjp175PX53JHNwzxm89ipYwwAAAAAALC6Zg1A3Rm5+yuL03ELIbIzA9ktd6BgdOps4PQVnXXD2xd7i8HwtdQq4gaxmYFLE2UXSmfKRiqnBaZzzpId1iV3RvSJSwNu4DrJlJFw7r+7zSyLMbvJ52BY/RPhdOnM4WnPw4Sn1D8lkL5BbQ2FMHX0gikxUTLbufQxvXlJg+7XIRB1n+t5mHzMbkBerBFd8nVZikwm7SxU9+IzU4PnRDyu11/+uRMU3/vgQ+u6osCqhcV1jU1q27bD7W1e5jkwzwUAAAAAAABWW0kAqogqrpOqo1ebKVo4Zkmuq7LPsjCZ8fkG0SXu+dhkGQlTC/lLJbOfr+Hqz8HVvXjCnSVsAuWJEhTF0HkyKC+LN7+rS+5jMgF7sQTFlBB+qSzLmQRaW98wsdXU12ugt0fdnZednO+u+96hwDqdYbwqYbF50lrat7k9mOeCwBgAAAAAAGC1Tc58LRodL4bHJWUoJra5FndbgNJZtKVlLYqzYm2JWLF+8uJNzA6eWDRv9hrGs5mcJV0saWGUPFfp8YlZ0DNMPL5addzolqCYmEU8OfN4snSEbSJUXngwXryvgYYb1eHMnHZrI5dBIBDUu973QT04y2bGW9u3OmUqmtu26J4H3uVea31Z8bDYlF0gKJ7JPCeUpAAAAAAAAFh5EwvclS60NnLeCYJL6+5OlKFwt9kXdruKoXG3TELxXKbUxWt64oIbiDqLurnnL5a6KFMJhQlm0TznNmZZVM52IpZwW7XaZY4zC+w9c6KkPId7/0quXygpMZfJ2drF2bal9YMnZh4Xb89sE4sETpbVmLdi+Q77tkprI5dDLpfVGy//3Ck5Mdt25sRx57hMOq3XXirbcnorakXDYrOgG6Un5maeGxa9AwAAAAAAWF2Zrufd2bfGU/p+SS3jJXnzu3pzYgG5Es98rWRRt0nO/TALzLn9pTjx6J9PKTthzj1rGQr7vswcLyx+N3O8sCjd1EX2ZpoM3G3Tw2/7Ofn6l07MnJnslMowCwAuVMlCd7arB9kLk8vl9Nbrr+nELFvnhfPavmuPspmMnn3ixxro63Wvtb54Hrjz1rzbXlamsPP2Pfs35WJ2C2HZf+kunD6hVLL4UxwAAAAAAABgPbtXj3xqv1NWw4TUX1/obOEFMgv5FeozmzB7MYHz7EwZigfe836NDA7oZ0/9xB01uWdY7//4L8uycnrqh4+qr6fb3VPwwU98UudOn9TRF593R9auFZtZ3NaxnaB4HsxzZJ4rAAAAAAAAYCPY//AOt/5y+eoHz+1e7ZpYyK9YG7k8TD3i6poaVVRVuSMF6VRKr77wMz35w0fV39Pjjq5PKxIWt27drnC0wu3hWsxzZZ4zAAAAAAAAYL267cOFGsSFWb5mVvGrS18QcC7XvUcfdmoeF2YwO7OKJ0qJLK98Pq9Tx99Uf0+38vaf9cy3c+uWz7rtZWEWbWtq2+L2VoZlWcpkMkqmUkomkxq3t/j4uMZiccXiMfvSbHH3stCOxePOMfHxhH29pFLptHOObC5nvuLOTw7MtlLC0ahTDJtyFAAAAAAAAFiP2g/eorpwob3s5Sea9+lge5UKdQ3KW36iyFQEOHD9EWWzWcVjMVVV11x7q6pWx46dGhroV8+VTvdMa9ey1iz2B4Latf/QspWfMEWlE8mkksmUE/CacDiTNgFv1j2ivPw+vwLBgMKhkL2FFQ6HFAmH5Vumx2fqF589cUzZTDkqqAMAAAAAAABYinc88l41Nrc4s4nnwxzn9Xr1sycf16Xz59zRtWtZw+It23aquq7e7ZWHmQk8NDTshMTpNRKihkIhVVdWqrq6WtFIxB0tj9GhQV25uPb/IgEAAAAAAAAbnZkc29DU5Pbmx1QPGOrvXxclKpYtLK6qrlX7zt1ub+kGh4Z1qbNTiURSwWBQgcDaXCzPzDhuaWl2wuNy6Tx3RmOjw24PAAAAAAAAAMpv2Ra4a2gtX53int4+nTpzxgmKDa935WoHL5Qph3Hh4kUNDg25I0tXzucSAAAAAAAAAGazLGFxXWOTwmUsxzA4PGTWmJsw35ogq2lkbMxtLZ15Ls1zCgAAAAAAAADLZVnC4vqmVrdVHj6f320VrIOsWD5vectklPs5BQAAAAAAAIBSZQ+LzQzYQDDo9srD75t+Ny33cu0qd1hsnlNmFwMAAAAAAABYLuUPixvKH2j6/QG3VbAuZhb7y78A33I8twAAAAAAAABglDUsrqquVTBcvlrFRf4ZwevaT4t93vJX+DDPrXmOAQAAAAAAAKDcyppo1tQ3uK3y8q/HmsW+8s8sNpbrOQYAAAAAAACwuZUtLPYHgqqsWZ5Zr9OD1/w6SIv9yxQWm+fYPNcAAAAAAAAAUE5lC4urlikoNgL+6TOL10EZimWoWVy0nM81AAAAAAAAgM1pXYTFy1XSYTkt530mLAYAAAAAAABQbp4H7rx1ydN0fT6/9h4+4vbKL51O6+Wjr7s9+057pGi0/AvpldOBvXsVCATcXvmdeuOocrms21tjqvfrjgdu1La6QrkMK9at0z97TEcvOd3y6bhF9925X82VhWA+M3RObzz+jE6POt01olJ77n1Ah3fWKGB+NJOJqffEC3ryxc7CbgAAAAAAAGCNKEtYXF1Xry3bdrq98svlcnrx5VfdXkFFxdoOi687eFBek2ovkysXz2l0aNDtLc2+hz+uI21LrIM8clpf+/pzTvPgL/ySDrdMm1k9ek5P/v0z6nW70l166FN7VO325mdE5770Lf3cabfqjo88qG3TTmD1vKq//97kDxZW3ZGH9ZGbm6ZN4Y/p4g++oeevuF0AAAAAAABgDShLGYpoRZXbWh6mpIPXOzV4Xctliz0ez7IGxcZyP+dLURGepQRHZb3a3WZ51CscdpslvNVNWr4fWyxCVXCWf2SVqt3uNgEAAAAAAIA1okxhcYXbWj7TawDn85bbWntWosbySjznixVP5txWidigylt4YVDJpNssYY326ZzbXhPG0pr5NzWm4QtuEwAAAAAAAFgjlhwWe30+BcPLXxLC758eFruNNWglwmLznJvnfm1Iq/fkZOmH4888p9P9abdXqFl88oXSEhTl0K3nn3xV3bHJYNrULD76zBoqQWEcfUYvvjWoTDExNjWL33iBEhQAAAAAAABYc5Zcs9iUQ9i2Z5/bWz5vHn9LY7G425PC4eCKhLKLEY1GtXvHDre3fC6ePqnx+JjbW7yK1m1qqLj2c+lrPqSbD9TP+AlDpuslPfboMU1+deZjtprFaQ288YJOz1mKOa3RM50adnsAAAAAAAAAymfJYXFdY5Na2re5veXz1snTGh4ZcXtSKBScMdt4raiuqtL2jg63t3x6Oi9qqL/P7S2z6kO67z23qHl6neBkt45+9zGdHHX78zZ7WNz7wt/oyTfdLgAAAAAAAIAVs+QyFIFgyG0tr0BgajCcX8N1KLzelQmxV+q5NwuyHX77jTODYhPuvraYoBgAAAAAAADAWrPkmcVbd+xWZU2t21s+5y9eUnfPZNXbYNCvQCDg9taWxoYGtbW0uL3lExsZ1uXzZ9ze8mm75/26e2/NjJ8sxM8/ru/9ZOaydfse/riOtAXdXoEpVfHNR4+5PWPpM4tv/fAntbPG7bhGT31FP3jG7UzXuEeHb9ij9sYaVUaC8pY8ICuTVmKwWxdPva43Ts1RB+O6B/XB21s15W9dultHv/qYeg/eoztu3KbqcOEHBaMn7fvxU7txleucdLtXPaZ6p47ccb12ttVo4uclubSSQ506/twzOt3vjs1lqY8ZAAAAAAAAm8aSZxb7VyiwDfj9bqtgTS9wt0Izi1fkue+4SzfsmhkUa/ScXpklKF6bKrXn3vfrg++5Swe3N6m6YmpoangDQVW0bNPBe96jD37wHu2ZmmJf3eEHdf+dOyeCYofHvVyKjtv14Pvu0b6tJUGx4Qsq3LhTN/3C+3XrnNVOlvkxAwAAAAAAYMNZcljs869MWDx9Mbu1XIZipRbeW/7nvl1337lH1dMfTm5E5154Rl1ud22r1L6H36ObdtcoMM+/7YE6E8Q+qH3zCk8rtefGabOCy6JSO+/Zr9qpE7Sn8tVo+823qMLtTlruxwwAAAAAAICNaOlh8QoFo9MXs1vTM4tXKixe1tsxgeM9aq90uxNyGj37kn5+ye2WVVDNt39SH/vU7NtD97iHLUDz2x7Q9dNKYhRZmVxhs9yBUpFWXf/2G2cJYqcJVqpiOTJ7+7zVbo1o5z7mCu3pvPXtOjgt4F32xwwAAAAAAIANaclhsWf677YvE/+0MhTSWp5ZvDLPyXI+9xWH79KhWQJHa+icXnlmvZSfuF6Hd84soWHFO3X8+9/Q3//FXxa2bzym45cTmp6fepv36Mhut3NVOSW7Tujn3/6Kvvalr+ixH72qMz3urqVI9unkk+79/PNv6PkzIzPuo1SjugNu07FSjxkAAAAAAAAbzZLTRo+nHMVZr40yFDMt23NffaPumK20QqZPJx5/TpPLDK5xN7erbvqDsAZ19tHH9UZ3zB2wjXbrjcee0eVRtz8hooadO9323DJdr+rxR1/QOXexueFLr+v0qUJ78XIaOPaojp4t3s+YLj51TL0Jt1vCW5rpr9BjBgAAAAAAwMazMlNgy2DmAndrNyz2r1BYvDxadesDh9QwIylOq/fVZ/TGjHBx7dpWXzlzhm1/p16Z9TF0642+kjDVFa5sdVtzian3tWOKu72ySffp8lG3PeG0RmcJi0utzGMGAAAAAADARrTksHilQtuZM4vdxhq0UjOLl+O5b7vndm2vm3n/M12v6+dvzAwWyyut3hcKpRxm237wjHvYPIWn1bk2EuPdbmum+GBMGbc94Vr/QtIx9V9x2ysgkUq7rdmtyGMGAAAAAADYoDz2n+nM2GzjG9HSw+JZV8oqv5k1i9duYLxiYXG5n/uO+3TT3pn1bpXs1rFnl2H27FoT9GllvnJryGZ8zAAAAAAAACUKQbBHXq9X/kBAwVBIoVBYobC92ZeBYFA+e9yUhN3oobHngTtvXVLkuvvg9c4TthJefPkV5XKTAWkkEra/iGvrC+T1+nTdgf1ub3ll0mmdOf6621uqQ7rvE7eoOex2JyTU/czf6ekF1ODd9/DHdWTa4niZrpf0zUePuT3jLj30qT2qdnsFZmbx3+jJN93uNdz64U9qZ43bcY2empyBvO1dH9UdHZFCx2X1vq6//+6rbm+q5nd8SPftqHR7BVOOv+5BffD2abWc0906+tXHdNLtzjCf6yzgvLM9t8v6mAEAAABgg4lUVKqmrkHRykoFQzM+BANYZelUUuOxmEaGBpSIL+dvuRczxbyaW9u0bfcetbRtcXJOk+85e83/8mbCal6WZWncvj8Xz53RuVMnlUomneA4bw7YQJY8sziXnfFL7Mtm5uzitffF8M9SBmC5lO+5r9S+h6+fJSiW4uefW1BQvJZcHIxp+txrb12rDk9NqF3t2tM4NTQ1YiOn3db6sBkfMwAAAADMV+vW7dq+Z79qGxoJioE1yvzbNP9Gzb9V8292OZiQNxAM6MD11+uhD35E9z30C9q1d78qKqsUCASdDNJnNl/h0sw2NiFybX2Dbrjldr33Y5/Q/Q+/R+07dkycb6NYcliczaxcWHxj45Dqw0m3Z1J9t7FG1ATTOli/civAleu5rzh8lw5Nm63qGD2nV37S6XbWoZc7NTT9KQo0af+D92lPo9s3qnfqyHvuUfv03NQa0cDZ5a7TXGab8TEDAAAAwDx07NrrBFAA1g/zb9b82y2XYqi7bfduPfyhjzrBb01tXaG8hLuZUhSl/dLxIlOCtrm1VXff/07d/9B7VF1nn2ODBMa+nVu3fNZtL0o4WuH8CsdK2Oo5o0OVndpZPapKf1o+v08ZKyBrlb4Yfo+lpmhCu+z7c1PTgA41DCkSDmvEu9U9YnnFxkYUH1tiOL3lLj3wtm2KzvZjg1Cdtt10RNfNZ7uuRdnXz2rAvlrDnsNqrZo6w9qKdemt031uz+jQnpvqFXJ7BTnFO9/UhdLDrmLLwSOqm/aD4NTgazpz0e2oV8mG3dpWOzUI94Rq1Lb/iA4ePqxDN1yvQ4d2qLFy5ozwTNebevzVkjvTvFsH2iun1vjNxdTjPu5Zzec6CzjvbM/tsj5mAAAAANgAzOzE6to6twdgPTH1g/2BoGKjI+7I4pgw1xfw6553PqSD1x9xZg0XA2ATBs9HaXhc7EcrKrR7/0GN2ffPbKZkxXq25JnFmXTKbS0/y1MoQ1Hlz+hg7bDu23JFH9h9To9sv6i727p1fcOAEyS3RsdVFUwr6M05xy+FOUe1fS5zThMKX98w6NyWuc0P2rd9b3uXDtQPqzqUdo7PeaZUnl1WZXnudzWpemZmuGF0/eQFnRua/e+BN+ArbLP8K7BGTuv5H5TWWF4/NuNjBgAAAIC5mAluzCgG1jfzb3gpk1VNUBypqNAjH/qYWrZscQLd0sB3MUqvb7Y773uHbrrjbmdsPVtyWJxKTJaFWG45z9R5qHnLfGGlymBG7ZVxJ7S9taVPb2/v0sPbL+kDu8/ro3vO6AO7zusXtl/Uu7dd0gNbO3V/e6fua7+ie7cUNtM2Y++095lj3rPjonMd57r2OR6yz2XOeYt97gP1Q85tmduc7e9STrOUc1gmK/ncr1+d+vk3H9Ubl2fW8p1dTvGuY3r268+pyx1ZfzbjYwYAAACA2ZnF7ACsf4v9t2yC4srqat3/0COKRKNTQt6i4mzg4kJ2ZsvnJy/N+FwzhkvPs3v/Ad1699ud21yvlhwWJ5Pjbmv5WdPC4vkscGe+XkFfThXBjGpCaTVEkmqKJtUcTailorCZthmrt/eZY6KBjHOd2cLga8lp5WYWr+Rzv74N6vhj39Cj339J57oGFU/m7H/s7i7DsvvphEa7Tuvo97+l7z360gYITTfjYwYAAACAmaKVK1M6E8DyWuy/ZY/Xq3ve+W5VVte4I5MBb2kIXGwn4nGNjYxoZHBI8VhM2WzW2W+UHl+qNDDetW+/9l9/w5Sx9cTzwJ23XjtxvYZd+w8pGI64veVTn3xT9Ymjbs++84GgfKHpAfLq6vUe0qBvt9tbPulkQmdPUDIAAAAAAICrOXDkFrcFYL176+hLbmt+zAzfe971oFrbOybC29Kg2LTNZS6X07lTJ3T8tVeVGJ86OdPr82nrth266c67FApNLp41WxhcGiT/6Dv/oMH+9bcu1JJnFhvj8bjbWl4577RgOD+/X7JfSZZnZcpQrNRzDgAAAAAAAKxHTW1t2tKxfdaguHj51uuv6Ttf+2u98rPnlBhPOOOlrFxOl86f1Xf+9q/03BOPK5vJTAmFS00GyHndff875fcX1l9bT8oUFo+5reVlTS/xsOQ50eWXXaEyFCv1nAMAAAAAAADriZlRHAgEdevd9zh1h52xaUGxKS9hwt/XX/650smk8vafYtRrrl/8Y3rmOlbO0uXz5/Tj731b4/GYM1bcShVux+OUzdh/3fXuOdaPsoTF8dFRt7U8zFTwoZERdQ1On0279tLi/uG4YrGYfZ+Xd9bzcj/nAAAAAAAAwHrVsXOnKquqnfB2elBsvPHKS0746yxgZ4Jij1dVtbXad+iw7rj3ft39wLt0/S23qbm11ZkhbI4xf0aHhvTEo99TNptxzzS37Xv2OTWT1xPfzq1bPuu2F808qdHKKgWC5asfHIvF1dPXp4uXL+v8xcsaGBjUYCyt9oqYIr6cc4z5OnsDK1P2YT6GkiG93BXR0Mio+gYGNBaLKZPNyufzKVDGaefjsTEND6y/micAAAAAAKy0xtYtbgvAetffM//l+W+8/S5FKyqmhMWGCYwvnT+n1158wQl/DbP/1rvfrtvvuVet7VtVXVunqpoaNTW3aOe+/dq+e4/OnHjLXNm5jilFMTI0qG27dplrTzm/UewHQyHFRkc1Mjzk9NeDsoTFhin2XLqq4GKYGcRdPb06e/68rnT3aGwspkxmcsVBK+/RubEaZS2vqoNpBbx5eYOrHxaPpwM6Nlinl3qbZJVM1jbT2ePj4xocGtLwyKjyVl7hcFjeaX+BFmqwr1fJcWoWAwAAAABwLYTFwMYxn7DYlH2IVlTqxltvd2b1FoPb4qxirz32/JM/USqZdPrGXfc9oG27dru9wjGlAbA/ENCeA4d08dwZZTJpZ2xsdMSphxyORJz+9MC4KByN6typk25v7StbWGwS9fqmFre3MOaLdaWrWyfPnNXwyIiy2cLM4dmYwLg/HdWpWJP6MzWKZULOzwBMcOy3t5WQyvrUnwjr7Ei1Xh+o12sDDRpIhu37MXcIbILwWDyugcEh56io/Rdprr9E19J9+aIsa+7nCAAAAAAAFBAWAxvHfMPiXfv3q7W9o9B38zdzaTLI3q4rOvHm684MYXPsvuuuL9QWLjmuqHTMTJRtbGrRhbOnnfOY6/r8AbVt3TpxTKli31QcOP3WMWcS6XpQtrDYhJfhSFTBcNgdmR8z+/b4iZPqHxicSPjn4vN5FQoFnALVfr9PSSuogWREF8eqdGK4VmdGatQdj2ggEdFwKqTxrF+pnE8Ze8tZ7oxf++vktKZ+/WQS55w9aGYtJ+zrxTMBjabt8yfCuhKrcG7j1HCNXutv1LHBeqdvbjuZW1h5CfMYTWgci4+rprrK+UnFQsRGhjU82O/2AAAAAADA1RAWAxvHfMPiQzfe7NQrdvpuaOsEvHbbLGhn6g6bI00ud9f975DfH3D2TQ98jeKYuTRlLQb7+5zSEkY6ldTeg9c57dmua5iw2JSwKM5IXus8D9x5a9li7arqWrXvnJyyPR8nT5/R4NCw25ud1+tRMBh0wuJy8Sgvr6fw0M1s5avNCl4uNdXV2ub+9GG+Os+d0djo1Z8vAAAAAABQcODILW4LwHr31tGX3NbcTAD80Ac+rKqa2ikBbnGS6ve+/jXFRkecdjgc0fs+/kvOcXOFvUXFsPnkm2/olReec0el937sFxWNVsy6kF3xNp/9yY/VeeG8M5t5rStf+mozIWY6mXB782PKTlyNCYhNnd9yBsWGCYdzea+zrUZQbIyOjbmt+THPLUExAAAAAAAAMJOZVSyPKQ8xeyUAUxkhl8k4bXOsWcTuWiFxkTnOhL+Rigp3pMDUPr5aBGyuU11ba25wXShvAmsbGuhzW/NjavfOxXytQqGQc7kRRRZYsmOhzy0AAAAAAACwmZgQ2OPxTszqLWXGizOAzSzfZGL+k16L5zPrtpVySli47emKQXQgEHAu14Pyh8X9fcqk51+DY/fOHfYTNnvaX1h50O1sMH6/X1vb293etZnn1Dy3AAAAAAAAAOZiQt1CyYjpzFhlVZUTKBuJ8Xghx5wlWJ7L8OCA25L8gYAi0WhhxussigGzZVnO5XpQ9rDYGOzrdlvXFolEdP2hg6qrqZ7xvJon0lonKwUuRFVllfbu2qVQMOiOXNtCnlMAAAAAAABgMzL5bH6OPNGEt+3bd7g9KZfNaXho0Al7Z5uJXFS6r/PiBXf2skeNzS1OYHwt6XTKPonbWeOWJSw2M2AXMo3bLF63f99eHdy/T3W1plZIYdx8HcyTeZWv1TriUXVVlXbv3Kkd2zqcmcXzZZ5LZhUDAAAAAAAAczOlJfJ5qxDOzsIEvLv27lcgGHQCX3P88089Uag7nDfXLWxF0/svPfeM4rEx93byzrmuxdzmUP/kbOS1blnCYmOg+4rbmj8Tpu7fu0c33XC9dmzbqurqSueJT9pfsGw25x61fjhT26MV2tLaqgP79mp7R8dVazTPZTHPJQAAAAAAALDZmCxxeHBwol1kcjrDLH63dcdOp20k4nH97KknJie+2tcx1ytuRi6X08k339C506fsnjOvWNGKSrVsaZ9yG7Ox7OuODg85AfN64Nu5dctn3XZZpVNJBUNhhRYRjvp8PlVWVqqpsVGtLS1O24xZOcv+4hRqfBRnH68lXq9PFZGoamtqnfve3tam+ro6JyD2ucWzF2p0aFADvZSgAAAAAABgMRpbt7gtAOtdf0+X25qbCYXN1rFz10S/lAl3G1tadeHsaeUyWSfEjY+N6fypk06OGQqFneuY45w1xAb69eKzT+vsybcmgmETFu/Ys1etWzucNdecsTnCylQqqbfeeN0JodcDzwN33rps99QfCGrX/kPy+nzuSHmk7C9U2t5SqZS92e1sRplMxhm7Vpq/VOYLb8pmmFUMg/6A/RcoaG8hZwuWeWVD85OHsyeOKZuZ/4KBAAAAAABg0oEjt7gtAOvdW0dfcltXZwLc9//iLysYDM0aFpttdGRYP/jm3zvBb+msX499XXMdZ9wc6y5ON9vM4MM33aJDR26aCJdnu62uy5f0zI9+OOv116JlDYuNmroGtW2bLBy93HL2FzCbzTqbmSJuZiLnrJzzhbXsL5BZNM++sJm/GM5V7C+k83/n0vxl8pq/EPalz+uTz2df+nxOjWGzLXaG8GJ0XTyvkaH1U9MEAAAAAIC1hrAY2DjmGxYbd933wFVnFxujw8N66rFHNR6PlYTG5tipcWlxn1nMzsxGNkzfjO87fFhHbr3DGTOKt1W8jZ88+l31d3c7x68Hy1aGoiiVTDgzjMPRqDuyvEzQ6/f5nFm+ZrZvJBx2ykBU2LdfWVGhqsrKia26qrCVjpljzLHmOua6xRnD5pzm3CtleKBfA73XnloPAAAAAADmRhkKYOOYTxkKw4S4pgKBKRXh9OfI9IKhkLNInZkoGo/FlE1n7GsWmHOYP0YkGtX2XXt09zveqYqqKme2sNlnAuDB3j7lslk1tbY5t2M2Jyi2t4H+Pr3xyvwD7rVg2cNiIzY6osrqGic0xrUlx+O6fP6M2wMAAAAAAItFWAxsHPMNi414bEyNLS2qqKxy+qWBcTHUNUxQ3Nzapr0HDqm2odGZ8BqJVqiuoUFtHdt0+MabdNMdd2uL3TZlaesbmxStqNCVSxfNmZw4eaCvV1u2blPEHp9gn//oz5/X2PCwO7A+rEhYbCTG46qpq3fKO2Bupk6xCYrNTyQAAAAAAMDSVNfVy+f3uz0A61U6ldRQf5/buzYT4w4O9GvvwUPuyNTA2JgeIFdV16itfau27dqtrTt2OiFytLLK2ecca2YM25e19Q3295Y6XT5/1sk6zUzi9u07nOsbpt/dedmZVbxeyk8UrVhya8pRdF485/YwF/McmecKAAAAAAAs3Xgs5rYArGcL/bdsQtqxkWG98vxz7shkHeFSE0GwzaxlZpjjnGPtcTNW3F+cBGv6HTt2OmUp6hsatffQdWrd0u7sM8z+l3/2rLkT686KzSw2MqmUMum0qmpq3RGUMgvajY0MuT0AAAAAALBUZvH72vpGtwdgveq5cknZTNrtzd9gf78qq6rt7wP17kghzJ1uIhC2L0u36UrHqmvrtGvffrW1d0yMm+zzyR98T6NDQ+tuVrGx4jUhRoYG1NNpanqglHlOzHMDAAAAAADKJxGPOYvIA1i/zL9h8295cfJ6/ukn1Hnh/MTM4tlmGC9EMRieHiabsrIvPfdT9ff2rMug2FiVAsKmvgiB8STzXCyk5goAAAAAAJi/7ssXFB8bdXsA1hPzb9f8G16q5578iS6eOzMR8JYjMDbnKL18+kc/cG5jPVvRMhSlkuPjlKSwmdITw4P8hBMAAAAAgOU0OjQofyCocDTqjgBY68yM4isXzrq9pTGBbtelS4rHxtTU2iafz+fukZz4eNos4auZHjQPDw7qJ49+176/679qgOeBO29d1TnRFdU1at+2U96SL9BmYOVyzmJ28dERdwQAAAAAACy3SEWlauoaFK2sVDAUdkcBrBXpVNJZzM6Ua1186Ym5eew/lTU1uuGW29S+bbs7OtX08hJF00PixHhcZ068pWNHX3HOu15LT5Ra9bDYCIUjauvYrnC0wh3Z2JL2X6SuSxeUSibcEQAAAAAAAAAroRjsVtfU6sbb71JDU5MCwWChnIRzwMywuFhqIm9ZSoyP69Rbx3T6+DFnQuhGCImL1kRYXNS6dbtqGzb2CqVm+nw56qwAAAAAAAAAWDwTGhv+YECV1TXavnO3GpqbnRDZ451c6i2dTKq/r1fdnZfU29WlZDLhhMbTZxpvBGsqLDbMr4K0tHdsuLIU5qcMPfZfKDOFHgAAAAAAAMDaUlyszjsRFJswOV8Ihd0EtTCLuDC+Ea25sNgwBeeb29pVXVfvjqxvpoh+b1enspm0OwIAAAAAAAAAa8vkfOo1xISqVy6eU+e5M0om1m9dX3PfzWMwj4WgGAAAAAAAAMBatiZnFk9X19ik+qZWp9D0epBJpzXY162h/j53BAAAAAAAAADWtnURFheZ0LiuoUnBcMQdWVvSyYSGBvoIiQEAAAAAAACsO+sqLC6qqq5VTX2DKmtq3ZHVFRsZ1sjggMZGh90RAAAAAAAAAFhf1mVYXGQWwquqqXW2aGWVO7oyxmNjGhsZdjbqEQMAAAAAAABY79Z1WFzK5/Ororpa0Yoqe6soe6kKU2JiPB63tzHFR0eVy2XdPQAAAAAAAACw/m2YsHg6r8+ncDiqUCSsQDCkoL35AwH5/PZm7/N4vfJ4PM6x+XxeectSLpdTLptRNpNROp1Sxt5SiaSSyXFZ9j4AAAAAAAAA2Kg2bFgMAAAAAAAAAJg/r3sJAAAAAAAAANjECIsBAAAAAAAAAITFAAAAAAAAAADCYgAAAAAAAACAjbAYAAAAAAAAAEBYDAAAAAAAAAAgLAYAAAAAAAAA2AiLAQAAAAAAAACExQAAAAAAAAAAwmIAAAAAAAAAgI2wGAAAAAAAAABAWAwAAAAAAAAAICwGAAAAAAAAANgIiwEAAAAAAAAAhMUAAAAAAAAAAMnzhS9+Pu+2AQAAAAAAAACbFGExAACrKB6La3BwWKOjMSUTSWWzWeXzvDQDANY/j8cjv9+vcCSs6upK1dfXqqKywt0LAADWIsJiAABWwcULl3Wls9sJiQEA2CxMaLylvVXbtm91RwAAwFpCWAwAwAoyAfGZ0+eVSCTdEQAANp9IJKzde3Y4wTEAAFg7WOAOAIAVYFmWXn/tuN54/S2CYgDApmdeC81ronltNK+RAABgbSAsBgBgmaVSKb34/CvqutLjjgAAAMO8NprXSPNaCQAAVh9hMQAAyyiXy+mVl17XyMiYOwIAAEqZ10jzWmleMwEAwOoiLAYAYBmZX69lETsAAK7OvFaa10wAALC6CIsBAFgmF85fUm9Pv9sDAABXY14zzWsnAABYPYTFAAAsg3Q6rdOnzrs9AAAwH+a107yGAgCA1UFYDADAMrhw/jK1FwEAWCDz2mleQwEAwOogLAYAYBl0Xu5yWwAAYCF4DQUAYPUQFgMAUGZ9vf1KpzNuDwAALIR5DTWvpQAAYOURFgMAUGYDA0NuCwAALAavpQAArA7CYgAAymxsNOa2AADAYvBaCgDA6iAsBgCgzMbHE24LAAAsBq+lAACsDsJiAADKjHrFAAAsDa+lAACsDsJiAADKLJ/Puy0AALAYvJYCALA6CIsBAAAAAAAAAITFAAAAAICZ/Pm8mnM57c1kdDid1vX2Ztot9pjZBwAANh7PF774eV7lAQAoox8++oTbAgBg/fHY26F0Wv96eFhVhaEZEvm8/qi2VkdDIS3XB8p3P3y/2wIAACuFmcUAAAAAAIcJif/TwID+4CpBsRHxePTvRkb0R/axN6VS7igAAFjvCIsBAAAAYJMzs4nvSib174eHtTeXc/rXYo7ZZR/7/xoZ0f2JBB8uAQDYAHg9BwAAAIBNblcmo98ZHVXQ7cszn7i4IGBvvz02pv3pdGEAAACsW4TFAAAAALCJNeRy+jfDw07o69i1S/rLv5Te9S53YBZ33y39xV9IN9zgdM0HSzPDeGs26/QBAMD6RFgMAAAAAJvYB8bHVZ8vLFNn1dYq9z//p9TRIf2rfyXde68zPsUtt0j/9t9KO3bI+uM/Vm7rVme4yj7H++1zAQCA9YuwGAAAAAA2sZtKykd4h4eV+sM/lJXLSRUV0v/5f0rvfre71/a2t0mf+5xUUyPLspT4kz+R9/Jld6d0C4vdAQCwrhEWAwAAAMAm1Z7JaIsJhktEfvADZf6v/0s5U1LC1C7+N/9G+rVfkz7yEemzn3XGcvZ10n/8x4r+xV9MWQyvNp/XAWoXAwCwbhEWAwAAAMAmtS+bnRL2Gp58XqFHH1Xu//g/ZGUyUiAgfeYz0u/8jhSJOGPZz31O4a99zTm2lDmXOScAAFifCIsBAAAAYJMKTgt7SwV+9CNlP/MZZxaxM8PY3kzpidRnP6vgN77hHjVThX0MAABYnwiLAQAAAAAzmFnCgQcfnPKh0ePxKHzkiHM5F6JiAADWL8JiAAAAANikEu7lDCYM/pVfkeeXfkken0+58XFlYzEnJPZ89KPSpz9tf5qc/eNk7CqzlQEAwNrm+cIXP7/gV/Lx8azSmeV/A5DNpJVMjCtvWYpWhNXQWOPuAYClyWQy6rp4Wb3d3RoeGFLc/vCTSaWVt/8AS1XT1uG2AABY2xrTaX1xeHhG3WL9s38m/eIvOqFxNptV9l/8C3nt4/Snf6pgKCSZQPjb35b+6I8KbZdp/euqKp2JRAoDSzDSdcltAYvnsf8EQkFVVFaqtqFOza2tatu2VQFTixsAMIPvve975LNue15yOUvJ1Mr8YlHeftORy6SdS/MGJRwOyef3uXsBYOFGhob0xsuv6vmfPK3LFy5qeGBQyUSiUIsPKJNwFT/cBACsDwmfT7ePj6vO7ee9Xnn+t/9N+uAH7U+LPmUzGeV/93cVevVV+UZGZL34onIPPiifCdr27JE6OpR/9ll53DrFvfZnt6/W1Ch/lTIV85WKjbotYGnMe33znt+89++0PwOceO1NjY/HVVFVqXAZfrABABvJgstQrGSe4vXZb1TcNxnmh9XpdMZpA8BiHH3xJf3wm9/RuZOnmUEMAABgM++IXiyZYWnV1Ch9zz2S369MX5+sf/JPFHjlFXevFDh+XJ7PfEaZri4nTE7fcYdybW3uXun5YFBWGYJiYDmZzwLmM4H5bGA+IwDAssnnZeVzyuUzzmY5W9YeXrsV/hdWhsI+Mj6eVTZnf2u12+aKSftBDuXGlZ3nMgaZ9NxvHCwrr2ymcJ6g/cajORJVIJO2r5N2xsKRoFOKwjtHbSwAmI2ZTfzi089paGDAHQGWF2UoAADrSTSX0xc6O1UVDjv9XFWVUn/yJ/L/3u8peP68MzZdZssWpT/3OYV+67fkd99jJVIp/bPWVg2X6df7KUOBlVLX0KDb3n6XauqKc+wBYHFMIJyxUhpOXVJP4rR92aVEdsQJjEsFvGFF/XVqDG9TU3S3KgMN8ntC8nr87hGrZ0FhcTpjKZnMyf0NI6XyWR1Ld+uy/aDt0cLgNcRH537jYEpcJGJZ5e1Lv9erPTW1uqW+SUoWll3w+byqratSNBpyamcBwLX09/Tqpz9+Qmn7wwuwUgiLAQDrzZ5EQv9uZERV7sQcKxqVd3zcac/FCoflTSaddtz+kPifqqr0ZkWF0y8HwmKsJFOL+23vvF+NLc3uCADMUz6vsWyvXu37rsYyvXY3v4jY0iOvfaXW6H4dqntQQV/UGVsN8w6LnSA3mVM2W+ibX9vozo7qp8lzSk1Lx68mNhJ0W7Ow70k6lVUynnHaIZ9P792+W60+v1O72AiGg6qrrbS/kVOMHsDVmRnFT3z/MYJirDjCYgDAemM+jt42PKzPJBJqtD+HLcRgLqc/D4f1dF2d89un5UJYjJVmAuP7H3mQGcYA5iVnpXV86HFdGT+urFX44Wl5eBT0hrWz5g7trr7D7q9shYV53ZopD5FM5afUK87mLR1L9ywoKL4m+x2KP+CT31+4Wyn7Bp/vuSKv/Q3b4/6EO51Ma3QkrkzGTa0BYA6m9ARBMQAAwLWZkPeF2lr9u7o69Y2O2p8Br/2bo1Y+r0H72M/a13uqzEExsBrMZwfzGQIArsbUHX5j8FH9+PJ/1cXYK2UOio280lZCJ4ae0OOX/2+dG33BGVspvve+75HPuu2Z7Bf/nJV3ZxRP3inLvoOm/MTZ7MLrf6aTXl1tLrbHa++z9+fc2sWjzoxij3bW1CmXyzr3KZvNKZ3OKhjwTVkEDwCKzEIVZqVjYDWEq2rcFgAA60vc79cPamv1lukkk2pMFEoCOpzPYlmnNvGL9mewr1ZW6kstLRoKXuW3R5cgFRt1W8DKSdp/583f89b2Le4IABTldSl2VC/1fUODyQuyVMYJtHPI5tPqT55T1/hbTl3jqL/W3bN8JstQ2C/8JqQ1Px02YXXeyiudtbe05ewqyuZzOpcd1IvJi/PLtHN5edL2k5eyN/tcybhPVsCvfMBc+iTfzMnNzm0nskonc/ZtmzofHj3Q3qEDVbXKp1Oy3CnOZqG7aEVI0WhYPr/P7nucHNrjmXlOAJuHKT9hVjYGVgtlKAAAG0XY/uzVnkio0v0MFvf5dCUc1rh/+RfgoQwFVtO7P/heylEAmGAWrnu1/1vqGT9l9+aViJaZqWns046qW3Sg7gF3bHlMzCw283jT6byymbzS9pZKW1NmExtJ+4k5mxnQ0fQV5a71xJiQN5GT98q4vOfG5D0fl7c/pcBQQsG+mAJjSXlzeVkBr/Km7ETJ7GATDpsZwyYoNlUuzOXlWEzBQEAN0QoFveaNiX1dy3JmGI+Pp5RKZZSx25Z9Tp99PhMkA9ic3nj5VQ0PDLo9YOUxsxgAsFFk7c9VZuZwTzjsbIN2O7NCn7WYWYzVZPKGLduYAABAzqJ1P+36M42ku9yR1ZGXpaFUp/qT59UWPeiEx8th4lU+lzV1iXNuSDx1NrFTiyo3rjdSXXrDfmIy86hT7BnLyHtiRN4LMWf2sLWjUta+aiW21Su1pdaZVRzsGVXkwqB8sdSMUN7r8ygYCcgf8jk5csYy9Yu79Hx/j4byloLhiEKRqIKhsH2sT+lURvFYQiPDMacNYHPKZDI6f/KM2wMAAACAhTOfKcxnCwCb21Dqkp6+8j+VysXckdU3lLqsJ6/8dyVzy/ND1Wv+SDhhpXUy06ef20/OmezA/Ba0S+fkPTUqz2ha1rYKWQdrZe2qktVeoXRTlZJbapTY3qBUa7V8ibQil4bkmWXBOp/Po1DUb28BZ6ZwKpfVG4P9evzKRb06NKCk11MIjcPRiQXwzE//SoNuAJtL18XLyl/rNx8AAAAA4CrMZwrz2QLA5mXqEj/X/VW3t7akcnE9eeX/0Xh22B0pnznDYlP64WSmV08mz+iN9BX152LK5q+9Iq7hvRyXZyQtqz0qa1ul8lH/lDITpm2FA0q1VCvdXAiMQ10j7s6pTB3iQNinSHXAvvQ75S+64jH9rLdL3zx3Wi/1dzszi0sXuSMoAjav3u5utwUAAAAAi8dnC2DzGkld0c96/spurd2MMWdl9NOuP1Xairsj5TFnWDxojevlVKcGcuPObOJ5PzVWXt7zMScgNkGxTD3iufi8SrZWKRcJKNQzKmVnn7VsgmBThzhc4Ve0OuiUpkjmsuoZj+vpK53qjI+5RwLY7IYHhtwWAAAAACweny2AzcmEr8/1mhnFa38yasZK6Wfdf2m35jfBdz7mTHJj+ZRy85xJXMoznJInl1e+ISQF51Fo2edTpiYqMy84MJIojM2hGBoHI377aoW7bmY7j2XSThsA4rG1U0cIAAAAwPrFZwtgc3qx52uyrJnlcteqWKZfbw4+ZrfKE25fZdrv4nji9pNpkt/KQGFgHqxo0Ln0Juf5hfB4nOAYAKbLpPjhEQAAAICl47MFsPmcHH5SI+n1V4Lmwtir6h4/6faWpuxh8cSsZ9/8w9y81xzrkWcRM5kBoBQ1ywEAAACUA58tgM1lLN2js6Mv2K3y/dsP+irUUXnTrFtr9FAZv89YOjb4I1n5jNtfvPKHxQAAAAAAAACwjrwx+JisfHnLT1QEGnRD/Qd0pOGDM7aDte9yjyqPZG5Ux4ced3uLR1gMAMAmVRdJ6WDTsN62vUcP77+sD113Qf/ohnPOZtpmzOwzx5hjAQAAAGAj6k+e01Dqsttbvzrjbyptjbu9xfG9932PfNY0LCuvTHZy6vOoldTF7MJX/vSMpOUdTCnfElG+Ymbd4nRq5qJ33lRWwYG4slUhZasj7ujc8vbdzKUt5z4b+2rrVOP12eOFfjQaViDod9oANpdjr77mtoDVE66qcVtrS204pZu3Dupde7qcMPih/Vd0944+3dw+qMOtwzrYPKJ9TWPOtr9pVAdbRnRD25Bu6xjQ23f26q5tvdpZH1c0mNVY0q9kltdaAMDyScVG3Raweq676YjbArBx5fXz3r9T2kq4/fKJ+GvUUXHTrGuvZezbOzf2vCnM644snZXPKZkbU2v0gDuycHOGxWNWShfmGRb7YlkFu5MKDqTlH8nKl7bHLI8C8ZwCQ5kZW3gsNXWLpRVIZaWsJW88Jf9YUnmfR/mAz1nMbrpCWJybCIv319arxuslLAZAWIw1YS2FxQGfpVva+/Xhw5f0ocMXdXtHv/Y1jaqtOqG6SFqVoayiwZwigZxCfmvKZsbMPnNMTTijxoqUOmrjOtwy7ITMexvHnNfevnjEflNSvjc4AAAYhMVYCwiLgY1vPDusk8NP263JXLRcVjosNkxYvKv6jllvcz7mLEMR9MycATwb33hW4XPjCl9IKNiZVHAsZ38w9Sk4nC30p22VA/EZW3QspWDAr2gmr3DPqCJXhhU9PyBffI6VR+0PpqVfvoh/Mhj2eu2nmM+rAIBNLuTP6V17r+jfvfOoPnPHad29o1fb6+JO4FsRzMrnXfgbIXMdc11zDnMuc05zbnMb5rbMbQIAAADAevLawPfs/5c/KF4tGVMtIv6q21u4OcPiiCfotq7Ok8nLm7Lc3tL4vJN3x5Sm8Gav8qGz5GsY9QdK+iYsJi0GAGxOHvsF8a7tvfq3D7ymT9x4zikt0VSRVHgZglxzTnNucxvmtsxtmts29wEAAAAA1r68RtJdbnvjOD38jNtauIl01uSr3pKMNeLx2zvnGbqW8zPhPILevDU5s9hrH18dCNr9wkhhZjFhMQBgfcvLZ2/+BW21kZw+fcc5/aMjl7W9PqmQ36NULqjxTGhZN3Mb5rbMbZrbNvfB3JfZ7qN5XAAAAACwFsQy/cpZWbe3cWQss0D54ib3er7wxc87KWsuZymRtJQtqVv8rfgbTu3iq/GPZBQ5GZc3ee0ZS4UI18w3miNdtofHk0n7Mi8r4NP47iZlaqPuzkmZVE6peMapWVwdDOo3D96g2Miwsy8YDKiuvkrB0MzF9QBsfF/70lfcFrB6ato63NbipIIHlPW3Fl84583vzTszfU294dWUynrVFw8ra83+AHy5UYWTr9itOd4PAABgG+m65LaA1fOxT33SbQHYiI72f0ud8TfdXvnVhbfp7uZPzzqxNZ4Z0ONXPm9/7FuOSa8e3dnyCdWHt7v9+ZsIi03wmkhYymQnP2A+nTiri9dY5G6+YXFdTY127uxwnoALFy+rf3CW884zLE4nskqNZ51FdfbW1On923YpPjbi7ItEQqqtr5Lfz8wlYDMiLMZasNSwOFb5iPLzLAe1HnnyOUXjP5Y3X/7VhgEAGwdhMdYCwmJg48rbn0t+cPE/y9Lyrb2ymmFxS2SPbmn+qNufv4mwOG//P5nMKZWeDIvfSvfopdRltze7+YTFPq9Pd9x6o7a0NTv97t4+Pf/iq8pkp03znkdYbALiYlhs3LelQzfXNSgRjzn9isqIausq5S2pfwxg8yAsxlqw1LB4rOoDzqUprbRvV7N8vuV487CyzOv3mfMD9vuMwut3hQmLrcJrNwAAsyEsxlpAWAxsXGYhuB9e+i/LEtUWrV5YbEr3+vVQx7+0b3thGelEWGwkU5ZSqZwTHBtDuXF9b/x4oTOH+YTFwUBA973tDtXV1Tj9kZFRPf3cixpPJJ3+hPmExVZeyXjGKUVhfHLfIdV5fUonC7OTamorVV1T4bQBbD6ExVgLyhUW7+yo1+/+5v3mh8Lrn/0a/9VvvKSfvXzB6VbEH5fXGnPaAADMhrAYawFhMbBxpXIx/fjyf7VbE9HovMxZXncW9aFturvlH18lLP6c3Zr/B76FBcsePbTtX8rnWVip3ilhcTpjObOLLXdycSaf06PjxzV6lbrF8y1DcWDvbl13cK/d8ujEqbN64/iJwo5S8wiLc1n7PsYyzmVNKKRf23dYueS4cpmMfD6fM6s4WhF2jwaw2RAWYy0oV1h83b5W/f7vPuS0yy1tv9iP2K/dfvu100xcrg4u4jdycmkpOSwFKqSgvSUG7ddw+/1ApEEyi0SU7rP9j7/8mR57qvD6T1gMALgWwmKsBYTFwMZlFrd76sqf2K35h78mKL6h/v2qC83vM58JaqP+ulnDYiufte/DgNu7tuPDj6kvccrtzc+7On5HQW/E7c3PlE+GPq9nyp33yqM2f7XbW5q3Tp1RPJ5QOpPWm8dPuqMLZ+XyzmbsqqpxPuDm3HIWPp+XWsUAgA3n+EBS/8vjl/SfXx/V/+9YXK8NZtw9i/eVY4P6naeu6L+8Gdd/trdL8av/0HdWP/1Def7u49K3f8P+RH9B+tuPyvO1fySd+dHUfQAAAACwxmQsU6Vg/kFxkQl/q4Mt89oqAvWzBsWGKRMx23Xm2gLekHvN+fLI1GVeqClhsamNWFrq12s/mDZfjfwLrG0xN/sL4Py38C+EYeodmqDYXPrtO7qjusaszGd2OPv9AZ8CQb/TBgBgo7gwltZzXXGdGM3p2HBGF+M5/WxQ+maX9ER/4WXwTLzQ/26PlLDfDwympW91S/9gj3UlJbN+7aP2PnPMm6PSZfuc50czumIf3DmeUywzuWbBvA2elvrfknpel5Kj8vQfL/RjV6buAwAAAIA1Jp9fxGegdcaNTBdkSgpsgm6/z8wudvv2nxpvWA3eqaUgFmtweESDQyNub+HM1zCbLiTizZGoGkMRp/yEYYLuYNA/Z1oPAMB6lbHyzmZ+sSZrb6b92qh01N5etl9Wzev/6Xih/8qwNJaVelPSq/Y+M9aZlJL2a+grbv+tmPmVJ/M6P2kR7yGkfe9X/vpfkm7+tFS9Vfkjv2b3f1nactvUfbOIBgq/FQQAAAAAq8Gy/2x0i4lJZ0wZ9vu9U04U9gS0xV/jlKRYqrdOnNEbx2apVTxPpk6xlbOcGc+7q2tVEQgo64bFpgRFOLLQ6dgAAKx9VW494Yz9GmhE/R69t1X6+BbpY23mN4Gk2+sK/U9sleoC0vao3W6XftHeDlRKEZ/dtveZY+5rlPbXh7WnJqhtUa92VvpUv5iaxXseku7+19KRX7ffMNRId/2u3f9XUsPeqftm8YHrLphfinJ7AAAAALCyvDNj0Q1nMTOLpyxwVzQ+nlMma02csD8X04upixrMmVoeU813gbt5sW9vrgXuTOmJRCyjbCqnpkhU79q6Xa2hsD1WWBzHLGrX0FC9uMgcwIbBAndYC8q9wJ0pEXFuJK2c16/6oEdVAensaL/SVl4Rf1AVgcLCrmbmsXkZLL7lcUv8O/X9DRM1m9f2Cr9XVf6ARu3X1LG8T432ORtCHvk9eVU8/ml5U8NSOKd81dLfPOX9VYof+bJ9p/xTFrj7b/f/ob75Wr2eu9Ds9AEAmI4F7rAWsMAdsHENpS7pue6v2i33g9M8mNK6dzb/mpoiu92RlfNy/9d0Jf6G27s2UzHigY7fVshb6Y7Mz6yfAoP2h8ZStd6IWn3Vsx6c93rsD4LlCWidWiFuQp33+2SZqVIuU6vYlKAwZSZ2VFWrJRK1+2lnn/lgXFEZISgGAGxIlQGv+vNhPTXsV03Ip97EqP7TK8/rPx99QV89c0l/db7b2f72Qrf+xm0X+2Yr9s0+0/+zs12qDnqV8gb1WL9Pg1mv/OY1N59ToPMn8ve+KP/gCwoMPbv0rf9H9ot4yn0kk0L+nD52/XnnEgAAAABWWsBbmHSzcIX11Oa7zWW2Y6+2LZS5hgmMF2rWsNjULfaVBLV+j0/t/lrV+iLuyCSr0qd0e1i5Kr9yEd81t2zIP+uWCfiUsO9NLhRQLhpSsqVauYrJL1pqPOs8yqZwRLur6+Szx3LZQr3DQDCgsH09AAA2qt601JOS4jlpPJtRZzymK/bWn85oILWwrS+Zdt44DGWkPvu8g4WKTra8PDl7wFnowb6hvHntXdrmcYLi2d/YdNSO675d3W4PAAAAAFaO37O4sPjkyBP6ed9fz2s7MfzjOYPeVC4263Xm2gaTF91rzp9XC89LZ//9Uo9H4bBvykTdRl+F2n21CnimXiVvH5RuDil2Y41it9Zec+vZ3zTr1nuwWUM3tGv0pg6N2pfp1uqJ35s1M4rNFvD6tLO6VlsqKp1ZxZbzYdajmtpKZhUDADa03dHCVlvGn4222++NtkekjsX+QH2JfN683nPgsgK+Qi1mAAAAAFgpPm9A+TkmtszFzNQ15St6Em/NaxtIX3CvOVMun1Z34vis15ttS+ZG3WvOj7mvXo+Zbrsws9YsLoqb2sWZyQ9wY1ZKLyQvqCc3tsCnclJsJOi25idv5TU+mnbKUGytqNJDHdtVEwgqOR53ZhZHIiE1NtUQFgNwrFTN4oD9fWjLtm1qbm1TXUOjKiqrFAgG7W9F6/t7kfmJZyadVjw2pqGBfvV2d+nKxYv2a0Gh7A/mp9w1iw2zNMC4/ZJsFq97tb9X/+zpHznj+5v2qTpU5bQX4v976z4zj1ijGanaL/nNz4KttOr+bHvhgCp7R1V5SkQMvfOSfQOVU2oW/893/Udtq+pVzvLoj568Ti9canLGAQAoomYx1gJqFgMbl5XP6dGLf2S3FptyXltdeJvubv70rFlBPDOgx6983gl1y8+julC77mpd+Pew2WcWu8Ihr7PCelGVN6T9wWaFPPanyhVgZmmn7U/HVs5S2OfTzU3Nqg2Glc2klcvl5PN5VV1TQVAMYMXU1NXrtre9XR/65V/Vnfe+Q7v2HXDC4mAotO6DYsM8BvNYzGMyj808RvNYzWM2jx2r59iY9K0uKVHGEr+mrMXX7XNeSboDq8DMLn7nHkpRAAAAAFhZZtZtU2Sn29to8tpRdYvbXpirhsU+nwkNpk5X3uKr0cFgy7Jk3tPlMjllUjknNL6lqUW7qmuVt0xJioyTJFdURhUILnw6NQAsxpHb7tDDH/yIE6KuWDBsf/8zPxxLJpOKx+MaGxtTLBZz+pa1Mr+6bx6reczmsZvnAKvj7HhhG5moL7x0XUnpgn3O1QyLjcOtQ6oNz1wEDwAAAACW0+7qO93WxuK1/7RFD7i9hblqWGwC2UBACvgnQxGvx6O9gSbtCjS4I8sjl8sXZhVblg7WNejmxlb55FEmk7H3ZRUOB1VRGV6mqdoAMMnMqH33+z+kA4dvcEeWlykFYb73Xbp0Sd/77nf1//z3L+qL//2/25f29sUvOlux/6Mf/lC9vb3OdRazOupCmefAPBfMMl55plREwH7Ji5TxZ6TmnOY3iKpXeY3YSCCnG7YMuT0AAAAAWBn14W3yrVAFhZXk84WlaevOzdfVr+XxyOf1Khj0yr6YEPD4dGOwXa2+SnekvEzgkU1mnZnF7dFKvaN9m0I+nzO7LpNKOeUnKqsi8vvtT8wrNbsPwKbU2NKqBx55r1OWYbmZ731mxvBrR4/qi1/4gr39dz377E/V2XlZfb29GhgY0NDgoAbtS9O/fPmynnjiCX3+v3xOX/nzP9eF8+dXJDA2z4V5Tsxzg5VzV730me1SVRnfx2yPSv/EPufuCndgFd3UNui2AAAAAGCleBTx1zmXG8nWiuvc1sLNK2I2M4uDAe+UXDbsDeiW8DbV+6JlfTpNzpFJW075iaZwVO/q2KGoP+AEIOnkuH2EpcqqqMKRUOEKALBMzOzZt7/z3U4N3+VmvseZ8hJf+bM/09//3d+rs7PTjBZ2XoP53nzyxAl95c+/oice/8mKlKcwz4l5bphhvHIG0tIbo4XXyXIxi+YdHZHiWXdg2d4gXfu8B1uG3RYAAAAArJzDDe+2/7/8E69Wis8T0L7a+9zews1vPrLHo2BwZmBc4w3r5uBWNfgq5nmia7C/LmY2cTaRdYLi+7d0qCkUcT4Zp1MJ5bJZRaLhQvkJZhQDWGZ3vP2+FQuKR0ZG9Odf/rIuXLggy1rcCmapVFJPP/2Ujh875pxzuZnnxjxHWBkm1H1+WOpPuwNlcDYu/dw+7xn70uH1K3Hzv1Lyut9QcvdvKbnjf1Fy579Y0ja+53+3363Yr+XX0BBNqy5C3WIAAAAAK6s+1KGIv8btrX81oS1OYLxY8854vV6vQkGPs+hdkakX3Oyv1A3BNjX6Ku2TLS3AzWZzyiRyag5FdU9ruzoqqwvj6bTSyaTCkaCqq6P2fWBROwDLyyzkthKlJ4p+8P3vq7ur2+0tXtr+fvmdb3/H/n46MVV0WZnniEXvVkY2L9kvkU6N4XJKWqU/Q/codeBTSt7wz5U8aIJi+3LHby9pS2/7tH3aa7/d8Hnz2lptfoMIAABsZh77jUkgZymSyakinVVlOmNfZhRN5xTKWrLfMgBAmXm0a4MsdOf1+HW43syUXrwFTQj2+ryKhLzyTwuMW33VOhLcojZf1aJnGGczljLjObWHK52geEdVjbOYXjabUSqZUDAYUE1NhQL2JQAsJ1NaYaUWszNOnTql119/XflZfu3FfI+trq7RkRtv1L333qe33fN27dmz96o/NBsbG9Ub9vlWinmuKEex/O5tlH6xXaoPSi2RqG5qbNENDU3aWRHWnqrogrbra80PeKX9ldJHt0iHqgq3YfRmKnRhvKqwxSontovxKqV89epKVk8ZN1t/plox1c0YN9vFWERp+4PdfLRWJ9wWAADYbPyWpYbxlHYMj2l//4iu6x3S9d2DznZD95AO9w7qQN+wdg+OqnUsoXB2cb+NBwCz2V55kyqDKzdhbLk0hXepMrC0x+F77/se+azbnhevtzC72LLMav2FMVMSIuoNqc4XlaW8hq3xWSKPgnRqZsCRTeeUHs/pQHWd7mpt15YK+0OsCYozZkZxQgG/T3X1VQqG7E/IAHAVx159zW0t3g233Lpis4pNfeHvfvs7GhwccEem2tLerl/51U/q1ltv1Z69e7R3715dd/iw6urqdOLEyTnLTYSCIR26bvEF7RfK/PbJlUsX3R7CVUv7FaZ06IBz2dxQqfvv2qPOWFpfe2tAI1npfCynhlBA72hv071btur2pibdUF+t6+sq571dV1uhN/qT+t65UY3br+WX4lm1R30K2a/v/fZtxdOW0rn8lC2Ts1QT9msgnlEiO3W/z7w3sF+3B8ezU8bNlrG36pDffi336uXXL+vshcLf9Q/selo1oWL9i4Izg1V6s8csLgEAgJSKjbotbGRmJnFzPOmEwB0jcbXFEqpNpJ1ZxdFsThF3q8hkVZ3KqC6RUn3S3uxj/FZe4wG/rHL/6lWJ62464rYAbGgm2wzUqmv8uN0p368whLwVagzvVMZKzNgSuWFdjh91JomVQ8Ab0q3NH5PfvlyKRU0ENmFxNOJzFr4rMq1ab0RHQu26JdShsGd+pSLMQnZK5fX2lnb7Q2+HmiNmwbzCjGJTesIf8Km+wQTFzCgGsPwCgaB27t3v9pafWdRucHDQ7U0V8Af0kY9+VI2NjVPqtAcCAR08dEgtLc3uyExDw0MrstBdkXnOzHOH5XF8MKWvnRzW830Z/aQ7rROjli6lKvXz0Sodj4fVEAxoJBvQM4MBPT8cUIX9d8frCejZoYB+ao9l8gHV2n9vfm7vM8dcSQb0xKWYvnV2VM/1ZvR4V1rdicLfl9aqkHbUh2fdQgGvttbO3N9cFVRV2D9jvLiFg/N7u1EVXJnyKQAAYG0IZi1nBvEN3YNqGx13Sk74rLwTVJjNvAOevvnyckpUNMST2t83opu6Bpxw2YTOALAUTeHdaosWJu6Uy3C6U49f+dys23M9X3aPKgePdtfcrbC/UNJ3KRYVFhtmhnF4WmBshD1+7Qk06V77CW7yVbijM5nZcOlkVrUK6v0du51fpzUfbg2zkF06YUpP+FRfX0npCQArZsu2bSu6gKbf71dVVdVEWQkzUdi8zzXbzt271dw8eyAcDodVd5XSD6ZmcS63cr+aZ54z89xheZiZvKPpnMZzecWzeSXty9dGpaP29vJI4e/L6Xih/8qwNJqVelPSq/Y+M9aZLNQmfsXtH49JMftDVixjOeczW8b+YGYMjGfUNZqedcvYx/WNzdw/FM9q3L5/08eLWypTOPe1BP38OikAAJtFZSqjm6/0a9twTCH7fat5NzyfgMK8qzDv1s2xpnRFYzypm7v61ZBIEhgDWLLrG35BIV+l21s6MyHWY3/HmnsrT/7QGN5etrrLiw6LDfNrp5GIX6Gg/eBKHpspIdHkr9K9kd06FGxRxBuYekP5vHwZjw5HG/TBbXuchezMr68aJuBIJcYVCvtVW1/lzKADgJXS3NrmtlZGNBrVP/6Nz+j3/8N/0O/9m3/jtD/wwQ/qgXe+Uw8/8vCcwbUZD4Xm/tWSucpTLKeVfu42k+JSAZb7dTW/afneVunjW6SP2U+76d9eV+h/YqtUb790bo/a7fZCneMD9nudiP0J7BftfeaY+xsLr+FuPuww5zDylv1anMvP2HLuweZi+j7z983szU0bN5tzvXl+cvM4ZwEAABtdVSqj63qHVZ9IOf3iO17nnYDXK09LszytLTM3M14RnXjHYHIGc91wJqebOwfUFE8QGANYEp8noFubPrKuPpkEvGHd3PwRt7d0C65ZPJ3JMfzu7GJTx7j0yfR7fGr1V6nBW6G0cvYfS1bKpyZPRHfXt+lIQ7NCPr9zrPmgmctmlM0kFa0Iqaa28qoLOAHAbJZas/jwTbcoEo26vZVhgt9i+GtqEbe3t2vXrl2qqCj8dsZcwe/xY8fV3d3l9qaqqq7WLbfcsuLfR8+ceMttbW7lrlncYEo8VId0R0tEtzQGdWN9QC0Rr7PYXU2g8FpswuA6u19n9/32J6eAvdXabXNM2N5nwuAa+yXX9Cvsyy0VAe2rDenO1ohubgjqoL0zYB8UCfpUE/GrNjp1M2NB+8TRoHfGvsqQXyF7X/VVrmf+jl+rZvHJ/mq91Ln+F5UAAJQHNYs3Jqf0RN+wmuJJJ+idPoPNU1ujyD/+VQVuvUmBm49M2fw3HpEyGeUvXnKPLoTFhtd+z9w0nlQsFNC4mXRW3LFE1CwGNp+wv0o1wWa3fnGZvpksG4/uafuU/ZmvZNXyJZr+fXlRzAfAcMjrlKUwwbH50FpkplO32E/y3eEdui3UobdVb9FDrTu0w/4gbWYgG6auZjadVt7KqKo6qpqaCmexJABYaRWV5fsGuyT5wm9ajI6M6MRbb+n5557TM888o588/hP9wze+qf/5P/5Ex4696R68NqyZ524Dqgv79dDOat3VHNJtjQE1hn3OWxYz47j0Ndf0izOEDdMvzko2zD7nOnZ7d01I795RpdubgrrVPmfEJMy2gH2ACX5n28xtmeB3+rjfvo6ZqTx9vLgVX++vZTxd+AEyAADYmEygu69/RM2xhPN+xPzWsZkWkbffK5jNvNnwhELyVFbOvlVXyRONThzvbOY8NnO+QM7SnoFRVaUzhUEAWKSW6D6nJEXB/D7PrIa7Wz+pykB5J9x4vvDFz88+ZW2RcvY350wmr3TG0rXWVnJmE+eykpVVIOBVtCJsX/JBEcDife1LX3Fbi/OPfv0zzg/AVlMqldKzTz+jnz3/vBMYmwU/F1p/eEt7u37jN39zRUv5mO/pf/vlP3F7m1tNW4fbWpyxqg84l9fta9Xv/+5DTnstuDA2qr8+fdz5UNZa2aJwIFzYMU9vne7V5e4Rp31f+yuq9Ce1K/um7k9/yxn70xf36DvHl/bcAQA2jpGuydmj2Bi2jI47i9mZ0Ni84/a2tCj4wH1SZLK8micYlHdbhzyzTCBzSl8NDskaKPymksPKK/viS8odP6G8ZcmyT3y+rkonG2qUK/0p+iJ97FOfdFsANp28pc7xN3W0/zvuwNph6h2boLgmtMUdKZ+yh8WG/f1bWRMap/PKZC2nP535Jp7LZZzZSOGwX8FQgNnEAJZsqWHxxz/1G25rZZk3vsPDw3ru2ef08xdfUDqddvcszmqExcbffOl/uK3NrVxhcUNdVL/2sdvlK50evIpeGx/QX/WfctqHmg8uOCzOZHLOD5WNkC8tryevvZmj+lex/9UZ+8OfHNbzl5qcNgAAhMUbi5n1e1tnn2oT9nsAd8x3+JBCH3qfFIm4I7b5TNyYFjKkf/i4sk//1Mxek3mnEQ/6dbS1QcORYOGAJSAsBjY5+/tNX+qsXur9uqx81h1cXabkxB2tv6QK/9yL3i/FsoTFRaaGsVnsJpWynAVuit/PLTObOJ+zXw8CCob81CYGUDbrMSw2QfHgwID+7Mt/psHBklkScyh+077a22jC4tVVrrDYlHaoq13ZGtpXM9Ro6cLOwhukG1oPK+Sfe5HF+dqTeU3/fuw3nfY//+bt6hwt1OoGAICweGNpHUvout4hhbO5ifex3p07FPyFd8sTLQmLF8p+c5x+6qfKvfSylLMKZS3s7WRjjc7WVzszjZeCsBiAMZbu1Sv931Is0+eOrAaPWiJ7dWPT+2UW4lsuyxoWF5mQ2MwwTiayzmy5SMRvb8FCDcNV/nVvABvLegyLBwYG9NWvfEW9vb3uyHQe1dbV6eDBAwqHI6qrr1NVVZWe++mzOnnyhHvMVITFq6tcYfFaM77Fq8HrCz/gLXdYHE/79am/fZuyFr9lBAAoICzeOEzZiQN9w9oxFJuycJIJIzyRiDyVi/xhsX2CfDolxceVz02G0GZ28VAkpJ+3NyrjW9p7C8JiABPylo4PP66LsVeVs8wkmmWPVCcEvVHtqb1HO6putnvLm6WuSFgMACtlvYXFphbxn//Zn+nM6dPuyFRmkdB3P/yw7rr7Lue3MErrKX/97/5OL7/8stubirB4dS01LD4zeqNz6fMH7a/h0n99slwyu6JK3FHttMsdFr92pU6f/VHhcQMAYBAWbxxmNvHhniFnYbvp0a1ZpC700Q+6vQXKZJU9+ppy5y5MiU5MyJH1evXTbc2KhZb2fpiwGMAU+bziuWG9PvBdDSc7Nfn7DMvDK7+ao3t0Q8MvyO9d+uev+WD6DgCsop7uHnVe7nR7M91+5526+213y+/3z1h4z5SvwMY01H/F2UaH+xUfG10zWyqRcO9h+b3WXee2AADARhPK5hTJZGefC2e/p/UfPiT/zTdO2QLT+rNu1x+SJxSacV7T91mWKtNro74ogA3E/lxe4a/TnS2/onu2fFqVgUb7e4757ctZv8Mtmikz0RzZowc6/qlubvrQigXFBmExAKyik6dOKpmcPYDzerx65BcembOueyq1tEXwsHblsllns8wiLdbyb2a1cStvzbqvdMvbxywH82OPly43FDoAAGDD8VuWgu4it7PJ9/U7bwhyJ04p9dW/kez3Qc5cvbGYUn//D8r3ujVC7fNkn3lOudffdELmvH1Oa3S0sG8WFemM2wKA8qsMNOneLZ/RQ9t+Vzurb3VmAS81NPZ5gzpc/4jebZ/z1uaPKehd+TVdCIsBYJWYmcEXz19wezN1dHTMGRRn7TfQY2NzvzE2mHmM+ahtaFZja5vqm1vk8azO24Lzg5XqHF07C/kBAIDy8llmm/netDiS6+qx/59XPpFQ7uw5JxQ28mNjssxv4aXdSRJmf2en8uPjhb6Vc+oVz8bENVcLqAGgXLwevw7WvcsJjR/s+Be6q/VXtL3qZlUEzG9Pmu9Gnonvd5PMuFeVgQbtrL5db9/yafu6/6se3Po72lZ1o7139SJbwmIAWEVDQ4Nua6ZQOOy2ZhobHbW3Mbc3UzaTcRYUBa7G6/MpWlkpfyCocKRCgeDq1Ed+6mwzC9sBALAJTJ9vV+xb3T12xyNPTY08Ifs9cHHSw7Qr5JMp5YdHpOK6HDkTMCcLbQBYZR6PTwFvRHWhDl1X/5Du2/JP9PC2f+kEyO/a+s/1wNZ/pgfa7W3rb9tjv+Psu3fLb+hg3TtVFWixrxuW1z7HauOTGQCsovwsMyyKent65pwdfPz4cY2M2m+U5zAyMqKhoSG3B8wub36VM1uo5VfaXknjGb+ePtfq9gAAwEZkfiZseez3G25/Oqu317n01tVIkZDyc0yKyKfTysfi8oTcH3BnM07JirlkfUQeAFaTR15PwAmQQ75KhX3VCvvtzVflBsNLL1uxHPjOCQCrKFox96/eDw0P69ixY1MCY9Pu7OzU97/3vauWmUilUnrmqaevGkYD5u/QYG+3hvp61N/dJSu3vGFxondE1rSFZrrHIhpKrs6MZgAAsDJyHq8yc5RXMzFJ3q077IlEJPu43MXL5o2KMzaFqUFsSlSY2cc2a2TU+YH3dOaaZkv4V3+GHgCsN4TFALBKPB6P2rdudXsz2bv1nW9/W08+8aS6urp04fx5/fAHP9Sff/nPrhoUF7355pt66qkn53Us1hbztTeWa0G5UtlMWol4XJn08v8K59j5Hp340o/U+aOjil3ud36Ykcl57ce59n6aDgAAyifl8yoZmD24dYLdYikJN1DOzbGuR978YDsUkidSCIvz/WZhvNnf65rR0ZBbrgIAMG++977vkc+6bQBY9469+prbWpzDN93itlaG335DfPTVo/ab2dnf5Jq6w2fPntELz7+gl19+SRcvXFAmM/9axKYUxaHrrlP4KvWPy+nNV192W5tbuKrGbS2Oz5uX15NXKJBVNGgu02qIxnRnR5d21Q8tamusSqgrXi+P16tAMORsplZxYQuUtKdu1zV36Xp7M+eItPnV21QoGdFS2Sy/1/za1Px5/D5d+fFrSnYPaeTUFWfLjcWl3vP2Y2YBGgDAVKnY1Rfzxfphfi5cl0irOpWZ8QvXTt/vV+Dtb5Ps9ym5148p39Or4N13KB+LKffmW/IfOiBPdbXyA4Oyunrkv/6QPNGosi8fdRbAM5MwSpl31uPBgC7UVSnnXdoPpa+76YjbAoDNgbAYwIay3sJis4jd6dOnNDY292J1xrT3vw6vx6sjN96o/r5+WbPMQPV6fXrHO96hnbt22e2V+UUSwuKCpYbFkVBO1dGsairSqgqNqzIYUyQQ12/d+Zree/CM3r7z4oK3bfUxPXrxBnkCflVW16iyslrhaMU1t3980zP6xcMvO+fwNYX0jOc65z4uJiz2R4IaOX1FqYEx5ewPjOmRuMb7YhobjyiRjdof7Dz2OTNOUA4AAGHxxmHZb2ZD2Zzqk2l58+YVfxq/T/6bjshjvzfOnT0n6+JlBd9x79SwuLJS1oVLyo/F5T980FnkLvPMc8oPDc84n3kn0VUdVW9FRPnZ3kgvAGExgM2GMhQAUGKlSzZEo1G97/0fkN+/sNAtFArrl37lV/SBD35Q27Zvc0cnhcMRffLXflV33X33gs+9WJS7KB8zszgUsBTy5xTwZRTwmlk4OT12qlmNFXG1VY8teGuqGHdmFZvN5/PJZ/+9mM9WH01NnKM2vLRSFR6fV/U37HB79t+ZnKVsIqN0LqxYulp98VbnEgAAbDz90bDGA34nyJ3xrtF+T2C5JSV8ba3OQnYzWPYxXT3yBAOSv1BeIj8yMmtQnPL71GffnrXEWcUAsBkRFgNAicxsb0yX2daOrfrVX/91NTY1uSNz89h/Dh485ATB+w/st98n+/Xhj35U27dPBnAtrW36lV/9pPbs2TPjV/IME+qaWriTm+kvPehdjedus3mjp07feHPmDwdWSot3SK2eYbV4RlSdvaIGq2vB274DgWI5wimsvFcVwTF7i7kjAABgI0nY71u7KiNubxrLfk/aP+g0vVvanNDYvDv1eOw3DSXvZ/NDQ07JCrkhcD4edy6LikG0CaZHwqGZoTQA4Jo8X/ji5/n+CWDD+NqXvuK2Fufd7/+Q6hoa3d7COIFrPutceryBWYPauZjrZLNZvfTzn+uZp592ahU7Ia69z2ufx+Pxqr6hXg89/LC2bdvmnLt4fnNcLBbTX371q85q0J/4pV9SdU3NlNt3QuHsuKyxs7K6n5UnZb8Zt9LOm++8r0Keplvlb73Hvt+Ln4U8NNCvH37rG25vc6tp63Bb5VcVyuif3vmW7tje747Mz7H+Nn3iH37daddU1igUnF8d6393+5d0b/tRpz2ukK5Y9U475A86pVAW6mfnG/SH/3CdYukqd6TAlJ/YXnvOmUUNAIAx0nXJbWGjCGRzuuNy30Tt4uK71bxZU+HuOxV8z0NSOqPsK0flv+NW2W+QlTt3Xr72dikSVr7zirMInqetsIbC+P/+B1Iu57QNU5gtEfDp9ZZ6DVTYxxeGl+Rjn/qk2wKAzYGwGMCGstSw+La3vV279h1wewtjQltr7Jysriflqb9B3oYb5PH4p4S212LOkbPf8CaTSScwtgdkFh8LBoMKmZWfr3KubCZrvyHOK2AfX8oJovtetN9cP26/mU7KE4hK3oDy2YQ86cKv7uWDtfId/E15ww2FKy3C2ZNv6cWfPu32NrflDIuNlsqE/sXbj+lA0/xrOZYjLF6qt/qq9fmnD+nUQIuujE19jjz2393ayICaK3qdNgAAhMUbUyST09vPd8tvWROBsakr7D9yvUIf/4hzjCz7vUCxhIT9XtZMcJhQ7CcSiv/Bf3Ku7wy728nGGp1pqC7buwnCYgCbDWExgA1lqWHx9t17dOe973B7C2dm8GZ7npUu/1D5YJ28Oz8kb7RNHm9wQaFxOTkzlHOpwntsrwmSTcNseVnDJ2Sd/gt5gtXyHvgn8oZq7fHF+dlTP9GFM6fd3ua23GGx+ep11Mb0z992XLsbppZtePxki778/G6nHa2osf/uFWo+jKVCeqVnq9MO+APzXvRwT81lNURmhtLv3ntaH7ruLbd3bWcGKvXHPz2oS8OVyuW9Oju4V9m8X7XhQfk8WQ0kmuzPhJbTN4ExAACExRtXy1hC1/cMKpiznNqYJpTw1NXKf2C/s//a7PexfQPKnT7j9iTLPlFXZYVeb62XVca33YTFADYb33vf98hn3TYArHvHXn3NbS3OeCymA9cfWXSwa67nrehQvrLD/oRzXOr5qfIjp5XPxKRQvf1d9+qzg5eDuT2nvITXVyhF0fuC8mPn5K1sl3IZ5QdeloJ18rXcsegyFCaQfvGZp2RZk78GuJmFq2rc1vIZTQV0oq9GO+pjaqxIuaPSd9/cqr96aacuDFaqL71Vl0ZqnK1nrFLOl8cqzF7PmV/rnMc2GA/p8kj1xHmKW3U4pQd2ny/c6DWYGcVfeO6Afb0K+8OcKaGSV9oKKuxPqDHap2ggYY9ZGs9UKuBLqyo05l4TALCZpWLz/w0arC+JoN+pYVyZziqQK8wwVjIp63LnvLf84JBzLhMUp3w+Xa6p0PHmurIvanfdTUfcFgBsDixwBwAlMpm0zp064fYWx4Szvuo98h36Z8rXH7bfDdtvZjt/oNxr/x9lT/65smNnZKVGlM9n7aOX85c7zMJ1lqz0mHKxS8qc+Vvljv6h8pe+q/zoWSc0tFJ9TmCsmt32K0LQvd7CmefMPHdYOfm8RxeHK/R/P3tQz1+YrLOdznqVybmb5bMvC1vWTLcpMrPN57mZ6xXPUbqlsvP7wYK5b+Y+mvtq7nORCYnN5vdm5fPmVB8eUltlpzMGAAA2Nst+v9xdFdXx5lr1ubWFi++KzbuFa22GM5vY3sZCAZ1urNbphhrlyhwUA8BmxMxiABvKUmcWG/FYTHsOHHJ7i1OYzRuQt/aA8tF2KTVU2JJ90sCryg+85iw2l0/0OYvSeQKV9pXMas/mv8W/yTXhnpRTfvyKcv2vyup5Vvmux5XveUae+BXJH5Fn68PybX3QvrmwrM7HpMyofDs/Iq+pZbxIzz/9pFLJhNvDSswsLvAoZmYY99comfVrX+OoLg9HdbSzTpWhrGqrfKoIZu0tU/bt7m2XdHtHp3s/ZjJh9dff2K6/t7eesYj9gW7q32tTcsJsRV5PXkFfRn4vs9MBAAXMLN7YzM+QzQzjoXBI8VBAkWzOKUtRGhwb5h1Eab/YTvu8ulhXqbP11eqvDCs7zxJbC8XMYgCbDTWLAWwoS61ZXHTktjt04PANbm9pCjM0M7J6nndCW6XH7De9k4GYk+96g8pHGuSJbpWnaru8kWZ7LOKsDO0xIbLDvAEuvl227AsTtNmbKSWRHpI1dlGKXbDfdfdI2fFCNOf+L++PSjUH5Ot4WJ5AlRNmW6lh5V77I3na3iFf+zudscV4643XdPTF590ejOWuWTybqlBGh1qG9fC+ToV9hb9fXt/iyorMR10kqcaKcbc31YWhCv310Z061lOrsdTUBRcBAJgvahZvHh777W0wl1N9Iq22WFz142mFsrkpIbFhSkyMhgK6UhlVT1VUKb/XmaW8nKhZDGCzISwGsKGUKyw23v3+D6muYfLX+5fKCY2zY7JGzsjqf1mesdP2O15L09/fFr4p24NmMTpTQ9iZcWw2d7aEOcCUsDBhsZVx27lCLmz2uedzQuhwozxNtzkznD2RZvu2Cucw9yV36VHl45fk2/PL9k1VOOMLNTTQrx9+6xtuD0WrERYbAZ+llsqE7tvVo4f2dTqzi1dSLOXXD06268mzLeqJRZzZxQAALBZhMdYCwmIAmw1lKABsKOUoQ1HU39urbTt3y+cvz+xMpzSFWeAu2ipfwxF56g4rb8LbbFIeZ/ZxIfCd2EzfythbWp6cfUwuMblZqcK4c53CL/g7IbMvKAWqpcpd8u54v3wdvyBv9U553dnEk/Kysgn52h9YdPmJdCqlZ378GOUnZrFyZSimsvIejaaCujBUqZev1CtredRalVDQP1nuYTmYkPjxM63685d36+XLjeqLh537AgDAUlCGAmsBZSgAbDbMLAawoZRzZrHR2NKqt7/z3QqGQu5IeTk1hnMJ5VODskw94/gV5eOXpUSvlImZI+zNDd0mEuHit217wGffr3CzVLnFKWGhSLM9VCdNhMNXC+xKzr1AJih++sc/VH9PtzuCUqs1s7iUqQFcE86oIZrULVsHdEdHv7bXxxb5FZ/J/O25MFip5y816qXLDRoYD2skGSAkBgCUDTOLsRYwsxjAZkNYDGBDKXdYbNTU1euOt99X1pIUc8mbCM75rpxTPptwAuN8dtzuJiXL1KH1Ku/zy+OvkCdYJZlLT2Hm82JrDi+UKT1hFrQbGRp0RzDdWgiLizyevCqDWaemcWvVuA61jGh/46h21MdkFr9biHjar/ODlTrRX61jPTXqHos6NYlj9niekBgAUGaExVgLCIsBbDaExQA2lOUIi4vKuejdesVidvOzlsLiUn6vpWgwp0ggq7A/p8ZoUq1VSdVHU6oKpe1xy6l7bJh6w4mMV2OpoAbHQ+oeC6t/PKxk1meP+zWe9ilrUZMYALB8CIuxFhAWA9hsCIsBbCjLGRYbZpbxvkPXaefe/Ss2k3e1mVIZ506d0MljbzKbeJ7Walg8nQmPgz5Lfl9ePo8ln9d+Y1CY2m7/36OcJeXyXmVzHqVz9iXhMABgBREWYy0gLAaw2RAWA9hQljssLgoEgtqybZuaW9uc8hQVlVUKBIPrPkA2wXAmnVY8NuaUm+jt7tKVixeVyaTdIzAf6yUsBgBgLSMsxlpAWAygHJz1ikqs5eyAsBjAhrJSYTFwNYTFAAAsHWEx1gLCYgDzYsLgkgDYsvspK6d4NquMmZRlt3PuMeb3NQNer4IeryoCAYXttqd0KfJisLxKgTJhMYANhbAYawFhMQAAS0dYjLWAsBjAnPLOEvWFWcJ226z+MpBO6VIirsv2NphOK53LmeXrnT9WMU+2L712wyevgj6vGgIhNYXD6ohE1RKOyG+C42JQ7AbMK4mwGMCGQliMtYCwGACApSMsxlpAWAxgNqasRLGURCyb0fGxEb02Mqi+ZEr5YrZrjjGXXvv/9qBZH6aQ/Tote8yy/+8sHFNg76wNBnSouk7X21t9MOQOT97WSmClGgAAAAAAAACYp6SV0/l4TN/r7tT/PH9KP+q5ot6UCYpNQOyGxDZnhq6ZUpy3nJnHJh7Om5A4b+Jic5T9fxMGmxTZNpzJ6Nn+Xv2pfc5vXLmgM/FRxXNZZ9/0usfLhbAYAAAAAAAAAOZiglp7S1uWzsVj+lFvl77ZddGZTTyezU6Ew+aYwqFusOvxuCGxyYzt/9sH5s0s4ZLNHDkZA3ucWcQZ+3ZOjI3qH65c0qM9nXprbMQJqFcCYTEAAAAAAAAAzMYNfkezWT3T361Hey7rjdFhJc2MX2efU1TCNTUINsy+tnBU11c1yCxll8tbhXDZCZbtvSXHOtxzmv/MInmnY2P6QU+nE1D3pBIlxywPwmIAAAAAAAAAmKYY5valk/rmlQt6cXhAI+m0vcMUlCjMCrYPmAx7S0PfCXm1hKJ6sGW7Pty6S1tCFcqYWcb29cxCd6WzkI3CzGMT2Zpb8Miy94/ncjo2NqJvdF7U6djoHLdTHoTFAAAAAAAAAFAqn3dqDJ+Nj+kvL57TlWTCmdA7ERA7FybYnTu4Le4x1wva296KGn1iyx7dV79FYZ/PCYLnWrzOhMbmek54azfylqXhTFp/23lezw/2uYFz+REWAwAAAAAAAECJpGXpleFB/V3nBSWsnBPcmnDXMY+ZvWbGsDl+MtL1KGufM+j16Z66Nn20bbeuq6pT2O5PzC4uXhbZN+PMNHaZ3Wa28RP93fppf6/i2Yy7p3wIiwEAAAAAAADAyOedxeRMUPxMf69y7lxie0dhpvAcQbEZNaGvqUlsLkM+n5qCYe2MVKk5FDF7J65rqhy3hyr0SNM2Z9tdUe2UpCgUp5iFvc+5F57CfTCh8cvD/Xp+sF/jZQ6MCYsBAAAAAAAAbHrObGD78s2RIf1ssFeJfM5JZp2ZvyalnRYUm/HiSNqyFPB6tbuiRu9q3Kp/1LpbH2nbrQ+27tINVQ3OMaVBrAmMfR6vU5riPU079GDDVtUHQvZ5CrfpbKWc27Y3dzxt5fXqyKBese9rMaAuB8JiAAAAAAAAAJubCX49Hl0cj+uxnitOGQpnbCKDnRkUm9nApnawCWtvqmnUr7bv1yfa9uiO2ha1hytU7Q8q5PU6x12NqV98c02Tfn3rAd1e2+zMInZudpYA2ClL4dYrTtn38cm+bp2Px5z7PtvxC0VYDAAAAAAAAGDzMiGrx6OBVFLf6b7ktJ3CD8XsdXrYa0Jk+8Jnjx+oqHVC4vc1b3fKTWTtfSZANlc1x3jt/18rgDXHZfI5J1h+uGm7fqF5m1PGYq7oN+/xuvsK9+PbXZfVk0w4I0sNjAmLAQBYg37rj7+sr329sH35Dx52R4s+rc/NuQ8AAAAAsCAej7NY3I/7ujSWyRQCVzftLV1gzjAzjc283upAUG+v36JfaN6ujkilExKbBe3M0VOvMT8+eZWycjoWG9Dx2JB9Puvq5yneR1syl9OP+q5oNJt1HstSEBYDALDGVRx+v37/fW4HAAAAAFBWVt7S6yPDTgkKp5zDROA6NXg1vawsNQTDerhpm26uaVTY65sIiUuZHNfNm+1t+t4CN+t1XEyO6ft9l/T93ks6Nz6mnGXvvVrwa+8z97Vw7ryuJBJ6dWRAWVM+YwkIiwEAWPOiOvyPfk/kxQAAAABQfr2plI6NDSlrmQXuCjHv9BnFZtjM9m0ORvSJLXu0M1IlU2JiOrNwnRk1i9357XMkrZziuUxhZwkT6QY8XmdBuycHr+jr3ef0VmzIKWHhhMDTb38Wzj21DzP31YTLJ8ZG1ZNyy1EskucLX/x8aYgNAOva1770FbcFrJ6atg63tXimDMUD7XYjPq54RVQVdrPz8V/X7/xXs9eUobhXzu43/lq//u8fNYOO9/3Bf9OvHo66PWNcb3zpn+o/fLvQm9x/RY9/+LT2u+eZOE6/py9/6qBze9Ova8w4f+dT+tg//1O3AwBA+Yx0XXJbwOr52Kc+6bYAbFRmcbpnB/r0bH+v8mZareXGvaVZbd6MSbWBkD7culOtoahTdmKuOHcsm9Hp+IjOJEbUmRzXwcpavbtxmyz7TzFgNhOHz46P6InBK07Aa4Jjs8ssnDefoLjIHJm3H4NpmT93NDTpnoZmJ6heyHmKmFkMAMCadkF///gVp9X+wH/Ubzmt2Tys3//Kl6cFxUZUhz/1ZX3ut93uhFrd8ZViUGyY2cv/rSQoNqbOaDYB9ozzt9+rr/3xp90OAAAAAKwj+byG0mm9FRtxZgTnTVBs8tWSjNWEt/J4VOHz6976NjUFI8rMERQPZpL66VC3/vLKKX2//6JOxkecWcWmTIVhwlwzc/hiIqbv9J7T3/ecVV86oaDXRLTuMSUBrxMcF9vufnOfSxV6Jmg2R+Z1amxEQ5nUooJig7AYAIC17r/+v/V4p2ls0QNzBbO/fa8OuymvmYH8sQ+b7a/1Rrww1n7H9DIWUQ0/XziucG5bRVR646+njdVoq7l83+/pDjdZnjj/l47LOX37nquE2AAAAACw9hRD4PPjMQ2mUm7YakwNWb32uBm5rqpee6I1Tjg7PVA1x5yKj+i7vRf17FC3E9b6PV5ntrA51uw3J+lPJ/X0YJe+23dBx2PD9pBHPvsYJ/CduH2XCYrtMVP6wgTFPrtt7vPUqNhlruruG0yndSY25gw7j3GBCIsBAFgHvvDDYjB77yyzhKX3Nde6rSs64ZSqMB7Vy+fGC81i6Dth8rjLQ+4x9tjzbkmLyTHX9pqJGcftD3xZX/u6vU3MQq5VMwWVAQAAAKwjxWj2zdFhp05xITx2B0vk7PH6QEg3Vzc5M4CnH2JC3KOjA/pO7wVdScWd8xQD12JUO5pN6/nhHv1d9xm9NNKn0Ux6tpuaUAyFzcJ72yNVeqRxmz7Sukv3N2xRlT8wRwhsn9EEyvbFG2PDTnmNq93GXAiLAQBYD779h/r7NwoBbvsDpeUjCrbWTS8/UV6TYfRsoqrb7jYBAAAAYD3weNSdTKgzYX/Omshep8arpmfKRtxS06S6YMhZlK6UiY5fGzNB8XlnBrAzB9k+b3GWsAl1zZiZdfzDvktOLePJm5p6W6XMjGITFx+uqtevtO/Xzfbt74rU6G0NW/Suxg73tqYxA87tSX3JlC6NuxOAZg2W50ZYDGBDKfxyCLAxffvff2uirMR0XzhRqGtsSlXsn5h5/LBu3umGyPabk8uF1qJ8u3fYbZWWuZjcCgvvAQAAbBx8tgA2uHxex8cKpSDmqu9rZuc2ByM6VFnvBr9TXUzGnLISE6UkpgWz5rxmM/vDXp8z5pznKkGxYY4J+/w6Ut1oty2l8zknPM7kctpbUePMNjYh9qzsu2DObuow2zdU2BaAsBjAhhIIBd0WsBE9qv/wt245iun+61OT9YmLZSK+/ouTdYyf/0N9u9BcnFnPX9i+/AcPF3YAAABsIHy2ADY2E7+eipvavm4JimlRsOmZOPZIVYOiPv+UWcXm6KSV08sjfRrJpAuDxlWC2WKYfK2guMhn3wMzc9lcr7T4hamFbGYazxrq2uc2obL5czY2qow1R6B8FYTFADaUispKtwVsUCXlKKZ6VP/hkyUL0024osfLMvN3rvMDAABsTHy2ADYoEwzb21A6rWF7m4hhp2W4ln1Mhc+v/ZW1Tt3i0t2mTvHFRExnEyPuyDzNMyg2gbIJo3vTCWdxPCdoNuP2ZuoY74xUqzYQctqzMYHvWDarodIge548X/ji54u3BwDr3s9/+pzOnTzt9oDVUdPW4bYAAMBijXRdclvA6ti5b49ufdtdbg/ARmJmEr8VG9U/dF50ElhnZnFpkGt3c7K0I1KtT2zZ68zULe41i+GZ2b3f7D6nN2ODTns5wlVTAsPc/i9t2ePMai69fVPW4h/s23/Dvv3A9Ns3wbZ5LPbg+7d06GBVTaE/T8wsBrChNLe2ui0AAAAAWDw+WwAblwlPY9nMZAI7PUx1u03BsHzeQmmHIlMeYiyb1vnEmFMeYjmCYsPr8aozFVNvOunMZC7ejqmxbALdllDEuS8zbt8Jiu1R+2IwnTIXhf48ERYD2FDatm11vnECAAAAwGKZzxTmswWAjSuezTqXTo46S5jqk1eNwbCzr5gzmKPMrN7O5LjGc5kFzdhdKBPapnO5iVC6lCmR0RAIy+81s4qn3Xd7X949fMwJxO3OAu4nYTGADSUQCGjHvt1uDwAAAAAWznymMJ8tAGxc6eLib578jDDVxK9er1TpC8gyuwvDhVjWPrYnNa6sEyIvL3N75rac23WZ2zT9iM+voMe+k6U7DfNY7DGTf49mM045i4UgLAaw4ew9dMBtAQAAAMDC8ZkC2PhmzMgtlc8r4PEp5PWZTmHM5oTD9r4xM6vYGVleZuZy3L4ts5Dd9NsLeL3ONhsnUPbknYX5FoqwGMCGU1NXp32HD7k9AAAAAJg/81nCfKYAsLGZUg5XYwLX2as35J3wdqWYGdCz3VMT6s4VWJvjC6UzCIsBwHHktltU19Dg9gAAAADg2sxnCPNZAsDGZxaNuxoTs86eJ3ucusUrxZSamO2eOvev0JxhMia++mOcDWExgA3rtrffpWAo5PYAAAAAYG7ms4P5DAFgc/C7tX2dOHV6Kmzvy+RzSlk50ymM2Zyj7H3V/qDTX255+35V+gPyesxCdlNl89acZSacJfnsfWYBvIUiLAawYZlfHXvbO+8nMAYAAABwVeYzg/nsQPkJYJPI5xU09YidKbj5GeUmTNesfxfLZeS1O8VI1jnMPr4lGHFmJs8e1ZaPKSXRGorOev8SOTfMnravGHyb61T4fAueBU1YDGBDa2xp1v2PPEhJCgAAAACzMp8VzGcG89kBwOZg4tSIzw2L5ZU1S+qbk6WBdNJJXYuL4ZnDc3lLbeGoKnwBZ+bvcjFVkUP2fdweqZpSX9m0vPZ9GsyklLHveKE2cQl7XyHG9jj3caEIiwFseGZ2wLve/wssegcAAABgCvMZwXxWYEYxsPlUBYKFRNZTCIGncLPZnnRCOcuy908ekbN3VvlD2hmttq9uHziZ45aPfU6ziF57qEJNwYhTbqJ4D0xwbXrdqbgTaM+87/aV3anIdfZjXGigTVgMYNMwC1W8+4Pv1c59e6Z8owcAAACweZjPAuYzgflswGJ2wCbkBq9NobB83mIpiWkZgd01y8r1pRMayqScdlGhndeBylpFfX4nui07+yZMmYzrqupLbrnA3H4yl9GV1LgT7M516yYvbgyH7cvpZ7g6zxe++PlleEQAsLZlMhl1Xbys3u5uDQ8MKR6LKZNKL883eWw6NW0dbqs8/H6/du/cqdaWFlVVVi74xR7A8jEzNcbs15Dunh6dOXdO2WzW3QNgqUa6LrktYPFMMBwIBVVhv4eqbahTc2ur2rZtVSCw8F/NBrCxmJm7X75wRj2ppDx5+32d+V9JNGtaGfuYd9S36+31bU67uNccaeoFP9Z/ScfGhgvjZfyYZt5jmpnL72nepqgvMOV2zcJ8x2JD+mb3uZmfDUtmEdfY3+f+8c59CpnazAtAWAwAQJn98NEn3NbSHdq/XzcdOcIHGmAdMD+IfOXoUR07ccIdAbAU7374frcFAEB5mTDWBK1P9XXrp4N9ThjrlGuYFr6aWsG1gaB+vf2AU+N4eoh6JRXXt3suaCSbLgzMco55c69rrm1u65Gm7dodrS7sK2Huw19dOaXziTH5py9eZx6X/cccc0NNnd7TtrUwvgCUoQAAYI2687bbdPuttxIUA+uE+bdq/s2af7sAAABYu4ozcvdX1cipAWyC2hlRsOSzj+tNJ/RmbNC5TukRpt0eqnRmHWeLs44XGxQb9nW99tXT9rnuqG3RnmlBsbk9s7Dd2fiozo2PKjA9KHYVfmM6r8M1tYWBBSIsBgBgDbrh8GEd2LfP7QFYT8y/XfNvGAAAAGtYPq+WcETt4ahM0luoZDw1MDa9kMenl0f7NJhOTglSC0fndX1Vvd7XvENBr7cQOjtZ7dTzXJN9vDPb2f7zzoZ23V7TPO2eFG4vns3o+ZEeJzSecQvmNs1B9r6mcFgdEftxLfR+2AiLAQBYY6qqqnTzkSNuD8B6ZP4Nm3/LAAAAWJuKMerh6lqZReNMADtbuGrGhzJpvTzar7RlzQhpc/Z1jlQ36H0tO9QRqXRmB1vuPpPdzqW4r1j+oiUU1SNN23RXbcvMINiWs7fXxgZ0JRl3yk8UZkNPY4+Z0suHquzHZI5xhxeCsBgAgDVm3+7dbgvAesa/ZQAAgLXLKUWRz2t7tFKNoVAhPZ4lMDZ1i403xwZ1anzECXmLYXCROWZXpFrvadque+rb1BgMOwvoZSzLuTTBbjHcNZfmeLNgnilfURMI6o7aZr23ebsOVtbNCHiL/cuJMb06OuBc12xTFrdzzm3mJXtUHwxqT0Vh0sKUY+aJsBgAgDWmfcsWtwVgPePfMgAAwBrn8aguGNS+yhqZEsCFuNWYjGyLofJ4LqunBrvUk04oYI9ND4wNE/zeWduiT2zZq/c073DC39pASH5vIYI1QbHP61GVP6B9FTV6pHGbfsk+9t76LU7APD3aLUTAUiyX0RODVzScSTnjpSHwZMs+2j73vqpq1YVCE+H0QhEWAwCwxtRUz1zxFsD6w79lAACAtc/n8WpvZbWagmGnb0JgT35abOspxMhDmaS+3n1GfemEfHZ/tjjW1DGu8Pl1U02jPtq2S5/pOKjfsLdfa9+nX7G339h6SL/ZcUgfb9uj2+qaVeMPutecyQS3aSunb/Wcd8pPOFF2SVBcYN8LM2z/aQqGtM9+LGbxu8XMKjYIiwEAWGN8Pp/bArCe8W8ZAABgfWgOhXWoukZ+r6ldbA94CsvdTWEPmFrBw5m0/rbrjM4mRpxyENMV5yabEhRZe78Jbmv9IbVHKrXN3uoCIWcxPLPPHGPOMFusa8a7kuPObZ1PjBXqFDujkzzO7dvXti/8Po8OVNU4i/YtBWExAAAAAAAAgE3LLGJ3uLrOCXML4atn1jIOZsSvQmD8aN9FvTjSq0Qu51x/+tEmADabGTeRsFkIz2ymbcaK+0uZcXMuEyK/Njqg7/Zd0GWzoJ19m9PrFE/cormf9viWcFTX19Q7M6WXgrAYAAAAAAAAwOaVz6vSH9C7WtpUHQg4KW6xVnFh9u4kU6HCBKqjmYx+OtSt7/Sd16VETH77+GJoPPUaV1c83mvfqKmF3JtK6NH+i3p8sFP96VQhvC3enxLmbhWuW7jeA032fff5CzuWgLAYAAAAAAAAwOZlgth8XvWBkD60ZZt8JvQ12awZLhwxlRvcmtm+p+Mj+rPOE/p691mnrrC5btDUDDZXNsfYZ5htM+c1R5gyFabExEAmqe/0XtCfXn5Lr48OKGtZ9n77KPe2Snny9j4zbu6n/ec9bVvVWiw/McvxC0FYDAAAAAAAAGBzM8FrPq+WUETvbG5T2JRzcAJZe589Pn2GsQlrzYgp+2AC3zdig/rqlZP6q85TenqoSxcTYxrKpJW0LGWsvFOj2JShyNrtlD02mk2rMxnXC8O9+puuU/qzzrf00ki/cx8CXp9z7hnBr7kPZjP3zRbyenVfU6uzqF1hfGlBseH5whc/79w2AAAojx8++oTbWpxf/+VfdlsA1rsvf/WrbgvAQr374fvdFgAAKytp5fTy0ICeH+pXMpezR0xIOxkQz8bEtM6s4bwpDOFxFrGr8gdV4fMp5PU7ZSrMn2zeUso+/3guq1gu45w/Z1/PZ++brfZxkQmrnX1Ofm3O79FNtY26o75RUVN+okyYWQwAAAAAAAAArrDXp5tq63VnXZO8zsziQtDrLHpntlmYUXOMmWlcXKRuMJ3UxURMp+Ijeis2rOOxIZ202xcSY+pLJ5yg2ATQpgzF1YLo4m2a85uD7EN1S22Dbq9rKGtQbBAWAwAAAAAAAECJiM+v2+oa9L62DvmdxHjS9JIUszHhr9m8bng82S+OFQLiq3H2lt6WPeC178u7m9t1d0OLKvwBd0f5EBYDAAAAAAAAwDRmsbpDVbX6pa071RIOy+c1ga+Z3OvO9L3KTOMlcc9buJ1CWQuPfdvNobA+Yd8XM+s5cI2gebEIiwEAAAAAAABgGmfmbz6v9khUH2zfpiM19aoys3k9JlIthrmmaRUui/1FKQTEM2Yt27dVFfDrptoGfbh9u7ZFK53jnNR6GRAWAwAAAAAAAMBs3FC2LhDS/U2teqilXQera5y6xs4+ezN/HCbnNUGuCX0LI9fmhMPmOoWufcKJi6jXr+uqa53bvL+xRbXFshPLFBQbhMUAAAAAAAAAMBc3nA15fdpTWa0Hm9r0ofbtuq66TkGvx6x/Zyukvc5s5GLiakLjYng87bK4ObWMSwJie1Qhn1fX2+c2s5kfbG5zbjNYDKeXGWExAAAAAAAAAMxT1OfXjmil3t/WoU/v2Kt7GlpUEwg6+0wGLMtjX9oNJzgu1Bs2MaxZ1G6ib/bZmzncHGvmIpvZy3c3NOlXt+/Re+1zb7dvw5nBvIIIiwEAAAAAAABgnoq1jA0T8L69oVm/uXOffm3HHj3c2q5b6xu0s6JSTaGQ6vxB1fgDqgr4VOn3Oe1ae6wxGNLWSFQ31NTpHc1t+uS2nfqNnXt1X2OLGu1zOmGzvTm3tYI8X/ji5wuPDAAAlMUPH33CbS3Or//yL7stAOvdl7/6VbcFYKHe/fD9bgsAgDXMDY2dmcIlsnlL8WxWKcty2hn70hwZ8Hrk93gVsLdKf0BB77S5vHOcb6UwsxgAAAAAAAAAFsOEurMEuyYQNqUpmoMhbQlHtS1Soe321h6uUEswrHp7fEZQbMxxvpVCWAwAAAAAAAAAy8ENfp2F7Ioh8CqGwddCWAwAAAAAAAAAICwGAGCtcRYyALDu8W8ZAAAA6w1hMQAAa8x4IuG2AKxn/FsGAADAekNYDADAGtPb1+e2AKxn/FsGAADAekNYDADAGnP2/Hm3BWA9498yAAAA1hvCYgAA1phLly/rcmen2wOwHpl/w+bfMgAAALCeEBYDALAGPffCCxodG3N7ANYT82/X/BsGAAAA1hvCYgAA1qD4+Lgee/xxdff2uiMA1gPzb9b82zX/hgEAAID1xvOFL34+77YBYNPIZDLqunhZvd3dGh4YUjwWUyaVVt7+AyxVTVuH2yqPfXv2aO/u3WpqbHRHAKw1ff39OnXmjE6ePu2OAFiqka5LbgtYPI/9JxAKqqKyUrUNdWpubVXbtq0KBALuEQCAUoTFADaVkaEhnTr2ls6fPEMwjGVT7rC4KBi0P+hEo/J6+cUgYK2wLMuZRZxOp90RAOVCWIzlYgLkHft2a++hA6qpq3NHAQAGYTGATePoiy/p5BvH3B6wfJYrLAYAYDMhLMZK2Hf4kI7cdovbAwAwNQnAhmdmE//oW98jKAYAAAAwhfmMYD4rmM8MAADCYgAbXH9Pr574/mMaGhhwRwAAAABgkvmsYD4zmM8OALDZERYD2LDM7ICf/vgJpVMpdwQAAAAAZjKfGcxnB2YYA9jsCIsBbFgvPv0cQTEAAACAeTGfHcxnCADYzAiLAWxIZjE7Sk8AAAAAWAjzGcJ8lgCAzYqwGMCGY351jMXsAAAAACyG+SxBOQoAm5XnC1/8fN5tA8CG8POfPqdzJ0+7PWDl1bR1uC0AALBYI12X3Baw8nbu26Nb33aX2wOABcpbUi5nb3lZIyPKd3bJ6u1XfmhY1uiYlEhIWXu/EfBLkYi8VVXy1NfI29wkz5Y2eWuqJZ/H3nySZ+Xm+xIWA9hQMpmM/uEv/kZ5+w+wWgiLAQBYOsJirCaP/ecDv/JxBQIBdwQAriGfl7JZ5ePjyvf1K3fuoqwLl5Q34fAieGqq5dvRIe/2DnmaGuWpiEp+v73D4x6xPHzvfd8jn3XbALDudZ6/qMsXLro9YHWEq2rcFgAAWKxUbNRtAaujprZWNfV1bg8AriKbkdXTq9yJ08o+/5Jyr76hfHev/WKWdg9YhFTKPmefcqfPyersLpzL65EnErYvfe5B5UfNYgAbSm+3/Q0UAAAAAJaIzxYArimfV763T7nnX1bmR08p++wLynf3FEpQlIt9LnNOc+7Mj+3b+NlLzm06M5mXAWExgA1leICFKAAAAAAsHZ8tAFxVKq3s0TeU/vFTyrz4ilN6Qpbl7lwG9rnzvf3K2rdlQuOcfdtm9nG5ERYD2FDisZjbAgAAAIDF47MFgLnkh0eUefKnyj37ovJXuss7k/haLEuWfZtZ+7YzTz4ra2jY3VEehMUANpTMUuoBAQAAAICLzxYAZnDLTmQe+4lyb76lfCLh7lh55rbNfcj+6AlnxnG5EBYD2FDsb9tuCwAAAAAWj88WAKbIW86idelHH5d1sXN5S07Ml5llbN+X9A9+LKurx7mPS0VYDAAAAAAAAABzMTOKu/uU/uHjhdrEa4yZWZwx962nzx1ZPMJiAAAAAAAAAJiDCWPTjz2hfP+gO7L2mPuW+dGTSy5JQVgMAAAAAAAAALOwhoacxezW4ozi6ayevsJ9HR5xRxaOsBgAAAAAAAAApksmlXvhFVmdXe7AMohE5G1vl2/3bvl27pS3uVny+92dC2ddvqLsiy8rn0q5IwtDWAwAAAAAAAAApfJ55Y6flHXm/LIsZudpbFTggQcU/shHFHr4YQXf+U4F3/UuBd/7XoU/+lH5b7lFCofdoxfALHp3+pyst065AwtDWAwAwIb1aX3u61/W1+zty3/wsDsGAAAAALgWU/s399Yp5RMJd6RMvF75b75Z4Y99TIEjR+RtaZGntlaeqip5qqvlrauTd8sWBe65R+EPf9iZdbxQ+fGEE3Qvpn4xYTEAAGvOw/r9rxRC3q/98afdsaLyB8C/9cfubX3l9/Q+dwwAAAAANq1sRrmTp2V197oDZeLzKXDnnQrcfbc80agTHM/K45HH75e3rU3BBx90ylOYsYUw9906fdZ+LFl3ZH4IiwEAAAAAAADAyOedheKscxfLW37C65XvwAH5Dx+WJxRyB6/N29CgwG23ydvU5I7MUy6n3NnzsszsYvsxzRdhMQAAAAAAAAAY2axyl67IGhh0BxbI6y2Uk+joKCxaZ2+mlIR361b5Dxxwyk0slLMA3t69UjDojsyP1TfgLHi3kNnFhMUAAKxz7/uD/1YoI/H1/6jf+u3/WL6SEsVzTWz/Tb9fctLJ273Wfvt+lZTPMNvnfts9yDZRBqNko8YyAAAAgNVgxeLKL3ZRu/8/e38CJ1d53/n+31Nb75ta3erWLrQLLUggwGAWYyDYBuLYwXFs44CTScYeZ65v/nfG9yZzk3FeuZnx5E7GjLlmSCY2MWPHDt7xQlhkwMaYfZEQSEi09pZ6Ue9dXfv/POc81V29SGp1V6u7qz5vclTPWau64zp1zref+j1lZQpu2qTwddd55SMiZuA6M5n2u9/tlZWYEtMree1aBc43aDaD3R1sUWZg0C44N8JiAAAKxmLdcMNi254eL+g947H8msqf3Fxu57PKtfnu0UGwr1ZXPHitcodlWHKDCZCNW9RY6zVGqdj8UQJjAAAAABdWJq2M6Y3bfv4Dw5mg2JSLMKFwyAS7dXVySku9yZSSMEHx+ZSfGMs73sKF51+7uK3D/3kmWYqCsBgAgAIysOdbuuNDd+mOO7+oh+2y83bb5/XhbBB8/Gn/eGbaddhf9tlrtbnCbx7fZdd96FvaM+AvW3LF2F7N7rFa/Nf19T3Zv2gv1novVH5EX7gzewx/2nXc20AVq7Yx4B4AAACACyeVUvqQe9/jPp6XQEChiy9WaOtWORXuzdJ5BrqT4j5H+JprFLntNgW3bJEmGzwnk0ofPub+TJMrRUFYDABAwRhUywuP2PY0rKiRnwUPas+jX/Vannu/qC88LN023BX4hPbda5t6RC+32CC4okZL/ZZ1Qs/9uf+6Hn7hsGymPGxsOYsbcrsgAwAAAMCFksr4wer5Ki/3ehVPp+fwZARqahRas0aRG25Q6R13KLBihV1zdulDR7yfbTIIiwEAmHMeUVu3bdY2jO5de1uDslFtd9vYYLhbbVPuTjxiJAye2NK6seUnpuGzfz1SzsL2Ys72LAYAAACACynT06tMb5+dm7zQunVyyvN4n3Q2jiMnFFJg0SKV3Hyzghs3er2Oz8b7ufp67dzZERYDADAHHevK9tLdqPfmDgZ380bb6ze3V29+jfT+Ldfmmz/ltTyf/bw3gN19+07YBdlSEsYt2rHKXhwN9Giyf4sfDqZNUPzHphfzxDWMAQAAAGCmpY5n73UmIRDwSk4EFi5UcNUqu/DCcqqrFb7iCgWWLz9n6Yv08ZO2dXaExQAAzEEP//mLynawXXLD+BINA3ue1n1+M/8e/qKeG37ya0dKRNxgv+J079Mj9YmHX9tHR+oYPzeFesnDzzNyHAAAAAC4kDJtkxzYrqxMwbVrFb7+epV86EOTLgcxE8zgeaHNm/1ayWeRPtVuW2dHWAwAwJz0VX3uDCUZzKByd9kawDPlvj/OHYwuK1vmwh+UbvxrO6Fd7mv+3Hn0eH74zz8z6jhmgD7KUAAAAACYDenTXbZ1ZiaUDW/frsj11yu0fr2cqio5MzGg3XkIrlypQEPDWXsXZ7qytQ7Pzrnv/nsmV90YAOaBh772oG0Bs6emeZltAQCAqeppPWpbwOy54+47bQtAMYj9/T8q09tv5yYQDiu0datX+sEpK7ML54bEiy8q8ctfSqmUXTJaoKZakT849zmNnsUAAAAAAAAAil5mMGpbEwvU1Ci0bduMBcWZaFSZM4S952IGvDvbQHfpc/xsWYTFAAAAAAAAAJA8S1AbCCiwdKkCtTMzInfqyBHFvvc9JV966Yy9g8/GC7DPVg5jksckLAYAAAAAAACAszFhsem9ex71idPt7Rq8/34N/v3f+9Pf/Z1ijz6qzIAdMdzIZJRua1PihRe8QNeUk0i+9Za7c9puMEmJhG1MD2ExAMwx6UBQ0dJyna6r19ElK7R/zUa9vmm7Xt1ymV7bfKn2bNyqA6vW6UTTUvVU1yoWKVFmlovpAwAAAAAw74WCtjEBc98dDtuZyUmbUDgWU+TKK70puGyZHxQnk/4GJiju6vICYqeyUpHbb1f40ksV/8UvlNy//7xKUqRPnz57wHy2ny0HYTEAzBGpYNALgF/eeple3rZTr128Q2+vXq9ji5epY2GDTtctUOeCerU1NOnIspV6a90mvbLlMr10yeV6dfMOddYtVEaExgAAAAAATElpqW1MIJ32agqfN/deP7RlizcFlyyR485nZfr7/bITyaQXEpsSFyH3Mbx5szdYXergwcmVj3C3MWUszhYWB8rLbevsCIsBYJaZnsFHFy/Xry97txcA91bXKFZSokzg3MFvOhjQUGmZuurq9dqWHXpxx5VqW9ikZDBktwAAAAAAAJMRqK6yrQmYXsCtrWfvvXs+3OPFf/1rJfft83ssu/PDTCaQTCr57LNKHT1qF55Z+tSpc7+2qgrbODvCYgCYRR0LGvTK1p16e80GLyCerr7KKr2xYYte27xDA+WVdikAAAAAADgXp+4sg9eZnsUnT3p1iPPFiUQUXLlSmc5OL/D1JBJKvPSSAgsWKLBsmb/sLExZi8TrryvT22uXTMxZUGdbZ0dYDACzIBkK6Z2Va/T6xds1OMmvgkyW6ZHcU1Orl7ZdrlMNzUoHONUDAAAAAHAuTuNC25pYuqdHiddem1o5irEcR+ErrlB4506vXvFwr2DTwziZVHDtWoXf9S4Fli71l08gMzSk5KuvKnXgwDnLVQQazv6zZZEgAMAFZgawe2PDNh1eusr9cLALZ0AyHNKb6y/WoWUX2SUAAAAAAOBMgksX29YZmNrAb72lxHPPKTM4aBdOnVNa6k2aoJOX6XXslJXJCU1cZtLUO44//bQ3OJ4ZRO9cgkuabevsCIsB4AJKhCN6/eJLvIHqJlOTeLpMr+JDKy7SwVVrvZAaAAAAmMucjBROpVWWSKkinlRlPOE+JlQeT6kkmVYgp6QnAOSbU1Mjna1usZFIeIPSxb7/fSXfeMMrA5GJxSaczLbjZDLKuMuHtzPb5NYrzkomRx0rO6U7O5V49llFv/ENpXbv9rY7l0Cd+3NVnePnspz77r+HUy2AgvHQ1x60rbnpjQ1b1dbQpMzM58SjOOmM1h94U4tPHrNLMJNqms9dVwoAAJxdT+u5B/RB4Qil06oZSqg6FvdC4tJkSqFUWo5MZOEoFXAUCwY1GAmpLxJWd1lEQ6GZ7wxxx9132haAopBMKLHrF0rtftMumIRQSE5FheSeo8aJx72B6sr/zb/xZpOvv+4Fvd622e1N+Qh3MiUnQlu3ej2Wo1/9qn/c3LGNTMg8NCRNoQRGcNtmha+/2jvmuRAWAygoczUszjiODi+7SO+sXG2XXHiBdEbb9rysuu5OuwQzJd9hccj9QF+9apWaFi1SVWWlHPd/TwDmhox70d7X36+Tp07pYEuLkpPo2QFgcgiLi4PpSdwwMKTFfQOqHkqo3D2PmutWb53372hpd2EsFNRAJKyTlWU6UVWuRHDmvjRNWAwUmUxaqbdblPjpY+esATxppaWjwuL4L34hmdA3l7tN5JprRofFsXOXlpgU934y8oGbFFhtSmGe+16SsBhAQZmrYXFfZZVe3bJTifC5/4o3kyoG+rV990uKxPP0oYMJ5TMs3rR+vbZv26ZwOGyXAJirEomEXnntNe3dt88uATAdhMWFL5JMa11nj5r6ogqnUl44nJ3OxoQYZkoGAl4P4/31NeopjczIt/cIi4Hik+7qVvJnjyvdesoumaZZDoudxU2KvO9GObU1dsnZUbMYAGZYxr3cfWflulkPio3B8kqdbJxcUXvMvit37tTll11GUAzME+a9at6z5r0LADi7ylhCO050aHl3v0pSKZkvY08moDAhscmEzbamdMXCgSHtaO1QfXTI66UMANMVqKzwe+FOMOjcvOP+DEH3Z3Eqyu2CcyMsBoAZ1t6wSKcX1Nu52WV6W7yzYo030B7mtq2bN2vDunV2DsB8Yt675j0MAJhYVSyhi9u6tSDq95rLdgj2st5AQM6iRjlNi8ZPZnlFub+d2dSdzL6liZR2HO9Uw0CUwBjA9IVCCixbLKd+gV0wDeGwnNJSO+MKBv06xBeotKCzcIECSxdPqlZxFmExAMygVCCoY4uXD1/QzgXpYECHl66yc5iLqqqqtGPbNjsHYD4y72HzXgYAjGZKT6zv6FH94NBwD+FcTk21Su/6uMp+/5PjptJPfVKhHZcMh8uGaZvJ9DLedvK0GgmMAUyX4yjQuFDB1SsnHrTuPARqalT6kY/YOfdw69crtGmTFyLPOPe1By9a6f0s5xNOExYDwAyKlpWrv7zSzo1nTtcby0r1l8sX6y+XLdaKkgvT47dzwULF6V08Z61bPXsDIQLIH97LADBaIJPRuo4eNfZH/cDXjOxvHhzHm0yYYXrcOWZA34mm6io55eXD23uTOY7LHC+cSmtNZ6+q4gl/IQBMVSis4NrVCixqsAumJt3RofhjjykTiymTTit14ICSb7whxeN2ixyplDIJ9/yVpwGTzWs3P8P59Co2grfe9r7/aNsAMO/tffV125obTjU2qWNho50brToY1McaFmh1aam+2XFaT/X26183NeqdoZh68zXq6hmk3OdeeLpDpbExRfWRF6VVkxs44Ex27tihsrIyOwdgvjI1jPe9/badA3C+Yv29toVC0dwX1drO3uHewIGmJpXc/gGFdu5QaPtWf7p4o5y6WjmmVqgNkIcns091tYLr145sv22rGWFUmc7TXvgcca+j0wFHXWUlfgA9TRdv59teQLFyyt17snRamda2aQW4md5eZfr7vWMlX3hBmdPu+Wos8zx9fUofParkwYP+Nu45bcrc+8nQjq0KXLRy+Pw5WfQsBoAZ1LFg4qC4xAnojxYtVFMkrH9s69TxeEI97oVtdzKl5Regd3E6GFR3dZ2dw1xT494EAZj/eC8DwAjT63dld5/Xu9gEESa6CDTUK7hmlTutHp4CK5Z7wUbG9DoeMxnOgrpR2wfXrZHT0ODtY45pSlCYnsumLjIATIt7XgluWKeAe56a1mB3pkfxW28pvmuX0m1tduEY7jbp9nav53G6pcWbnzIzqN1a99y6cZ33M5wvwmIAmCHpQFA91bV2brTrqittUHxa0Yz/IVDqBFQfCqo9kZ+vnJxLd20eivVjRgSnWRcLwNzAexkARtQPxlSWSHmBblZmYFDp013KdOVMp0+fexq1vTsNDpqjecc0x6+IJ7VwcEiBaXTKAwBPSUShy3cosLTZLpgi8+1h71w188yAduYbGzID6U2Bc9/993D6BFAwHvrag7Y1+3ora/Tijivs3IiaYFD/ecUS/eh0j37W3eMtC7mXtX/UtFCHY3H9pKvnggyIF4nH9e5fP2nnkE81zctsa2ru+vjHbQvAfPfAN75hWwDOV0/rUdvCfGd6E29o79bKrv5RPdbMNa9TVianssJfcL7cA2TiMWlgUJnUSBBtumKYMhQvLlmoRHB6feTuuPtO2wJQzNKn2pV81PQM7rBL5iancaEiv/Fe73Gq6FkMADNkqHTimrM31VZrMJ3Ra4NRu0RKule6/9/Jdv14ikGxCZt3uhfZ76ut8WohT0Y8ElEyeH6F7gEAAIDzFUmlVZ4YPyaHCXczQ0MKX3/N1KZ3v0uB+gWjgmLDtKtjCZUkZ3YcEADFI9C4UKEbr5ezcO5+Q9dpqFf4Jvc1TiMoNgiLAWCGmDB2LFNqYn1ZqU4nkzp9lnITy9x9/8uKJfqLpYtVa8PfqyordXNttXeM/3tps9aVlnrLP1xf5wXQZrsVJRE1hcPe8murKvXfVy3TBxdMXArDiEem9rUUAAAAYLJMaFvmXvvmBrrDMhmFNm9SaMclo6bwmPkJpy2b5JSUjDuumQ+m06qMX5jybgCKgOMo0NSg8M3vkdMwvTB2JjiL/NcWcB+ni7AYAGZIeoIC+GXBgMrd5QOptGK2VnEuc2F7S22Nbl1Qoy8cbdWxeFxXVlWoKhjUTXXV2lpepg/X12pRJOz1QF4SieiqqkodjsW0o7JcFe7xU+4F992N9Qq5z2OOcXllxXCwPFYmMOElOwAAAJA3oXTa6118Jpn2DvcfKbXvbcW+8W0pab535y7q61fsuz9Upq3d39A9TvKXzyq1+w0vZM64x0z39vrrJlARZ5A7AHnkBBRoblLklvcqsHyJpjXoXb64ryGwYpkiN9+gQNMi7zVOF2ExAMyQwASjl5pyEUFHSmTSE5abWBgK6/qaSn23o1sD7v4Pn+7Wz3v6vYC5wp3i7kXxvmhMXe4FdHsioRLH0UAqpf3usng6ozWlJfo/lixScySsZ3r71euu+0prm/YPDdlnGG2i1wgAAADkU9C95Ay616pjZZekWk+5/2aUiUaVeqfFC4WNTF+f0seOS/G4Ny+z/vhxO6CdK53y6hVPxHSJOFtADQBTZco8hG+8XsGLN0hlE3fMuhCc8jIFN29Q6Mbrpl16IhdhMQDMEDOA3FhDmbSG3Avl2lBIZRP8xa8yGFBJIKC2ZMIrV/G/LV7kLVtdWqKQ4+jBtk5tqShTVzKlPvfid4O7jVle7m7Tk0rpL4606tm+AUVTGcXd57qpplo319XYo4830WsEAAAAZsLY77Rl59MnT7kzjpyaGjklpV6vYc+YHTJDMWXMANG27Jrca95MdOJOEQAwk5y6WoWvu0qhd12uwOImr4fvBRMMKrCkWaGrLlf42qsVqD3zPf9UEBYDwAwpHRoZwC6rL5XSkVjc6/m7tGSkprG5DjY9h3+3oc7rYfGe6ip9aEGtIu5F8ycb6vWbC2q8/brc/auDAW8Qu/99caMWhkMqdfe7q7FeP+vq8ULmg+5FdL27/LKKCr3f3e/EGQJhExQHU9RxAwAAwMxKB9zJveCd6Jt1RrqtzXsMmE4OZSXK9PZ582Nl3OvXTP+AnOx1tHvta0pWnEnSvW4GgBlTUqLQJZsVfu+1Cu7c7vfuncnQ2D22V5v48h0K3+A+57bN7msYP1bSdHHmBIAZUjnYr0Bq/AjM3+vs0sFoTP+6qUEfWlCnW92L4t+pX6Bb3MevtLbrv584pYDj6B/bOvVId68ecrf/u5Md+nbHaW//hzq79cvefv2v9tPusi7veN9q71Jrwq/J9qu+fm+Z6W38D+5+F5leyeP6cUhVfT22BQAAAMyclBNQwg7aPJa5Ss3YusNOWZnXYy515NhI7+JcpgaxKVFheh+70j29ykxQVs3saaZoaOLnBIC8Md+KaGxQ+MpLvdDY9PYNNC/yzmV5Ewp5vZdD777CD6Yv35HXshNjERYDwAwJpFOq6R0fyHanUrqntU3/1HFaq0oiKnEvnh/u6tF3O7u8dYdicT3hXvieSCS8RzPI3cFYbDgMNj2FH3eXn3TnzSB5v+zr93oUZ5kL45cHBvVUb59eGRzUA22dmqhCcl1Pl20BAAAAMycWDGgoPHFw4gW72VISNlxJHTrsPY6VMd+KKymRY2uEZjrMwHjjr3MNs7S3xJarAICZFgp7g9+FdmxV6P03KfKBmxTcdrGcmmq7wfkz5SVM7+HI+29U+H03KnTJFn8Qu1DIbjEzCIsBYAY1dPpfqRvLhLcv9g/ov7ae0ndPd2nADM4xQwbTaff5RgumUqrt7bZzAAAAwMyJhwJeL9+JYl3v+2/m23gm9A0GvZrF6cNH5DjjvxlnehU7lZV+WOyuT7d12BWjmecZjIQVm+FABQBGMeetcNgLeQNrVil8/dUqufN3VPJ7v6PwjdcpuGWTAksX+wGye47ySlbYfcyywJLF7jYbvd7DEXe/yCc+4h7jKvdYF8kxdYlNvfaJzo15RlgMADOotqdL4cTcqwts6imXRSceORoAAADIp2QgoO7SiFdDeMJ+wOm0X6fYMYPcVSvT45elGMVu41RU+OUqzKL2jjMGJx0VJe7zznyoAgATMgPah8JeTWFn4UKvh3D45vco8ju/pZI/uFOlf/yHKv3fP63SP/mMSv/tH3rLIh/9LXebGxQ0PYhNmQlTj9gc4wIExLkIiwFgBpVHB1UxMPEAHbOp/nSnwomJB74DAAAA8q2jvFSD4ZAXFo8LjFNppW1JiWBzkzeQ3Tjm23Ktp+SY3ngmPHFlenrGjcxhjh0LBdXuPl+asBgAzhthMQDMIFO3eOmJI3Im7EIxOwLuxfiKYy12DgAAAJh50XBIrZV+j+BxTK9hO5hzYHGzFxqby2fHCY7qUZfp6vJrddoQODMw4D1mZYNoE0z3lJaMD6UBAOdEWAwAM6yho031p9vt3OwyofVFhw7QqxgAAAAXVMaRjtRUeIPOZUPdrIzpNdzR6QXDpmZnyW/d7i13Fi5Q5H03yVmwwKtnHLn+GoUv2z48EJ7iI4M8G+aY0XBQx6vLvTrJAIDzx9kTAGaY4162+gHt6IvZ2VAx0K+mtlY7BwAAAFw4iVBQLy1p8GoYjwqMTU/i/n6/HQkrtPNSvx0KKbhmtVRe5gXJztIlcpoW+euiUWXMwHhW9lhHayrVWVE6cmwAwHkJ3nrb+/6jbQPAvLf31ddta24xQXHGvcDtqltgl1x4gXRam97arcpBeyGOGVNaVWNbU3PJ1q22BWC+e3X3btsCcL5i/RMMcoZ5zwxy1x8Ja+HgkIKZzHDN4Uwspkxnl1L73lZq/wH/cWx7eH6/Es+9qMzpLn9fd0oHpBNVFdrXUOv1Ys6Xi7dvsy0AKA70LAaAC8D0Ll559B01nWqdlfrFgXRG6w+8qboevxYcAAAAMFvaK0u1t7HOC43Tdlmmq1uJZ5+b5PS8UgcO+vu5UywY1OGaSu1ZVKd0HoNiAChGhMUAcAGtfWefFnR12rkLZ/mxFi1qO2nnMNdlMnxxEigEvJcBYGJpx9HJqnK92VirdlsyInvGNFnvuSbDbG+C5r6SsA4srNaB+hql7MB3AICpIywGgAvIDCy3Ze+rqu9sl5Oe+RAhkEp79ZLNFEiP1HTD3DYYjdoWgPmM9zIAnJnpAdxRUao3Guv0xqI6L/TNBsBmyg2Qs+3sevMYDwbUsqBKuxct0LGaCiXceQDA9HE2BYALzIS2F7+1WyuPtsxoSQpTJ3nT/j1afuyQXYL5oq293bYAzGe8lwHg7Myl8GAkpCM1lXp+aYNeWbxQJ6vLFA8Fh9fnBsem53B3WUR7G2r1zIom7V9Y482nHHoUA0C+OPfdf88MRhUAcGE99LUHbWt+OF1Xr7cv2qDB8oq8DcRh6hNX93Zr4/43VDY0aJfiQqppXmZbU7Ns6VK997rr7ByA+eqJp57S0WPH7ByA89XTetS2gNlzx9132hYAFAd6FgPALDL1iy/Z/aLWHnxLpUMxu3Tqqnt7dPGbr2nrG68QFM9jJlw6dvy4nQMwH5n3MEExAAAA5hvCYgCYZSXxmJaeOKIrX/ylNuzfq5qebpXEYl4P4XMJplIqjUZVf7pDl+x+SZe9+pwaOtsUSiXtFpivnn3+efX29dk5APOJee+a9zAAAAAw31CGAkBBmW9lKCaSDgQUi5QoVlKm/ooKDZZVuO1Sd7mp3ZZRMJVU6dCQKgYHVBEdUMlQVJF4XI5XyQ1zwXTLUGRVVVbq6ne9S02NjXYJgLnuZFubnnn2WfX199slAKaKMhSYCyhDAaDYEBYDKCiFEBZj/stXWJy1bs0arV29Wg0LF9olAOaa9o4OvX3woPYfOGCXAJguwmLMBYTFAIoNYTGAgkJYjLkg32FxViQSUUV5uQIBqkgBc0U6ndbA4KDi8bhdAiBfCIsxFxAWAyg2hMUACgphMeaCmQqLAQAoJoTFmAsIiwEUG7omAQAAAAAAAAAIiwEAAAAAAAAAhMUAAAAAAAAAABdhMQAAAAAAAACAsBgAAAAAAAAAQFgMAAAAAAAAAHARFgMAAAAAAAAACIsBAAAAAAAAAITFAAAAAAAAAAAXYTEAAAAAAAAAgLAYAAAAAAAAAEBYDAAAAAAAAABwERYDAAAAAAAAAAiLAQAAAAAAAACExQAAAAAAAAAAF2ExAAAAAAAAAICwGAAAAAAAAABAWAwAAAAAAAAAcBEWAwAAAAAAAAAIiwEAAAAAAAAAhMUACozj/gfMf7foLx58QA99z52+/Cm7LOtT+pJZ7k4P/OUtdhkAAADyjXsLAMWIsBhAQQmXRGwLAAAAAKaOewsAxYiwGEBBqaistC0AAAAAmDruLQAUI+e+++/J2DYAzHsvPvOsWvYfsHPA7KhpXmZbU2XKUHxUmyvc5vGndccff9Vf7DFlKK7VErc1sOdbuuvPH3FbOdtnDbypr9/5RT3szYzs4xvUnq99Rl/wV+rTX35AN3gHfFO7Wlbohs3l/vM+2qAH7t4o72Xsukv71tvtjNzX9dm/1kM3LPbbWWd4fvOav6vb9UnzHIY9zvBryFmWa9R618jPDgAoVD2tR20LmB2r1q3RZVe/y84BQHGgZzGAgtLY1GRbQLGYICjOddvn9cCooNgo1+a7v6K/uM3OZlVs9IPiCdRe8ZVRYa2WXKsvfdZv3tZY6zdyucf65IOf19in0KqcoNhwj/PAg2c+drZ+86j1rorNH6VmMwAAmFHcWwAoRoTFAApK8/KlDESBIrNYdTYoNr1t7/jQXf5ke/V++ma/Z7DX09eu23XcLCjXqp3jw1bTg9jbf0zP3god9vf/2psasMuWrPcH33v4zz8z8rxm2nXCW66KFdoxJi2e6DgVFd3aNWZZbaN9bZ+91gbhpjf06ONXrNo2PowGAADIA3NPYe4tAKDYEBYDKCjhcFgr1622c0Ax+Kr2eeGvvN62D33vAT003KP3Fg13+jU9fc06d8r20q2oG1M6Qie0717bHOP4c7akxMOvqSWb6GZ5vZf9Y3vT2JIUOQZaXrPHaVe3t8SE3E/rPtPIWZY10mvZ9IYec/yKGnELBwAAZoK5pzD3FgBQbAiLARSctZs22BYwXz2itmxqWtswuvfsbQ3KxqfdbX7N3vv++C59fc+g1/Z4wbApMzHS63hCY4890KNjtjl5n9KXbF1jEzZ7PYSzPYvzYGndxGUxfLVqpGsxAACYAdxTAChWhMUACk5NXZ3Wbd5k54D56ViXDX8rNuq9w/V7c8pKjOkFPFwKYriUQ7nqVpxQV7YXcE4ZiuFpeAC6aRgOr01Q/KdeD+EJaxhP0fDvIbcMxfA0MkgfAABAvph7CXNPAQDFiLAYQEHatvNS1dXX2zlg/nn4z1+UrS6hJTeMlHjIlpAYLt1gevZmyz+YKaeX7757H9EXnsvWDx4pQ+FPf61P+2vyZLFusMceNYDdNI38HnLKUNhpZBA8AACA/DD3EOZeAgCKFWExgIK185p3KVJSYueA+ear+tyHsoPRjWYGobvrz/0SFBMb6eWre/901MBxeffwF3VXbtkJ04M5j2Uo/N/Dt7Rnxn4AAAAAn7l3MPcQAFDMnPvuvydj2wBQcDpOtemZJ55UPBazS4CZV9O8zLYAAMBU9bQetS1g5pmg+Or3Xq+FixrtEgAoTvQsBlDQzMXe9e+7iZIUAAAAACZk7hXMPQNBMQAQFgMoAmZwihtvfz+D3gEAAAAYxdwjmHsFBrQDAB9hMYCiYQaquPmDt2rVujVy3P8AAAAAFB9zL2DuCcy9AYPZAcBo1CwGUJQSiYRajxxT28mT6u7s0kB/vxKxuDLuf8B0UbMYAIDpo2Yx8sEEw+GSiCoqK1VbX6fGpiY1L1+qcDhstwAA5CIsBgAgzx595EnbAgAAU3XzLdfbFgAAuFAoQwEAAAAAAAAAICwGAAAAAAAAABAWAwAAAAAAAABchMUAAAAAAAAAAMJiAAAAAAAAAABhMQAAAAAAAADARVgMAAAAAAAAACAsBgAAAAAAAAAQFgMAAAAAAAAAXM5999+TsW0AAJAHjz7ypG3lRygU0upVq9S0aJGqKivlOI5dA2C2ZTIZ9fX36+SpUzrY0qJkMmnXAJium2+53rYAAMCFQlgMAECe5TMs3rR+vbZv26ZwOGyXAJirEomEXnntNe3dt88umT8uzqR1SzqlJvfOoDOT0WPptF4qKbVrgdlBWAwAwIVHGQoAAOaoK3fu1OWXXUZQDMwT5r1q3rPmvTufXJ5J6TOplHampdUZ6ZJ0Rp/o7dOlsSG7BQAAAIoFYTEAAHPQ1s2btWHdOjsHYD4x713zHp4PLnPS+lQyreaMFLHLAum06lMpfWBgwC4BAABAsSAsBgBgjqmqqtKObdvsHID5yLyHzXt5LuvbuFFvffh3VB7JxsR+DeZENOq1VyQS3iMAAACKB2ExAABzzLrVq20LwHw2l9/LmQ0rdOzWD+qlLdv1H377IxqIRLygOD44qJQNibuCQe8RAAAAxYOwGACAOWbJ4sW2BWA+m6vv5ctWndYXrnpKy6u6FY2U6LHNl+jPPvwRdSUSSsZipnuxzAjYj1SU+zsAAACgaBAWAwAwx9RUV9sWgPlsLr6XTVD8+9cd0MWVx/U3p/9K62PvaDAc1g8XL9e/u+kD6nfbJih+uKpCvyot83cCAABA0SAsBgBgjgny1W+gIMy193I2KF5UHVMwJV3ce1R/0/o3Wtm+W73JpB7ZsEl/+oEP6gfVlfqXsgoNOtwqAAAAFBuuAAEAAIAClxsUK+XeAkTLFEwHtDF6UH978EtaFz2moUhY+6N9eqysXH0BbhMAAACKEVeBAAAAQAGbKChWOuROGQU7Etra16J7T9yvzS88qbq33lQ/PYoBAACKFleCAAAAQIE6W1CsjpQ0mFYgnda+/THV7XlToaEhuycAAACKEWExAAAAUIAmExRn3OZDh5v1L8caFIjF7Z4AAAAoVoTFAAAAQIE5n6D4J8cXqS/hrgMAAEDRIywGAAAACghBMQAAAKaKsBgAAAAoEATFAAAAmA7CYgAAAKAAEBQDAABgugiLAQAAgHmOoBgAAAD5QFgMAAAAzGMExQAAAMgXwmIAAABgniIoBgAAQD4RFgMAAADzEEExAAAA8o2wGAAAAJhnCIoBAAAwE5z77r/HvYwEgOKSSCTUeuSY2k6eVHdnlwb6+5WIxZVx/wOmq6Z5mW1NzV0f/7htAZjvHvjGN2wrfwiKUSx6Wo/aFjB1jvtfuCSiispK1dbXqbGpSc3LlyocDtstAAC5CIsBFJWeri69vfctHdp/kGAYM4awGEBWvsPinau69alr39aimiGCYhQ8wmLMFBMgr1y3Wms3bVBNXZ1dCgAwKEMBoGi89sJLevQHP1bL/gMExQCAeae8NKxP3PpuNdaGCIoBYBrMvYC5JzD3BuYeAQAwgrAYQMEzvYkf/9FPtX/PXrsEAID55/odK7W4eZ1U+wll4vUExQCQB+YewdwrmHsGAABhMYAC13GqTU/+7DF1dXbaJcDclzGJD4B5L5/v5dJIUO+/aq0CgbA7s0HJutuVzpQQFANAHph7BXPPYO4dAKDYERYDKFimd8AzTzypeCxmlwDzw2A0alsA5rN8vpfffckKLVpQ6bWT8YQSgWbFK29SOl6iTMYhKAaAaTL3DObegR7GAIodYTGAgvXCL54lKMa81NbeblsA5rN8vZdND+XDx04qmUwpGYsqMTTgLgsoVb5C/ctv1kNHlxAUA0AemHsHcw8BAMWMsBhAQTIDVVB6AvPVO4cO2RaA+Sxf7+VoNKpfv/aO/ur+h9Xf26NMOq1YIqWn97Tri4/26idHGwiKASBPzD0Eg94BKGbBW29733+0bQAoCOarY88//YydAy680qoa25qa3t5eLayvV3V1tV0CYL45dvy4Xn39dTs3PZ2dHeru7tGe/UfU1tWvVKBM337yoF7Y36ETp6MaSjl2S6CwxPp7bQu4sDrb2rV05XKVlpXZJQBQPOhZDKDgvL33LdsC5q9nn39evX19dg7AfGLeu+Y9nA/R6KD6ensVHRpSVXWdDrZn9P1nWvT2iV519ceUSjMgJgDMBO4pABQrwmIABSWRSOjQ/oN2Dpi/BgYH9diuXTrZxqjcwHxi3rPmvWvew/nQ292tyspKrV27Vs3NzVIwrJ6BuNKExAAwo8w9hbm3AIBiQ1gMoKC0HjmmjPsfUAj6+vv1yGOP6VfPPaf2jg67FMBcZN6j5r1q3rPmvZsvCxYuVEPjIpWXVygUDtulAICZZu4pzL0FABQb57777yFVAVAwXnzmWbXsP2DngNlR07zMtvIrEomoorxcgQB/6wXminQ67fUijsfjdgmAfOlpPWpbwOxYtW6NLrv6XXYOAIoDYTGAgvL4j37qjWAMzKaZCosBACgmhMWYbXX19brx9vfbOQAoDnRNAlBQBvL41V8AAAAAxYt7CwDFiLAYQEFJxPgaMAAAAIDp494CQDEiLAZQUBjcDgAAAEA+cG8BoBgRFgMAAAAAAAAACIsBAAAAAAAAAITFAAAAAAAAAAAXYTEAAAAAAAAAgLAYAAAAAAAAAEBYDAAAAAAAAABwERYDAAAAAAAAAAiLAQAAAAAAAACExQAAAAAAAAAAF2ExAAAAAAAAAICwGAAAAAAAAABAWAwAAAAAAAAAcBEWAwAAAAAAAAAIiwEAAAAAAAAAhMUAAAAAAAAAABdhMQAAAAAAAACAsBgAAAAAAAAAQFgMAAAAAAAAAHARFgMAAAAAAAAACIsBAMDcddtffkUPfe8Bd/prfdouAwAAAADMDOe+++/J2DYAzHsPfe1B25pZ6VRGA30JRfuTGhpKKhFPK+Uu8zmjHjPmwfvHfTD/mKaTu43jLjdrstvYx+wmntzt/Uf/2UY2ym6f3d88RcY77Bn2yS52meVmP7MoGHQUCUvlJVJluVRTKQX40+J5qWleZltT9+kvP6AbltiZXANv6ut3flEP29lCZ8LiT252/4eoE9r1oT/Vff5iAEAR6Gk9alvA7Lnj7jttCwCKA7f/AHAeYkMptR0b0MG9XTp5tF89XTHFoqmcoNjIbVvOBMtcXpjrbW9i2uw2/qO3S3aRy5/NWXAGORnwSE7sOfO+2c3MFsmUNDgkdfRIh05Krx+Qjp50NBTzt8Esq9ioT9LLFgAAAAAwAwiLAWCSOlsHdHR/l3pOx7LJrTudO7zNzWiHs9vh/fzHbJ/fsfyw1/3HcU/XgZAywYjSoRJvypgpGDJdgb0NR/JovzHmKTz+89sFOcuN4ddmV2TnzZwJjt885OhE+8hWuEBMT+IP3aU73OnrewbtwsVa/1nbBAAAAAAgTyhDAaCgzEQZirjpTXy0T7Fo0ptP5/6dzctOR0WwOczysetsLOyt8teN3caUg8g4EaVC5UpHKpUOlSoTCPqTCYbdRwUD7ry7n51Mj+NAMqbgYLeC/d0KJGLDxzNPky1NYfjtkfncZjp3xm2bueFyGLZRXiqtaMqotMSbxQTyWoYit+zEbZ/XA3dvVIVZvOdbuuuFbcPzI8aUa/jsX+uhGxbbGd/xXXfpc/e6jTOs27fePvfxp3XHH3/VWz7+9dyiv3jwo9rsPrn3Wv78EW+7kbIRWYPa87XP6Au2bsaoshK7pBvM8+f8jKPKb7jLd7Ws0A2UoQCAokQZCswFlKEAUGzoWQwAZzE0kNCJg93DQbExqhew18yZHydnnQ1dc+NYI5Pxol6lnVIlw3WKly1XrGKFkqWNSofKvG2cdELB5KCCsT4Fh7oVjHYpNNSjQGxATjIuJ+AoVVWroWXr1b/1avVvvlLxpRcpVVOnTDBsnsU7juE//8Svedxrs4+5TImKt486GojaBbhgbtu5YjgY7m57RFpRMyYoNhbrhmyZignC4GFnWXesy/ZgXrLGlrv4lNZnA1z3f5s7bjONxarznnxQLS+YoNiExw+MCYqNcm2++wF9aVxPaPd1jnn+cXWaKzbaoBgAAAAAcCEQFgPAGZgexScP9SqVStslPj8sHhOjurNjg9Zcw+uyDe8Q5h9H6WCV4uFFSkQalQzVuktSCsdOqWTwsEr63Km3xZ0OKdJr2kcU6Tmiki536mhR2am3VXZ8r8oO71b5wVdUsf8llR572+tNHFu5VoNbL1f/zqsUX7bK65l8LuOD8JzHHKau8cHj1DG+ILwaxQ/oIXcaDmIH3tQTpmfwvX/qlacYnr72pga8DfwyFbc11npzfq/cke1Mr+KzrXv4hcP2OLVqNMHwbQ1uy33aARMil6tuxcgyDRzWy6ZL8Gev9XoZG6Z3sn+8b2mPfyAtueLz8jLmHKZHsred6VV82+d1RTYoNj2ax+wPAAAAAJh5hMUAcAZtR3tyguLRiemoUNVj50ctniBlHV4WUMopVzzYoFSwykTGCqV6VTp0VJHoMYUSvXJSMa9HsZMxryG739hHVybjbptUIB5TMNqvklNHVLH7WVW88ozCJ496AXX04s3qv/Y6xZcvVyYcMotGTPQyjVEbucYM0pdKSYdOjd0IM80LWLNlKfQpfckGyd40piTFSOhrehv722R7+J5tnR5+TS3eSj8Y9ns0D6qlpdtbvWT9p0Z6NXe3e68lN3zeZ4JszyN6ucX2Uq6o0VK/ZWV7JFvDvaQHtedRv/TFqP0BAAAAADOOsBgAJtB5ol+xaMJtnSlJzWE2sZnpcBniYWalf4xs1pp2wkoGa5UKVnshcTjZqXCiTaFkt7tNttxFtsrw6H0Ns3xkNrcasWVXBgf6VPr2XlW88KwqXn5BioQ1uPMy9d10g5IN9SMbjjEShOesn3hTRaPScQa9m1mmnq/t9WumbG1gv+zDtfI745q6wO764Z7F1sNf1F0felrH7ayx5IYH9NCXP3X2dXpEbX4urCXrP68dq8r9HsQv9PjHr23Qp204fHyfH+wurTvfchHdarN1jI2RsBkAAAAAMFsIiwFgjHg0qe72gQkC0pEFuUGu5wxhai6/LnG5UoFKbz6U6lE42S4nE3OPN1LqYrLRq6l0nDV2n2y4bIJfJxFX6NRJVT32qErf3KtMSUR9v/EeDV26xWt7cl7/6GON+cHG9C422rpEOYpZMVIzeHgAuQlrGH9Vn7NB865sMlzbYEtCnHndfftO2PkVWmUOanoQZ3scV9RovRcOj/QiHt7elsDw3eIHzcZAj475rQk9nE2nVa5VO2+x7U/pvdQsBgCgqJjLzUgyrYp4UtWxhKqH3Ml9rHSn0mRKAa+UGwBgphAWA8AYPR25X3s/88XouFIU2QvXCXZJu1uboDitEvcCN6ZQqkvBdNTf1u6XG/5m5Qa3I22/N3HuvGeCIDeXKWdRuvctVT3ymMKnTil62Vb13fYepavGh3Hjy2ycXVv36IgZF5I/gJxXhmLMgHG3/eVXRkpUuFN28LiBlteks6zzOvzee8DvdVxR7gXQfg/ibI/jxVpits8NgO99eqQ+semh7B33oyN1jJ/Lls44g5z9KzZ/1O6f7TkNAAAKXSiVVmP/kNZ19OjittPactKftp3s1Fb3ceupLm12p43t3VrWM6DyRMruCQDIJ8JiAMiRTmXU2xW1cy4vM80NTkfafjyas87mpWNLUaQVdKdyd0tHgcyggpkBdxu/J3HupqY9uqNEdsY+jlrnz47qXTxmfXbV6OfIKBAdUsWuZ1T24qtKNdap7yO/ocTyRXYL35gfwZc9/tgncmc7e92fc/Q4gJhxX9XnRpWdOKFdY8tQTMDUPB4pZTHa6HUn1DV8sEF1HfZbIz2Ic4JlzyP6wp05PZSH+QPomYHzzs7sP2ZAu+NP6+t7qFkMAEAhM5eWS3oHddnxDm05dVoXdfWpuS+q+mhMdUNx1cQSqnUfF7jzi/qjWtHV7wXGlx1r19rOHpWYkZcBAHnj3Hf/PWPu+gFg/nroaw/a1tT0dw3p1JEeO2d56e/YWNdnTqCmvMQwb1VO1d9MUGmn1G057lZD7r9pf53ZLuMfxz64y9yGWWnTZv8Y2WPZjewmPn+dk11n5332GHZVtrKx9xTeTmbeUXLpIvXecaMUcFT5z48pfKzN284w++Qez+zhzXsN/3jD3NkVTdKC6pE9illN8zLbAgAAU9XTetS2UIjM1aQJek1v4cb+kc4ak+nRZq44s1edA5Gw3misVWd56bhL1Hy44+47bQsAigM9iwEgx1B/3LZyeOnqxCGofz06fp23PBNwL1gjbjvtnmwH3Ue/18PwNWy2h27u7uMucLMx7wTbntG4g4xaYrNoV0ahYydV+b0n5CQT6v+9W5RYPVLGIDcqNkbNTdC7OOcaHwAAADijgHvtWD8wpJ3H2r2g2FyemnDCTGOuMscx67Pbm8eKeEKXtHZqeU8/9YwBIA8IiwEgRyyaHF/OwZO7cOwGOfNe0/zjKOOEvLaj0QPYGbnP4WW3Zj57cWsfRnoM222yhvf1g+TJDHSX3Wnk+nlkn/Dhk6r69mNyUikN3vEerzRF1khg7D6O7DKhwSHbAAAAAM5igXvhaEpJVMUS3vVr9hrWXG464bCCl16i0M5Lx03BS7cr0LRo+LI0u28kldYG93irTvcpmD7HRSsA4KwIiwEgRzJ+hppn3nfaJr7w9E+ko9eZ0hQmaA0o7j5mg2KzzdhjTHTM3O3HP2Yvpscbu/1oufuNbQdPnlbld55UMBxU4revU6aqbHjdsOzM8OFHP088YRsAAADAGZTHk7q4bXxQPKymRpH3/YYit94ybiq57X0KbdqQ8005f38zmZB4zek+rezqO0PnDwDAZBAWA0COVMoOPDfuAnPsgtHzuSUbMrZYml924iyjvpld7IXu8PWu6frrFRb2Z4eXjzGyPPu8I4/eutwds6us4d7Fw8v9fUJvH1f5P/9ckcULFfjwde4V98QfEcOHzn0Ol/3VAQAAABMKuReMl57o8EpHeJeS7oWpuSTNuNe/ZjLXwU4oKKck4k4l4yaZKRx2tzXl3vx9/Eta/3o2mE575Sjq+cobAEwZA9wBKCjTHeDunVdP2Za5aLWNLG/e/JNdMXoDU5nYyA545zi5BSKyRu/rd1i2bfOPaZoLZU/Ock/2Ytguz25ml48f6G54g/Hb2nkbLbvsPu7FefDWq1R62XolvvuU4q8e8Namc7YbZppjfknb1/vPXOwY4A4AgOljgLvCYjpjXHS6V+s7erzLSDMFVq5QyW9/UE65/602T8C9ljbh8PA18YiM6fWQTEqJnK+0pTOKP/5zJZ9/UZm0P5h0a3W53misU/wMnR/OBwPcASg20z9zAkARcJyAwuGISstKVVlV6V6/RhQKh+SYi9lhflBqyk54pSfc2Qkuce2jZWbz8D25sc8zbn74KfzGSO/i4Yb/kEwr9fCvVNbVr8bfulZOJOwtHjmeu537f8PzeXjtAAAAKHzliYQW9w167ey1pFNeLse9vlZZ2chkeg+7TDA8dvKEQqO3ryiXSt1jOH7XCTMtGBhSXTTGpSoATAE9iwEUlHz2LDY27NikbVdcolXrVtklLvcKNNvTwVy0dpzs0IG9B9Xf16+3976jro4ud7m32rtoHX+SHb489v41nXND7kVvVU2V4vGE+vv9i2if3cb7N9vO7u/v65t87+Ls/uZHGL3NyD7laxZr5Z03a3DPIR3+/tNKp0wvjZHtch9yexfTs9hHz2IAAKaPnsWFw4S2K7r7ta6jR+H0yHfWVFuj0MUbpUjELpgC93ipgy1KHz/hPo9/LWqqox2prdRbDbVKBkauVaeCnsUAig1hMYCCks+wuGlZkz7+x5/Us48/oxd/8ZJSKTv4nXu9WV5RqW1XbtWOq3aorKJMAdvDOJVMqa+3X9/++4fUfqrT39g1/kRrljsKl4T1Wx9/v1avX+UF0Ga7x3/8tF589jWvfrKpf+yHumZ7s3Z0COy1vWZ2uWn5x87OD2/rP7j8dTbvdtvDK2zbPYJ7Ub357vepfmmDXvq7h9V38vToUhTeAew08iIIiy3CYgAApo+wuHCE3evaje3dWtozMO7rzZlgUIGmRXbuPGXc6+W+fmX6B4aDYsO0BiIhPbusUbFQ0F84RYTFAIoNYTGAgpLPsHhBQ522XHGJYkNDevaJZ+1Sl5ey+uGoEXAvcNdtWa/mpU3auH2DahfUej2OW/Yf1u4X92jvq/uUzAbNwxw1L2vS7R99n6LRITUvWaRISViJeEK9Pf1eiYt//Mo/q6uzxz6fzWTt8w4HvO7DyEnchsDeuvH7GOfTu7i6eYHe/8cf1qHn9urXP3rG2yf3ucwewwG0bRAW+wiLAQCYPsLiwmEGtNtysksLorHxYbF7QVrx//yFnTtP7nV67OGfKfXKa3aBz1yRmunZ5YvUVTaNXssuwmIAxYaaxQCQIzcOPd3epad+/PPRQbEne/npMyUa3nr1Tf3c3fa+v7pf//w/v+Mtv2j9St3+sQ/o9//kkwqOqm0slZSV6NaP/IbaT3Z4A3GYoPjN1/frP//pvfqHL31TJaURdyoZyXCHZZ/XPo68jDH8FeN2t3KXj95m5IC9rafV+fJ+XfOui1VeWTbqd2OYueE6cGd6IgAAABS9SCqj0mRq4kvGTMbrHWx6MWQGBpU+0eot9sYGca+z0ydP+QPamV4OZpuubmX67fbmm3jdPd72ubLPUxmL2xYAYLIIiwHgHMYNjDFmvrK6UlU11V47k0lr/xtv6//9v76kR3/whPp6+tTY3KD/7S8+ra07N3vbGDV1Ve5UrbS7/YrVy/TMruf1g2/+VMFgQNffcpWOHzmp0x1ddmuf35fXN3E26/cXdi+3/dlhI/MjP4vfGPm23th9fC8/+ape3vWSKipKvfmR57X7e/8aE+8PAAAABNNphdzpTNInTnoXpul3WhT75+9JiaT3Tb1Md7fiP/6ZMh2mvJsrHlfiV88p9dZ+b3tTrzjT1+evG8Nct5Ylxn67DwBwLoTFADAVIymrLr/uMv3mJ29X0NZDMxemsVhMzz/1ov7uv/yDjh06roqqCq/kxM2/eYO3TXworthQTFt2bNLul/bq5z/9harrqvWHf/IJXbx9vb791R8qnu0JkcleWI8NZP35sWH22EB3Mkb2ybb9fTs7evTEYy+p/ZQfXI/tXQwAAACcS8C9hDTTmaRPnvQbkbAyQ0Nuw984E48rMxj1QmFvPhpVpqPDa3vSKXd97uDQowVzrtkBAJNDWAwAY0wYiE54nZmRGZSuaWmzautqVFVT5S3NDVuHonF9/d5v6Ol/+aWS8aQuu3q7rvuNq9V9ukfHD5/wttl62cX6s7/5E/3B5z6ht/Yc0N/91wfdbRPeOo/5yp290M099sSy/YpHtskNgj12VXb5+GvonH3djd73/iv14d++TmXj6r3Z7bKbj+uCDQAAALiXi+bC053GXZda6RPudbF74Rmoq5NTVqpMMumvGLtDLK50T6+ciL0uNSFy7nXzGKYeMgDg/BAWA8AknOkyMxwJe/WHIyURRbIXra7ck2s6ldHT//KMfvH4rxQIBnTNzVfpkiu26KVnX9OLv3pV/+XPvqy//Yv79P/+h/9Pu376C/X19Ns9Xdkkd9wL8EtOLGqu17IVTaNWm/ZIbJttjSwZ2TY7zF3W2G0y3tNXVpVp3frlqqws95ZOPkwHAAAA3Othx1EicObvqKW7ur1Hp7pK7kW10sdPuNeX47fOxGJSbEgqLXU3do83GB0JlnOYPc00ZL/5BwCYPOe+++/hFh9AwXjoaw/a1tS0vOp/Bc4/MY6JUkfPesqrKvTxz3xCtQtr9dh3H1N7W4d6u/rU192rtLe/3cl7cPSe91+rq957hXq6+/TgV76l7s4eNS9rUltrh1LJ1PBzNC1ZpJWrlylS6gfQZt3xY6fU8vbRnItsR8tWLdbHP3W7vv/tx/XmGwe9pZFIWM3u/iZILis3tYYdHW45rpaDrV5P4c3b1urUqU6dOnnaW2eOl+10kRsf+21H111/iW648VL9/d/9SMeOtnvr/J/NGNneNLevs+0iV9O8zLbyIxQKafWqVWpatEhVlZXu/79yfu8AZpWpqdnX36+Tp07pYEuLkhOEFgCmpqf1qG1hvquKJbTl1GnVReO5V48j6mpU/u//xKtVHP37ryq4erUiN9/glaeI/fP3Vfrh35SzdIlSLYcV/8HDKnHnA8uWKvnq64p9+3vD17JZ5vrWTM8vbVCHHXtjqu64+07bAoDiQFgMoKDkKyw2xva7NUyYGwqHvUHtbv7wzVp20XKvV/HY8M6Eu4MDg3ryp0/rjZffVNKdNyprKvWJz3xUCxvrvTrFLz7zij75bz6qd/Yd1uM/flor1yzThz7xAa/Gca5MOqNUOqV/+PK3tfNdW5VOp/WT7z+p6toq3fXp3/bqG3/tf3xXt37oPbp4y1o5gdGvx4TTX/0f3/eO+8nfv1X/479/R93usptuuVI7dm7UT374C736yn6/A8fwz+IHyVu2XqTf/fjN+of/+WMdPHDcW+NfgI9sl30gLPblMyzetH69tm/bprD7vzsAc1sikdArr72mvfv22SUzL+UElAyUuo9hpQNBpe13Wxz3hB7IpBRUQqFUXKHMmb+mXQguzqR1i/s52eR+QHW6P/tj7ufkSyXTC4gw+wiLC0ckldbFbV1q7h2c+OvNlRUq/9N/J7nXvEP/8I/utW9a5f/695VqbR0dFh94R/FdT6n0g7fKaVio+L88ocSTT4+7FjfXqqZX8a+WL1I0PL3exYTFAIoNZSgA4IzMZWYO9xr0smsv191/8il9+s8+rTWb1g6Xnki7F7a93b0a6B/wgl0z2J2pYXzrR9+vT372Y1rQUOvt3987oJZ9h719tl+xReGSsHeMpSub1bxskT72hx/WUCyuF555RU/9y6/0xI9/oZ99f5e+982f6mv3ftsbFG/NhpXatvNibbt0o/r7Btxj9mtBfY03PfnYczqw/7DX0+2dt4/q+V+9rqd3vajnfrVb4XBIH7rjBr38wltKxJO6+w9/U1dfe4li7vNdc/12lZeXeTmx6ZlcXl7qTiXeFI/7QXf9gmqVlZV4U7k7VbjTqMvyMb8uTN+VO3fq8ssuIygG5gnzXjXvWfPenWkpJ6TBUI36w/UaClUpHixTIlCiVCDiTclgiRLusqFglQYide52dYq76wvR5ZmUPpNKaWdaWu1+Fl3ifg5/ordPl5qvqgOYExKBgPrca8zUmUpRpNw3sBnYLhiQU1mhTLv/bbZRTK8Gd5tAVaXci1T32to9Vlub9ziWeY7T7rWqKX0BADg/wVtve99/tG0AmPf2vvq6bU1N98mResH+peXIBeZ1H3iPLr3mMu1+/jX99Ns/1dM/e0ov/fJFrbl4rbfVP933T9r18C4989izevEXL6plX4uWrFisxsWN3v4H32zxDldWXqYNW9eptLzUfb37tHnHRiXNV+4GhrTu4tUaGoypq7NbJ4+3e+UpjrQcV/up0+rp6lND80JdfvUlCroX0ms3rtTLz72huoU1Wr5qiY4eOqFjR05p+2WbvPIVP/zuLr3x+kG1HDymQweP64qrt2np8ib97OFf6DfveI9WXbREJ0606+v/8BNdfuVmvf7a217Q/Qd/dLs+cPu7de31273pku1rvde/YeMKryRF7nTsWLs6OnrctY73O2ha6G1a9Eqramxr6rZu3qwtF19s5wDMJwvr65XOZHTKhBgzYChYoaFQtZKBiDKBkDJOwAtLSiIlWlhXo5rKcnfWUcz9bPHCFHd92t0uZcJkJ+T1Mj5DXDPvXOak9fuJtJrcdrbvYCaVUiQa1cJ0Sk+V+fX2MT/F+nttC/Oee6FoguKF7nWu6WU8coVtBYMKrl/n1SzOdHQqte9tRW58jzL9/Uq98ZZCmzZ4IXLyjTflJFMKbdzg7ZP4+dPKDAyMOp45u5nnaqmrUm9piffc03Hx9m22BQDFgZ7FAJAjEJz4atJ0WFiwaIG+8z//Wb989Jfq7uzyevmaq8+AWZmzWyaTVnQgqtajJ3Xobb+X74kjrXatVFrm9+wyy025CicQ8Aa+O7ivRU/8+Gm9tXu/V6N207Z1uv2jv6HP/Yc/1Kf/3e+582vVuKheAXf7N17dp5R7of2BD71Hp050eMczJSlufP/VWr5ysdf791N/9GH9u//7U7rh5itUUhrRug0rdLK1XVdds00XrV7qlaH4zj89rkWL6pR0b6zNazHlMp5/bq+eePQFf3rsBT3zi9e847/99lE9/tiLevzxkamj3R+MxHCv15EnVVVV2rGNGxNgPjPvYfNezidT/sf0Jh4KVSoVCHshcHVlud533ZX6P//o4/riv/8j/flnf09/9plP6v/5k3+lv/zc7+t3b7tRK5Yscvd2lHaCSgTLNRCqU8ptz3d9GzfqrQ//jspzBpg1n62JaNRrr0gUdukNYL7pK4mo071GNWFu7p+rvHY6rXS7f00bWLLYezT87gj2Qtt9f2dOtUtm0Dr3ethb1D8+KDaT6VXcVV46PB4IAGDyCIsBIEc4MvrmOdvzyr021a4fPKabfutmLWhY4C0zAgH3EtZMjj/5/H1MKQpTb+37D/5Ie17a6y0zQe+6zX5P3bbWdm8gJPPtuEAgqOhgVNHokDZv36Atl27SitXL1NPdq6/d+0868s4xXXvTlaqr93usvvn6AbUea9Oa9StVVVPpLXMvn73axeb1/PLJl/QPX3lI99/zLT35+AsqLYt4AbIpMbF1+3qlkmn9+HtPaaA/qhtu2qnengENDES9sPjF5/dq1xMvuNOL2vX4i/rVM7u945t6xbsef2nU1NmZ7fGTkXto5Mm61attC8B8ls/3svlkGQxVe+UmMk7Q+0PljVdfqr/447v1Ox+4QcvXrtOp8kV63VmgV7RAB8ILFW5eod+47kp9/g8/prs//D5Vlpt9HSWDEQ2G65Q2PZLnqcyGFTp26wf10pbt+g+//RENRCJeUBwfHFTKhsRd/BUTmFPS7jVvy4JK9/wT8s5p/hWzHwVn0imlOzvdGUfBpUsUvvxSb71TU63wpZdIle71rnu9HNy4VsG1a9wLbXv+GlNuxuwTd9edqCpX1ITKAIDzRlgMADkiZWH3IjN76Tpaz+le/fzhXfrA796my6+73KtN6fUKdi9cvbB4zBl1sG9Aj37vMe179U27RLr82su0bNUSb4C6F37xsr/Q3df0aA64N7WXv3uHvvvgT/SDb/5UL/7qVbUdb9fGrWtV31Cn0tKS4V7J0WhMj//4F97F9XU3Xu4tO93Row0XX+TdLB/cf0SLlzZqyyXrdOW7t3m9kM20YtVir3Zxa2u7e8xaffQTv6GGRQv0xL88p2Qy7R3HyMbeRsjebJv9x8r9GnN5YZbCnBVLFo/0qAEwf+XzvRwLlns1iE1v4nAopD/4yK36xO03q6ShWd/vKtV9R6XvnEjp0baUHm9P6ccnU/r68Yz+vjWsQ6F6vffqnfr3/+p3tWih+YOn45WwML2U56PLVp3WF656SsuruhWNlOixzZfozz78EXUlEkrGYvJ6H7rbPVJBCQpgrhmIhLW7yXy7wb+KHL6SNO/bHtsJwX3vRt53s98uL1foyp1eaGx6WIS2bVVw3Rrv+lnu+z2T9MfWMLLHOlFdoVNV5nxpFwAAzgs1iwEUlOnWLM6kMor2DHkXm/7X3rL8dm9Xrw6/fUg3f/g3dOk1O73SDctWL/fKSOx+Ybc3gN0Idx/3/yIlEdUsqNbtH/uAdl5zqYLBoI62HNNTjzzj9fTdtnOzd5zXX9ijyqpyvffWa7waxIsWL9KK1Uu1cs1yVboXvW+/2aJEPKEly5v03C9f0Yljp7yB9VatWabBwaieefJlXfvenV7v5Usu26h1G1dpxUVLtHhJg579xatatqLJC4aN6ppKrV2/XFXucX/8g6f15hstwz+vufb2+Y0697XvvGKT9uw+qBPHO71ldpXHfC3aaFzgyGbZRW+6NYsvv/RS7/+PAOY3M4Dp63v22LmpSymkaKTW61Fs/jj5+3d8QO+5cod2x0v1rWMpHRzMqDshDaWluJ1i7jSYkrrc5e+469uTQb17eZ02rlqql/fs8wZTNXWMA+m0V8N4vjBB8e9fd0Arq7p1ydBevRLeqtZIvfY5IR0oq9A1B/crnErp4aoK7SorV2LkQw3zEDWLC9NQOKShUFCN/X7JGO9dai6+k0kpOqR0y2Gljx73H810+KjSh2z70BF33p3cdvL5F5Vu8wfCywbFneUler1pgVJ5vI6iZjGAYkNYDKCgTDcsDkVC6mnLBr7+DWbuv0YsGtObr77pBbXvuvEqlVWUecFeeWW5GpsXafGKxVq6cqku2nCRNl16sa64/gq9+6arvIHuTI/i3S/u0SPffUwD/YNecHzxjk1e+YdXn9utd/YfVl9vv6pqqrSwcYHSmbQOHzymF555Tc8+9aJXW3jBwlq3/ZLX0/fkiXad7uzR7lf26diRk2pctECNTfX2lUpv7jmgHzz0hGJDcV11zSVeGG2Y3setx9v1Lz/5lfa8dtAbiMlnf9rhH9fR4sULtW37Wr3wwpvqaDeD2XmLRzFB84pmU4rDLihy0w2LqVcMFAbz2fDqbr+Uz3REQ1VKBv2/xr3nXdt1xy3X69XBsL7XmlJHPKP6SEA76sOKdnfp9NtvKHHquDJDA3LKqryC8iZEbotl1JFwdMPyGi2srdavXzXlkRyvdnFJKjr2tD4nZYPiRdUxBVKOFg5EtX1wn55NLNeRRIkO1S7Q4boFGjpxWI+VVWiAP7rNe4TFhcv0MI6Fg6qJJRR0r6nNOShjysgcfMedWiY1ZWscezmz+34/WVmm19zrVjO4XT4RFgMoNs5999+TTQgAYN576GsP2tbUdR7pUV/noFfXMVe2B22W+WpbQ1ODfvczH1dFVYVXf9gMTDdSu9hnAuKh6JD6evr1xI9+7g16Z4LmbLJqQmbTM9ms95nl/jrvBG2a7pMNt4ePn7ONx1FJWURXXef3Sn315bfUfuq0t3zl6iX65B980Fv+nX961CtTEY3GzTf+hmW/qpf9Oc3TmLbp/dzQUKu29m7F4yNf9bObeRbUBLTMDEUPT03zMtuamrs+/nHbAjDfPfCNb9jW1KQVUG9Jo3uODqiivFR/+3/9G6UqF+i/HUyqK5FRZcjRn22pVl1JUN39g/o//9OXdbq7xxTOV6C8UmWbr1Bk9WbvsykSkD7UHNS1tWn9p//xv/TK3rfdZ8ioIt6lSHp03c+5JjcoVsr9QaJl7i8npFTa0evdS/WZ+j/U/pLF2vTrp7XqlZfUP4/rMWNET+tR20IhCrjXoYv6o1rR1acFUTNwtH95mXOJeUbmEjZ7GTsYCelodYWO1FYqka1lnEd33H2nbQFAcaBnMYCCMt2exUbYveDs64y6F6AmKs29XB196WrmTE/f9Vs3qKS0RI9+51/05qt7dazlmI6+c8wrV7F/9369+uvX9OyuX+vXP39One3dowJak8jG4wlvYLoR2eexj96DfSXDq9yGOZD7mF1kVppyFi0Hjuudt49qcMD/ap9xzQ2XadnyJnW7F+NPPfGi+vsG7QX2yN4jTb9hnsIwPZj73O3TqewLtytydl3e7CgUsjOYds/iS7ZutS0A8910exbHA6VKhPxvhbzniu16z7t26FvHUzow4J+TlwbiumNNrSpCjmrLwnr2+Zd0svWkMvEhpQf7lDx1TE4wrHDjEpnT+PGhjK5tiKiuolRPv2A+M/2T+VwOi88UFCudUaAjqcaBbu0YPKhXDri/gzff8j6bURjoWVzYTEcF08O4uzyioXBQpcm0Iu51pzm7mcmcnXIfc5l5Ewwfq63QwQXVaqsqV3IGgmKDnsUAig1/cgeAMcJlIdU0lOdmodbYy1S/JMWPHvyhvv/A9/TGy3u09+U39PxTz+uZx55xp1/pxV+86AXGp9tOK+0NwJFzDPsEzvjDDht+DXajUdu6K0dmcy+j7aN9ML2JN232R+TvcF9Hb0+f1z6T3J87t30mDXWOSqlVDAAzIhkYOcFefekWdScyeq0n7c1n0mntf+T7ervlsDffcvSEytwT8ool9qsemYzSA72KvvKUkqfbvEWmtvEr7v5bN6xWdaUfQpvnyP14mUvOFhSrw/1cHUx7dZf37Y+pbs+bCg3N7R7SAEYzgXF/JKyWumo9v6xBryyu18mqMsVDQe+8ZCZzxsu2TYmJrtKI3mqo1TPLF+mthbU6XV7inscmc9UKAJgMwmIAmEDdkmqVlIXdi1JzWeqb6BLULOts69DBNw94vXrPxRaT8HlN959xB85uYx9zdhnmdU925NhuyqOOm8OEyw2NdaqwgcBbb7QoY26w3e39px3ZbySI9hsjPaCzjTH7uA9lpdLixol+MwCAfEgF/K9tmD/8rVu1zOtRbGoQG8n24+o5/Lb+6t4H9H/89Zf13/7h2/rsJ39bn/+jT/gbWOnBfsX2v+q1zRl8b29KpSUlWrVssb/MCbjL595twWSCYvNZ9dDhZv3LsQYFRn1LB8B8knYvJ82gd61V5Xp58UI9vnqxfrJ+mX46Znpk7VL9asUivbOgyis/ke/6xAAAwmIAOKOG5bUKjvs6mw1Kz8psM/F2YwParPGXuSPbjFuXu/sEK8c+R+2Cau/RDGp3YP8Rr501/nl9o5aPerkjM+71vJY38TECADMpbWvvVlWUqby0RK3RkfOwKTGRSSZ17GS7Xn3zgPa1HNG+dw5rz9vv2C1GJI4fsi2p1Xa+bayv9RuudGBunc/PJyj+yfFF6kv4oToAAACmh7t8ADgDU45i0ao6BYIj0elE4eqo0hCGN5+7cMINfOO2nZj3HPaJvNdgmsNdf7PLJ36dfT0D3qOpU9x1utfdOrtf1sj8RL2L/drFo/cxQfHKJQHKTwDAjPPP6GE7gGo853Scjo+UXEilUt5Aq//jmz/QP/3oMbt0RO62cfv5EckpNp/JjnI6BxAUAwAAzB7CYgA4i9LKiJrX1KukPPdGdHRwer782/Hxx5j4Nn3MduOSadeY0HiEP996rE17dx/Q8aOnhpf5JjjWGeS+tvJSafVyMyq/XQAAmDFOxq850T8YVTqdVlXOx1Ggwv/mSK72zm51TVCbPlBRZVtSpf0jaN/AoPdoZMsazTaCYgAAgNlFWAwA5xApC2nxuoWqaazw5icKdc+nd7HZf1yN4Qlv0sduYx9dw6/B7Ge6/tr9/eXjj/XDhx7XIw8/7bb8dSO9i23ZiuEDuuyq7KLhl+Y+NiwIaO3KID2KAeACCWT8evixeEKnOru0snzk8j2yZLUUnFxYWrJyg21Jy8v9M/yRE/6gd0ZASduaPQTFAAAAs4+wGAAmacHiKi1Zv1BV9WW2NMNkZJPW0UbtbjaxCybqOHymY4wy7vWMrl08NBjT6c4erz3hS88Jq0fW+8cwP2tdTUDrLgqpuZGPDQC4kEIZf9A2U3fe1CVeVe6oPuItUrCyWqUX7/RnziJY36SStVvtnHRpbcALno+f6vDmg+nErN8UEBQDAADMDdz1A8B5ML2MFy6r0YrNjWpcUaPq+jKVlIcVDAUmyGvHhrxnmTdNM40/iH20q7xt/GVjg+VxT3cWY58mO2+C4WDQUVmpo7raoJYtDuritWEtbaY3MQDMhnAq5gXFxhPPvKSQ+0FwY0PQm1cgoLJtV6tkw6X+CXwCwYWLVXnt7QqU+d+OWVvhaE1lUD//9StKJP3exOHUSD3j2UBQDAAAMHc4991/z3nECwAwtz30tQdtC5g9Nc3LbGtq7vr4x20LwHz3wDe+YVtTY77j0RepVyoQ8Qa5+7e/99u6dMdW3d+S1Bt9fj3j9GCfEq1HFGvZq9TpdmVSKQWrqhVeulqRlRsUql7gBcvlQelzq0OqjvXp8//lPnV293p/aayKtyuUmZ0yFATFOJue1qO2BcyeO+6+07YAoDjQsxgAAACYo0yN+9JUv9e72PQE/ubDj6mno1MfWxb0egkbgfIqRVasV+WVN6v65o+o5paPer2JSzdeplDtQi8orghKn1wW0pJIRl/9zk902g6CF05HFSQoBgAAgEVYDAAAAMxhphRFJB3z2ifbT+vLD35X6uvSp1aEdGNDQBH3it4JhRSorFGwdqGCdQ0KVtcpUFLq7bOxKqBPrwprU0Va//idn+ilPfu88NnJpFWW7B9XmuhCICgGAACYmwiLAQAAgDnM9C4uS/YqkEl6Ie++lqP6r//zWzpx8IA+0BTU/291WLc1BbSlOqClpY4Wu9O6CkfXLwzo31wU0l3LQ6qJdem+rz+kJ597RbF4wjtONBpTPJXRb7n7/fsGdxtbCnmmERQDAADMXcFbb3vff7RtAJj39r76um0Bs6e0qsa2puaSrVttC8B89+ru3bY1PQGlFcwklHQibstRV2+/9h44pJOtp7S4plSXLK7VltqQLq0NamddUJe606YqR053p375q+f1zR895oXMQ7G4FxTHhmJKJpP6WE1Gv10b0PJIQCvCjl6PpRXL2CedATtXdev3rz2gRTUExTi3WH+vbQGz5+Lt22wLAIoDA9wBKCgMcIe5gAHuAGRNd4C7sZJOWNFwjZKBiDdfWhJRbXWlaqoqtbSpQXVu23ECGohGdfxUhzq7etTbP6C+gUEvhHUyKQ1G40olk7qrLqmP16VVa3sUJ9z1r0dTuvd0Uj0pf1k+lZeG9Z/+1XotDTwoJzlIUIxzYoA7zAUMcAeg2FCGAgAAAJgnQpmEKhLdKk32esGv6Sls6hjvbzmqZ17arUeefl4/e/rXevLXr2jP/nd07GS7evtNUJxRODWgyvhplacHxwXFRtiRtpYF9dkFM1OS4vodK7W4eZ1U+wll4vUExQAAAHMQYTEAAHOMCXUAzH8z9V42tYtLU4Oqip9WWaJHofSQlE4pOhRT/2BU/QNRDbrtVCqlYDqu0mSfKuOdKncfTdj8ewtS44LirOHAuD6k8jzeKZRGgnr/VWsVCITdmQ1K1t2udKaEoBgAAGCOISwGAGCOGYxGbQvAfDaT72Un49cwLklFVZHoUVW8U1WJTlXET3tTZbxD1bEOVZpeyKkBhdNxBcw+jnRTZWDCoDjLC4xLg3pfZf66F7/7khVatKDSayfjCSUCzYpX3qR0vESZjENQDAAAMEcQFgMAMMe0tbfbFoD57EK8lx2lFcikvODYBMLhdMxOcW+Z6YVsguUsU/Xhf3Ul1Z86e69nExhfVZGfWwXTw/rwsZNKJlNKxqJKDA24ywJKla9Q//Kb9dDRJQTFAAAAcwRhMQAAc8w7hw7ZFoD5bDbey44y3nQmZs3LQ2l9pfPcgXF1wLGt6YlGo/r1a+/or+5/WP29Pcqk04olUnp6T7u++GivfnK0gaAYAABgjiAsBgBgjjl67JiOHT9u5wDMR+Y9bN7Lc1E8M7nA+J34SI/k6ejt7VHn6W499C8v6K+/9oSeeOWE/uafX9N3ftGi/Sf61ZeYgdH0AAAAMCWExQAAzEHPPv+8evv67ByA+cS8d817eC4bFRib2hRjDLrLftCbsnNTF40Oqq+3V9GhIVVV1+lge0bff6ZFb5/oVVd/TKkJnhsAAACzh7AYAIA5aGBwUI/t2qWTbW12CYD5wLxnzXvXvIfnumxg/KX2hF6PphVLZ7xpj1nWkdQBs8E09XZ3q7KyUmvXrlVzc7MUDKtnIK40ITEAAMCc5Nx3/z1cqQEoGA997UHbAmZPTfMy28qPdWvWaO3q1WpYuNAuATDXtHd06O2DB7X/wAG7ZP4wg9ktCDoqs91IomnpdCqjRB7uEhKJuBwnoFCImsQ4fz2tR20LmD133H2nbQFAcSAsBlBQCIsxF+Q7LM6KRCKqKC9XIMAXg4C5Ip1Oe72I4/G4XQIgXwiLMRcQFgMoNoTFAAoKYTHmgpkKiwEAKCaExZgLCIsBFBu6JgEAAAAAAAAACIsBAAAAAAAAAITFAAAAAAAAAAAXYTEAAAAAAAAAgLAYQGFx3P8AAAAAYLq4twBQjAiLARSUcEnEtgAAAABg6ri3AFCMCIsBFJSKykrbAgAAAICp494CQDEiLAZQUGrr62wLAAAAAKaOewsAxYiwGEBBaWxqsi0AAAAAmDruLQAUI8JiAAWleflSBqIAAAAAMC3mnsLcWwBAsSEsBlBQwuGwVq5bbecAAAAA4PyZewpzbwEAxYawGEDBWbtpg20BAAAAwPnjngJAsSIsBlBwaurqtG7zJjsHAAAAAJNn7iXMPQUAFCPCYgAFadvOS1VXX2/nAAAAAODczD2EuZcAgGJFWAygYO285l2KlJTYOQAAAAA4M3PvYO4hAKCYERYDKFjmq2NXv/d6AmMAAAAAZ2XuGcy9A+UnABQ7wmIABW3hokZd/76bKEkBAAAAYELmXsHcM5h7BwAodoTFAAqe6R1w4+3vZ9A7AAAAAKOYewRzr0CPYgDwERYDKBpmoIqbP3irVq1bI8f9DwAAAEDxMfcC5p7A3BswmB0AjObcd/89GdsGgKKRSCTUeuSY2k6eVHdnlwb6+5WIxZVx/wOmq6Z5mW0BAICp6mk9alvA1JlgOFwSUUVlpWrr69TY1KTm5UsVDoftFgCAXITFAADk2aOPPGlbAABgqm6+5XrbAgAAFwplKAAAAAAAAAAAhMUAAAAAAAAAAMJiAADmpE9/+QE99D1/euAvb7FLsz6lL51xHQAAAAAAU0NYDADAHFex+Xb9xW12Jg9u+8uv+EH0lz9llwAAAAAAQFgMAMA8UK7NH/m88pMX36Idq8ptGwAAAACAEYTFAADMZQODGjCPFRv13s96S85quNfw8PSVkV7Jt31eD3zvo9pcYeeXXOttM1LKYqS8xbh9AQAAAAAFj7AYAIA57bC+u+uE11pyw1/r015rIrfoLx58QJ/cPLbXcLk23/2AvnSuoNkLkq/VEjvrM/sSGAMAAABAsSAsBgBgrrv3T7XruGks1g1nqjP82WuHewwf33WX7viQmb6lPV63ZGnJFZ/XbQ9/UXflLNPxp73t7vrzR/TpmzfK233gTX3d2/cu+5zlWrWTQfQAAAAAoBgQFgMAMA/c9+ibfjmKJddO2Ev4tsZa2zqhfffaph7Ryy2DfrOiRkv91gRu0fDuFRv1SVuG4gbbzbiibrHfAAAAAAAUNMJiAADmg4e/qO/u8YPfJTeMLRchLa2bzqB1i1WXrWM8kdqGPA2uBwAAAACYywiLAQCYJx7+8x+NlJAY4759fl1jE/yuH+55fIt2rLIh8kCPjvmtCZxQV/a4OWUohqc7v6iH7WoAAAAAQOEiLAYAYN54RF/4Z1uOYqx7nx6pT3yDX0bioe99dKSO8XPZwPcRtXV7Da+khdnugb+UvvCcDZtzylD409kG1QMAAAAAFBLCYgAA5pOcchSjPaIv3JkdlC7XCe360F363HAdY+m+P35a4za79091x9fOEEQDAAAAAIqCc9/992RsGwAA5MGjjzxpWwAAYKpuvuV62wIAABcKPYsBAAAAAAAAAITFAAAAAAAAAADCYgAAAAAAAACAi7AYAAAAAAAAAEBYDAAAAAAAAAAgLAYAAAAAAAAAuAiLAQAAAAAAAACExQAAAAAAAAAAwmIAAAAAAAAAgIuwGAAAAAAAAABAWAwAAAAAAAAAkJz77r8nY9sAACAPHn3kSdvKj1AopNWrVqlp0SJVVVbKcRy7BgCAuSOTyaivv18nT53SwZYWJZNJu2Zqbr7letsCAAAXCmExAAB5ls+weNP69dq+bZvC4bBdAgDA3JdIJPTKa69p7759dsn5IywGAODCowwFAABz1JU7d+ryyy4jKAYAzDvms8t8hpnPMgAAMH8QFgMAMAdt3bxZG9ats3MAAMxP5rPMfKYBAID5gbAYAIA5pqqqSju2bbNzAADMb+YzzXy2AQCAuY+wGACAOWbd6tW2BQBAYeCzDQCA+YEB7gAUJTPoSuuRY2o7eVLdnV0a6O9XIhZXxv0PmK6a5mW2NTW3v//9WlBXZ+cAAJj/Tnd16Uc//amdm5ye1qO2BUyd4/4XLomoorJStfV1amxqUvPypYwJAQBnQFgMoKj0uDcqb+99S4f2HyQYxoyZblh850c/qmAwaOcAAJj/UqmUHvzWt+zc5BAWY6aYAHnlutVau2mDavgDPQCMQhkKAEXjtRde0qM/+LFa9h8gKMacRlAMACg0fLZhLjH3AuaewNwbmHsEAMAIwmIABc/0Jn78Rz/V/j177RIAAAAAkHePYO4VzD0DAICwGECB6zjVpid/9pi6OjvtEgAAAAAYYe4VzD2DuXcAgGJHWAygYJneAc888aTisZhdAgAAAADjmXsGc+9AD2MAxY6wGEDBeuEXzxIUAwAAAJgUc+9g7iEAoJgRFgMoSGagCkpPAAAAADgf5h6CQe8AFDPCYgAFx3x1jMHsAAAAAEyFuZegHAWAYkVYDKDgvL33LdsCAAAAgPPHPQWAYkVYDKCgJBIJHdp/0M4BAAAAwPkz9xTm3gIAig1hMYCC0nrkmDLufwAAAAAwVeaewtxbAECxISwGUFDaTp60LQAAAACYOu4tABQjwmIABaW7k4EoAAAAAEwf9xYAihFhMYCCMtDfb1sAAAAAMHXcWwAoRoTFAApKIha3LQAAAACYOu4tABQjwmIABYXB7QAAAADkA/cWAIoRYTEAAAAAAAAAgLAYAAAAAAAAAEBYDAAAAAAAAABwERYDAAAAAAAAAAiLAQAAAAAAAACExQAAAAAAAAAAF2ExAAAAAAAAAICwGAAAAAAAAABAWAwAAAAAAAAAcBEWAwAAAAAAAAAIiwEAAAAAAAAAhMUAAAAAAAAAABdhMQAAAAAAAACAsBgAAAAAAAAAQFgMAAAAAAAAAHARFgMAAAAAAAAACIsBAAAAAAAAAITFAAAAAAAAAAAXYTEAzDFJp0S9ocU6UXqJDpVdpYMV12t/xU16q/IWbzLtA+4ys85sY7Y1+wAAAAAAAEwHYTEAzAEpRdQXatLB8uv0WvUd2l/xXp0o2aKOyGp1hZap113XH2zwJtPudpeZdWYbs63Zx+zbF2zyjgUAAAAAAHC+CIsBYBalFdSJ0m22x/CN6govV0aOXTt5Zh+z7/7KG/VW1S06XnqJd2wAAAAAAIDJIiwGgFmQUdALd3dXf0gnSrYqGqyZUkg8ljlGNFCj1pItet09dld4hfdcAAAAAAAA50JYDAAXWMIp1b7Km9RSfo3XnilJ99gt5e/2nivhlNmlAAAAAAAAEyMsBoALxPT67Q02aX/FzV7t4fQFOAWb5zDPtb/yJvWGmvPSexkAAAAAABQmwmIAuED6g406UHmDV3LiQjOlKQ5UvMd9DYvsEgAAAAAAgNEIiwHgAjC1g01YO5uDzpnnPlB5vU6HV9olAAAAAAAAIwiLAWCGRYO1Olx2hVJO2C6ZPSmFdaTscg0Gau0SAAAAAAAAH2ExAMygWKBKb1fcqKRTYpdMXygoLal1dOOGkO68IqxPvSusT1we1m1bQrpyVVDLFziqLDlzbWLzWg5U3qihQLVdAgAAAMwNTkYKp9IqS6RUEU+qMp5wHxMqj6dUkkwr4K4HAMwcwmIAmEHHSy9R3Cmzc9NTGnZ06fKgPn9TiT53Q4l+Y1NIW5cEtbE5qG1Lg7p2bUgf3h7WH19fotu3huScZSw785pOuK8NAAAAmAtC6bTqB2Na2d2n9R09uritS1tOnvamrSe7tLnttDa0d2v16V419UVVmkzZPQEA+URYDAAzxNQp7govt3PTUx6RPnNdWL9zaVi15WdJgc9DV3iZ9xoBAACA2WJ6Ejf2D2nzqS5d7E4mKF7e3e8ui6o+GtOCaNydYmoYGNLS3gGt6ezRpvYubTt5Wivc7UwvZABA/hAWA8AMSATKdajsSmXycJqNhBzddWVEzdWBs/YWPl/mtR0qe5fi7msFAAAALrRIMu31IN568rSaewe9khPBtH8FbSZz6Tt2CmbklaioHxjS+vYebW/tVG007oXOAIDpIywGgBnQFVqulBOxc9Pz7tUBrVo4M6drM+heV4jexQAAALiwKmMJ7TjR4fUiLkmlFHSXTeaK12TCJjQ225rSFQsHhrSjtUP10SECYwDIA8JiAMizjHv52hZZZ+emp6bUH8huJrWXrPNeMwAAAHAhVMUSurit2ysvYWSvRL2sNxCQs6hRTtOi8ZNZXlHub2c2dSezb2kipR3HO9UwECUwBoBpIiwGgDzrDi/XULDGzk3PmsaAwsGzB7nJtPucgxm19Y1MPUPuVfIkL5SHAtXeawYAAABmmik9YeoS1w8ODfcQzuXUVKv0ro+r7Pc/OW4q/dQnFdpxyahuDqZtJtPL2NQxbiQwBoBpISwGgDwyPXRPlWy0c9PXXHP2oDiayOiBZ+P6r0/E9DePjUw/2Z2cbFbsMa+Z3sUAAACYSYFMRus6erzB67wrT3feXLNmHMebzAAdTkmJnMrKiafqKjnl5cPbe5M5jssczwx2t6azV1XxhL8QAHDeCIsBII/MwHaxQJWdm77q0jMHuIlURl95Kq59p9Iamub1sHnNiUCFnQMAAADyr6kvqqW9A3ZOCjQ1qfR3P6LSuz8xPJV88FYpGPSC43GTK7R186jtS+/6hEIXb5Rjyle466tjcS1xn8MMlAcAOH+ExQCQR3GnIm8D2xlnK0FxvDujk735uQg2rznulNs5AAAAIL9Mr9+V3X1e72ITRJir3EBDvYJrVrnT6uEpsGK5FwxnTK/jMZPhLKgbtX1w3Ro5DQ3ePuaYpgSF6bls6iIDAM4fYTEA5JGpVZy+QKfWgXj+ekuY1xwN1to5AAAAIL/qB2MqS6T88hNWZmBQ6dNdynTlTKdPn3satb07DQ6ao3nHNMeviCe1cHBIgfxdLgNA0XDuu/8eTp8ACsZDX3vQtmbH4bIr1B5ZZ+em7/eujGjz4onD5zdaU3rg2fz1mGiIv60V0V/bOUxHTfMy25qauz7+cdsCAKBwPPCNb9jW5PS0HrUtzHemN/GG9m6t7Oof1a3ChBFOWZmcyimWQ3MPkInHpIFBZVIjQXTanbrKSvTikoVKBKfXkeOOu++0LQAoDvQsBoA8yme94gttPr92AAAAzF2RVFrliZSdG2HC3czQkMLXXzO16d3vUqB+waig2DDt6lhCJcnxzwkAODvCYgDIo4RTZlvzz3x+7QAAAJi7TGhblkiOCnSHZTIKbd6k0I5LRk3hMfMTTls2ySkpGXdcMx9Mp1UZT/oLAACTRlgMAHmUDoRsa/6Zz68dAAAAc1confZ6F59Jpr3DKymR2ve2Yt/4tpRMeiUqMn39in33h8q0tfsbusdJ/vJZpXa/4YXMGfeY6d5ef90EKuIMcgcA54uwGADmgD95b0T/+YOl46aLm898mt7UFJxwHzNtWxK0W00eBewBAAAwE4JpM42/2swuSbWecv/NKBONKvVOixcKG5m+PqWPHZficW9eZv3x43ZAO1c65dUrnojpXXy2gBoAMDHCYgDIo0B6al91CwQcmbE3xk7OhN/V85l1E+1jps7B878wDk7xtQMAAACTMVG5CCN98pR3cevU1MgpKfV6DXvG7JAZiinT3SOFw/6ClAmYh/w2ACAvAvYRAJAH4UzUtmaPubbu7D//fsJz4bUDAACg8KQD7uSYvsMTS7e1eY+BuhqprESZ3j5vfqxMPK5M/4Cckoi/IJnwSlacSdL0ogAAnBfOnACQRyXpiS9sL6SeaEbRKZRnmwuvHQAAAIUn5QSUCE5cJs10Hs7YusNOWZnkbpc6cszvATGWqUFsSlSY3seudE+vMrZkRS6zp5miofMvzQYAxY6wGADyqDx12rZmz7HuqdVmK0t12RYAAACQP7FgQEPhiYNbL9jNlpKwgXLq0GHvcaxMKimVlMgp88PiTIcZGG/i/spmaW+JLVcBAJg0wmIAyKOyVI97Yp3dgTSOdk18wXw25jUTFgMAAGAmxEMBr5fvRFepXlniVMoPfYNBr2Zx+vARORMN3pFOy6ms9MNid326rcOuGM08z2AkrFgo5C8AAEwaYTEA5FEkM6hgxo7WPEum0rPYvGbz2gEAAIB8SwYC6i6NeDWEJ+zWkE77dYq9Qe6qlenxy1KMYrdxKir8chVmUXuHt89EOipK3OedeB0A4MwIiwEgj8LpgSnV/v3bx2P6/A+Gxk1vnDhz8Lu3NT3hPm+fOv+wOJLud6cBOwcAAADkV0d5qQbDIb/shL9oRCqttC0pEWxu8gayGyftbtN6Sk4kLIX88hKZnh6/Z3IOc+xYKKh29/nShMUAcN4IiwEgjxz38nRR7E07N3lp96rWjM0xdpqw54WVcf87333OpDH2lvfaAQAAgJkQDYfUWun3CB7HvYjNdPhjfwQWN7sXtOZK13QaDo7qOZzp6pJMaQkbAmcGRnd2MPuYyQTTPaUlXN0CwBQQFgNAntUmjqg0PcFX5+ao0nSfFiQO2TkAAAAg/zKOdKSmwht0LhvqZmXSpmdxpxcMB5YsVslv3e4tdxYuUHv1jqgAADatSURBVOR9N8lZsMCrZxy5/hqFL9s+PBCe4gn/0TLHjIaDOl5d7tVJBgCcP86eAJBnpoduQ2yfnZv7zGulVzEAAABmWiIU1EtLGrwaxqMCY9OTuL/fb0fCCu281G+HQgquWS2Vl3lBsrN0iZymRf66aFQZMzCelT3W0ZpKdVaUcnULAFNEWAwAM6AueUTBzOieDnNRUAn3tR62cwAAAMDMMj1/X2taoHjuYHeZjFKHjyj+o5/6049/NtJ+OKc9PP8TDX3zIX9Xd0q7UyogHa+u0DsLqgmKAWAaCIsBYAZE0oNaHn1uTvfYNa9t+eBz3msFAAAALpT2ylLtbaxTfyTsBb1GpqtbiWefm+T0vFIHDvr7uVMsGNThmkrtWVSnNGPaAcC0EBYDwAypTxxSbeKonZt7zGurT7TYOQAAAODCSDuOTlaV683GWrXbkhHZLhYm6z3XZJjtTdDcVxLWgYXVOlBfo5Qd+A4AMHWExQAwYzJaMvSqwpmonZ87wpkh77UBAAAAs8H0AO6oKNUbjXV6Y1GdF/pmA2Az5QbI2XZ2vXk0ZSxaFlRp96IFOlZToYQ7DwCYPs6mADCDStM9WjvwhEKZuF0y+4LuazGvybw2AAAAYLaY0HcwEtKRmko9v7RBryxeqJPVZYqHgsPrc4Nj03O4uyyivQ21emZFk/YvrPHmUw49igEgXwiLAWCGlae6tSz6/JwY8C6opJZHX3BfU5ddAgAAAMyujCPFQkG1VpXp5eaFenz1Yv1k/TL9dMz0yNql+tXyRTq0oMobKM+UswAA5BdhMQDMuIxXG3jNwJPuSTdll1145rnX9P/cfS3vuHOmbwYAAAAAAMAIwmIAuEAqU6e0ZuDnKk332iUXjnlOE1ab1wAAAAAAADARwmIAuEAcZVSdbNX6/kdVkepwT8CmAtvMMs9hnmv9wGPuc5/wXgMAAAAAAMBECIsB4AILZ6JeYLxy8FcKZWJ2af6ZY69wn8M8Vzg9aJcCAAAAAABMjLAYAGaBqR+8INGirb3fU1Nsj1cmIh+9fs0xzLGaYm94xza1kmezTjIAAAAAAJg/CIsBYBYFlNTSoVe1of8RrR3YpZrk8SmFxmYfs6+piWyOtXToFe/YAAAAAAAAk0VYDACzLuOVjDA1hU1gvLXvu1oz+KSaY3vUe/KAWo8dVfupU+rs6PAm0zbLeloPetuYbU0v4mzY7Je2oDYxAAAAAAA4P859999DogCgYDz0tQdtC5g9Nc3LbGtq7vr4x20LAIDC8cA3vmFbk9PTetS2gNlzx9132hYAFAd6FgMAAAAAAAAACIsBAAAAAAAAAITFAAAAAAAAAAAXYTEAAAAAAAAAgLAYAAAAAAAAAEBYDAAAAAAAAABwERYDAAAAAAAAAAiLAQAAAAAAAACExQAAAAAAAAAAF2ExAAAAAAAAAICwGAAAAAAAAABAWAwAAAAAAAAAcBEWAwAAAAAAAAAIiwEAAAAAAAAAhMUAAAAAAAAAABdhMQAAAAAAAACAsBgAAAAAAAAAQFgMAAAAAAAAAHARFgMoKI77HwAAAABMF/cWAIoRYTGAghIuidgWAAAAAEwd9xYAihFhMYCCUlFZaVsAAAAAMHXcWwAoRoTFAApKbX2dbQEAAADA1HFvAaAYERYDKCiNTU22BQAAAABTx70FgGJEWAygoDQvX8pAFAAAAACmxdxTmHsLACg2hMUACko4HNbKdavtHAAAAACcP3NPYe4tAKDYEBYDKDhrN22wLQAAAAA4f9xTAChWhMUACk5NXZ3Wbd5k5wAAAABg8sy9hLmnAIBiRFgMoCBt23mp6urr7RwAAAAAnJu5hzD3EgBQrAiLARSsnde8S5GSEjsHAAAAAGdm7h3MPQQAFDPCYgAFy3x17Or3Xk9gDAAAAOCszD2DuXeg/ASAYkdYDKCgLVzUqOvfdxMlKQAAAABMyNwrmHsGc+8AAMWOsBhAwTO9A268/f0MegcAAABgFHOPYO4V6FEMAD7CYgBFwwxUcfMHb9WqdWvkuP8BAAAAKD7mXsDcE5h7AwazA4DRCIsBFBXTY+Cyq9+l3/zE7+iKa9/tXSSar52ZGmUEyAAAAPn3lfvvty3gwjPX+OZa31zzm2t/cw9g7gXMPQG9iQFgPOe+++/J2DYAAMiDRx950ram5vc+9jE5Dn+8AADMfyYovt+dXn3pJf3jN79pl07Ozbdcb1sAAOBCoWcxAABzzGA0alsAAMxf2aD4tZdf5rMNAIB5grAYAIA5pq293bYAAJifcoNig882AADmB8JiAADmmHcOHbItAADmn7FBsZnnsw0AgPmBsBgAgDnm6LFjOnb8uJ0DAGD+mCgo/tu//Vvvsw0AAMx9hMUAAMxBzz7/vHr7+uwcAABz30RB8ZfvvVf/6T//Z28eAADMfYTFAADMQQODg3ps1y6dbGuzSwAAmLsmCor/25e+pL/6q7/yPtMAAMD84Nx3/z0Z2wYAAHnw6CNP2lZ+rFuzRmtXr1bDwoV2CQAAc1d7R4fePnhQ+w8csEum5uZbrrctAABwoRAWAwCQZ/kOi7MikYgqyssVCPDFIADA3JNOp71exPF43C6ZHsJiAAAuPMJiAADybKbCYgAAiglhMQAAFx5dkwAAAAAAAAAAhMUAAAAAAAAAAMJiAAAAAAAAAICLsBgAAAAAAAAAQFgMAAAAAAAAACAsBgAAAAAAAAC4CIsBAAAAAAAAAITFAAAAAAAAAADCYgAAAAAAAACAi7AYAAAAAAAAAEBYDAAAAAAAAAAgLAYAAAAAAAAAuAiLAQAAAAAAAACExQAAAAAAAAAAwmIAAAAAAAAAgIuwGAAAAAAAAABAWAwAAAAAAAAAICwGAAAAAAAAALgIiwEAAAAAAAAAhMUAAAAAAAAAAMJiAAAAAAAAAICLsBgAAAAAAAAAIOe+++/J2DYAFI1EIqHWI8fUdvKkuju7NNDfr0Qsroz7HzBdNc3LbAsAAExVT+tR2wKmznH/C5dEVFFZqdr6OjU2Nal5+VKFw2G7BQAgF2ExgKLS09Wlt/e+pUP7DxIMY8YQFgMAMH2ExZgpJkBeuW611m7aoJq6OrsUAGBQhgJA0XjthZf06A9+rJb9BwiKAQAAgCJl7gXMPYG5NzD3CACAEYTFAAqe6U38+I9+qv179tolAAAAACDvHsHcK5h7BgAAYTGAAtdxqk1P/uwxdXV22iUAAAAAMMLcK5h7BnPvAADFjrAYQMEyvQOeeeJJxWMxuwQAAAAAxjP3DObegR7GAIodYTGAgvXCL54lKAYAAAAwKebewdxDAEAxIywGUJDMQBWUngAAAABwPsw9BIPeAShmzn3335OxbQAoCOarY2ZkY2C21DQvs638cBypIhRQSTCgkJlx/w8TcK9okpmMYqm0BpJpuU0AmBVFc96e4fNuT+tR2wIuvJs/eKtq6ursHAAUD8JiAAXnxWeeVcv+A3YOuPDyGRZXhYOqjgQVICA+L2n36qY3nlJfImWXAMCFUazn7Zk47xIWYzatWrdGl139LjsHAMWDMhQACkoikdCh/QftHDC/1ZUEVetOBMXnz/zOzO/O/A4B4EIp5vM2510UGnNPYe4tAKDY0LMYQEE5crBFzz39SzsHzI589Cw2vdJq3CmrsrpGi1dcpOraOgWC/K13IulUWr3dXTpx+B319/bYpVJPPOX1dgOAmVSM5+2ZPu/Ssxiz7Ypr363lq1fZOQAoDoTFAAoKJSgwF0w3LA4FHDWXh+2ctGTlam3YtsPOYTLeeu1lHT808i2D1sGEkuY70gAwAzhvz8x5l7AYs41SFACKEV2TABSU7s4u2wLmLzMoUlbdwkaC4ikwvzPzu8vK/Z0CQL5x3ua8i8LEvQWAYkTPYgAF5Yff/GfFYzE7B8yO6fYsbioPK2wLXm694mo1NC322qO1afcPn3L/PZM12vKb2zV8297+ip741QGpbruuvHaNKsbuv+o6vXfryE2+Bg/o14+9ogE7W7Hl/bryInev1x/S7hZ3wdjtXWdbN/z8ucZsN/DOLv16d6fbGvPareH13s/QrPanf6qD7j1c41V3aEuD3ShH+8kTev25Z7x2Ip3RyUHqDgKYGZM7b+cYc44903nPM+r8Wa/VN92gleV21jrr+dd9lkP2fHmu9dlzvTF8TGP4s+Ps8n3epWcxZlukpES/+bGP2DkAKA78uRdAQUnE4rYFzF/m68xZdQsnSEEn5YB2//CVs4TJY7QcH7XtwMkjOSHG9JjAYVxQbLQ8pSd+uEuHBv3ZiqblNog4oFPtXiPHgNqPmSDZ3W5p8zkDCyP3d5f7OwWAfDuv8/a4oNg48zm7rTX3/NmpkyfP9+xcoYal9X5zzLneM9iqk17nyXo1NWXPrm06lQ2Kja4jarfn6rPhvItCw70FgGJEWAygoGTc/4D5Lvf2OhQaqYF5JqZn7Xt/M3e6zvZOmyh0PZMuDQ4HASPB7HSZ3sDZnmmjX2f2NXbq4IsH/NCkvFlNdd5CtbWOiTMmDDPOLvd3R2QBYCadz3m77YANik1v3THn7HfeGRsEZ0PbejWu8gPfgWOtY4LmczvbH+OG/zhYt1wN2R7L7TZUrlujRu+8PLmQmvMuCg33FgCKEWExAAAFp0JVNnQd6Dv3zX1FnQkgcoOAAfXZYLbCHmdq2vSOV1bCfY4t7x9TKqJRW7IBSdcrescLL87c+23CMAMA5rPaahvgNuqiLTYI7h9zzh4ObZfrojU28J1kL99RzvjHuIm/tZHtzVyxdJ0usuflqYTUAABg/iEsBgCg0Az3wnVv9KvO3Qu3YqkfQAyHFNlwYtVyNXkLpmiw1wYLZ+oN3KhFq/xWNrwY6f02cU/nyZagAIC5qqIy+0exkVI8FRfd4H/rYmwt+OHQ1j33DQe+0yxF0Z09N7vOWoLCXzZ8Xp5KSA0AAOYdwmIAAOa5tl89pCd+mDNla2HWbddFkyl5XGV7t9nevAN+t2JVVFZ7j1M20GcDiTqVn6E38HBokjVRGDKFEhQAMFdVXHSFVg9/a6NTBx/zz92/PmMJCncf7w9/I4HvtEpR5IS+Zy1BkT13TyukBgAA8w1hMQAABcirDzyJket92R6+ppZlthfv1IPZisrpBLrjwxBKUAAoLBVaea17jr5qjZ33Dez+qZ54PadExHBou0aL7B/+ptXLd1zoe/YSFFq1xC8VNMF5GQAAFC7CYgAA5rnswHFX2pqXxmRqFefK9vAdaN3v9+LNRzBbUWXDh9ySEqMN9PtBRa7RYQglKAAUqIbtdsDP94/0NG7Z45WlMIZDWx3Q7rHfHJlmKQov9D1rCQqXVybD9nq29ecpRQEAQOEjLAYAoECYmpdbbA1g00Nt95gR788mG9AOtBzwg4jhgZdGG1c2YtiABrttM6s8e4wzhRojoURjc06dztzebwdseE0JCgAFoW04+B05R5uexnbAz2E5oe0ZDOzeb3seT17uH+PeOXC2EhRn0qmDB873WQEAwHxCWAwAQAFp3DoSOLS9aYPfyRgOdn2jwtscFVW2+1vLU6PD6Pb9OuiXOs4ZVC9nhP/dPx1Tj9MEJk/ZUGLkK9a+nN5v2fB61WatpAQFgHmvQtnTaO45euCdPaND2pwSFFu83sc5003b7fnalA7yGpOX88e4tha/t3DjxpGSRSMlKK4b/ZzuNPztFVvfHgAAFCbCYgAACkqjtmTrYHa9ot3jBkw6k2zdYqNew3nvWA3rhr8uPWpgvV/ZgGHMoHpjezsPbz8cFNdr9U3bx/Soc/fL9n6zzhReA8D8UqGVG0fO0b+258ThMg/2D2Pj6wbnGA58zXZjYtuc0hGjpuFayCN/jPPl/rHuDN/2sEbOy1MIqQEAwLzh3Hf/PRnbBoB576GvPWhbMyuZSqmjq0fdvb3qGxjUUCzuLctk5vcp1XEchYJBlZZEVFVRrtrqai2sq/GWYfJqmpfZ1tQsq4zYlrzeXBMb6ZlrahZvGdUz1137+kPa7d30mzD2Bq0ceMUPdOu260pv4Lvx+w+8s8sPLIa3GdChp3/q9Riu2PJ+XXnRSHw7cvwcpifa1jOEuu32+XOdbfuc5/Z71o0NlEfWT/TzZ5mQJOtof9y2ACC/JnfezjF4QL8erj/sGznPjpyfx557s4bP1/b8qInOyblyz7e5z527fPg8bT83xn2bI+e8fJbzdz7Puz2tR20LmD133H2nbQFAcSAsBlBQZjosHhiM6ujJU2pt75z3wfBkmQC5uaFey5oWqaK8zC7F2eQzLL7h9t/2/n+A82feo7t+9B07R1gMYOZw3vbl+7xLWIy5gLAYQLGhDAUATNKBw0f13Otv6ERbR9EExYb5Wc3PbH528zvAzEvl/O9roLfHtnC+cn93ub9TAMg3zts+zrsAAMx/hMUAcA6mN/ELu/fqSOspu6R4md+B+V2Y3wlmTiw1coPdevSwbeF85f7ucn+nAJBvnLd9nHcBAJj/CIsB4Cy6+/r18t59Xl3i6TJfSC1xHJVOcgr5u52VOYlH3CNnpxI7TbQs7E75+FKs+V2Y34n53WBmDCbTtiUdObhf7a3H7Rwmy/zOzO8uK/d3CgD5xnmb8y4AAIWCmsUACko+axab3rMmFE0kk3bJ9JQ5jv5tqFw1oyLbbDv3VOwve0UJfScxNGrNWFuDYb3LCdu5szNH+nZqSEN5+lpoOBTSjk3rqWM8genWLDYWloZUFhr5m+7qjZu1dNUahcKT+/93sUomEjrWckAH39xjl0jRZFodQ/l5HwPAmRTreXsmz7vULMZcQM1iAMWGsBhAQclnWGzKLeSjR3GW6S386WCZmtzHyWhXRl9ORhU7S7i7LRjWuzW5m9Coe7xvpvMXFhtVFeXauWWTnUNWPsLioPu/k8aykEKB0f97qayukePwxaCJZDJp9Y+pFZpMZ9QWTVI7E8CMK8bz9kyfdwmLMRcQFgMoNoTFAApKvsJiM5BbvmsUm7D4E4ESrQ0E7ZKzS7nT/akhHU6b1sRmOyw2ljcv0poV0w9HC0k+wmLDBA4LSkIqCU7uDwwYzdTLPB1LesEFAFwIxX7ezvd5l7AYcwFhMYBiQ9ckABjDlJ+YqcHs4u5kQtvJMJHyNUFTaXhuM78r8ztD/vm9sxLqcm+84wwUNGnmd2V+Z+Z3R1AM4EIq1vM2510AAAoHPYsBFJR89Cx+651DOtHWYefyx/Qs/t1AiVezuDkwub/VmWp/f5OMqjsz8SAxc6FnsbG4caE2XLTSziFfPYvHMt9sNl9zpp/xxMz/ss3XnskpAMwVhX7enunzLj2LMRfQsxhAsaFnMQDkSKZSam3vtHMzwww0N9nxwU3v4jWTLFsxm8zvzPzu4MvMQCBvmJvxhPtPnGnCyfxu3P8DgDnDnJMK+bw9k+fdmfosBQAAZ0dYDAA5Orp6ZvzmxHwrNTHJpzA9kdbPg7DY/M7M7w6+dHL6I8ADAFDM+CwFAGB2EBYDQI7u3l7bmjkBx1F7ZvK9cFc7QUVsey67EL+7+SKdTNgWAACYCj5LAQCYHYTFAJCjb2DQtmZOUI5OpzOabFxckZG2h+Z+XHwhfnfzRTIesy0AADAVfJYCADA7CIsBIMdQLG5bMyvkOOo5j3IXVzshheb48DgX6nc3HyRjQ7YFAACmgs9SAABmB2ExAOS4UIO0hd2pPzPZYe6kOjla6MztsJgB7kakU0n3Jjdq5wAAwPkwn6HmsxQAAFx4hMUAkONCjLxtIt+g+0+f+1STfTZThGJlcG4PdMeo5aPF+vttCwAAnA8+QwEAmD2ExQAwCwJylFZG3ecRsF7qhOd4IQrkSsaHlBiijjMAAOfDfHaaz1AAADA7CIsBYBaY0NfUIG5Nm8h4cpa52zcH5nbvYowW7elWJk15DgAAJsN8ZprPTgAAMHsIiwFgFjjufyH3MZbJKD7JtNgEzJcGzF6jUfxh7jI3vYPdXXYOAACcjfnM5I+sAADMLsJiAJglpo9wUI76ziPuvcgJKpwz0J2/J3HxXGYG6RnsPm3nAADARMxnJYPDwnDcS9tIMq2KeFLVsYSqh9zJfax0p9JkSgHGyQCAGUVYDACzxHEcb6C70+n0pPPeRnefStv2uPtxuTz3JaIDGujqUCbj/v8aAAAMM5+N5jPSfFaiuIVSaTX2D2ldR48ubjutLSf9advJTm11H7ee6tJmd9rY3q1lPQMqT9ALHQBmAmExAMwScwI2RSX6MhkNTXLkulBGujpUYud8k696jNmUHIqqv/2UkjEG7QEAwDCfid5no/sZieJlehIv6R3UZcc7tOXUaV3U1afmvqjqozHVDcVVE0uo1n1c4M4v6o9qRVe/Fxhfdqxdazt7VJIkNAaAfCIsBoBZZMpQBNypw/QunqTLnaBKbSkKPyh2iIvniXQqqYHT7Rrs6lQqEbdLAQAoLuYz0HwWms9E89mI4mSuZk1ZiUtPdGhba6cXBpvgN5jJeEHFRH0pzDKzLpxKqzKe0NqOXl15tF0LB4a80BkAMH2ExQAwaxwF3KvakHvV2+NeFE/2+rbE3XB1wFQ8NiUoHKXdeXoXzy+JoUH1d5xSf2ebYv197k1zQhnq7wEACpT5jDOfdeYzz3z2mc9A81mI/3979xYcx3Xnd/zXPTcMBnfeQFLiRaJJiRJFySIl0aItR7ZlWV6rvLvxbpyNUnFtHjbPeclLKqlU5SVvfnL5SVVxrascxS4nzq7Xq40cypIoWdSVFCVSpChKvEAgCRIgLnPr7px/T4MAQVwGxIAYEN8P6nD69PTMECNV8/RvzvzPyuW7Yc+qkaL2nrmgtcNj10Jga3ONiOz+8ePttlCu6MHzl7RpcJh6xgDQAN5PfvpjzqYAbhsvPP+zZOvmvPT6oWSr8Ww28A/9nFonfU4XeJGKYaRRN7DdlU4rm+yfyxtRVb+qlrTTT+sxucf5nhsce/GAeSZjbmj987Co4iIOop98bE+yhXlz/1l89/+A3P8nVs8aAIDlLv4g1LWwWq2lekDCZgJbKYn2UiX+X2P8fw8bpXqZjFIP3CcvmRwxWRSGCs+eU9j3xXWPsRa48fCJng592t0ebzfKD370XLIFACsDYTGA28pyC4ttRnDZXURddWfi3pSvjXWGhAPucf+tMqp7/LQeVUY5L4pLWswWFxMWAwAAYKm1lqvae/ZiPCPYRq6TR682SvVWr1b+b/5aXsZW95jCjWMrL7+qyu8P1A5O2Ka1wPd1oqddn/R0KGpQXkxYDGClmUgsAAC3nIW7diLOuNYXBKp3eY5u97gdfjoeFFu1YytFMWm8DABoShu1+1vP6vv/+rk4fIjbn+2T9j870f/Rs7r2sdud+/Ttf1Xb/+c/eFLbO5L9ALBMpYMwrlE8HhRb+BsHvZ4Xt/gbVumUvFzWtdwNTdYyGXesf+0xtTGwFWeTUmEYl6NYNcqCwgBws1J/8r3v/OdkGwCWvaPvvp9s3ZxTZ84lW42XdoPZXV5amdrQOGZbkRfFIbENaTvcMeOL183GjuhMpXQ6DLRevmzehX3bzhbLm4ktH3M4qsa3i2XrHRuSLQBYSjv1xF89rUf27NZ9D1m7V2uqp3W6/8aFJff82XN6/LHacdt7q/roxIXknkbb6F7rCW1bm1dq8nSN0oCOjhR036qW8R268u4x2b9G27/yuDZ31r6G7WVb5A9/oNOL9dcDgEVmC9BtvXxVG66OxiNWa6mtW5T/t/9G2W9+Xdkn9scts/dhKZudsSxX6o6Nyu7fd+347Fcfl8oVRefOx+FzOqwtkDfQ2tKQchT27wMArCTMLAaAJWbjYIsCrF2ZR4mI9ZGnTs9X4B5iYbPNMK5/mTwAWEmyWrtrn7YnvcZr09rtD+rRp7+rZ374L/Xt/cnuyXbvuhb81uv4B59pqFLbDof7dP6D2jYALEetlUocFJvxCNdrbZWXb5Hy+Ylms4cdq3k9tcVsjYfJxxdapRb3HG5Qbc9rrWekqO6xUhxQAwDmh5nFAG4ry21m8TgLegO33+a8rfVnmx88wWYTX3XNcwPnlOfHYbMfD5KnfzQziwGsHGu05YENKkzOZtNt6lo9quOfDCQ7ajbcu1vdyaTecPj8Tc4s3qY9Tz+oDV15ZdO+SgPv6+RnyV2Jwo5d2t4zvozpsM6+8qJ+93/f0NEPz0ibdkw7s1hDZ3Ty/ffjf9s+PHpal+L7AWD5sdB2w9Ux9Q6PKeXGruOj1ahSUTQyouDTzxScPHVz7eOT7vYTRUND8fNas9eopvx4dnE4wwzlejGzGMBKw8xiAFhiNny1b8ilXLPF50bHZ03MwR63zZ3GbVbxxMxiAMBMWu7cpa/cmXRusY2t40GxUx7WxY+vD60B4HaWDkN1lMrx7XXR7ZVBVV5/U8HxEzfXjh1X9e13FZ49F0+gGGevsXq0GNcwBgDMj/eTn/6YbAHAbeOF53+WbN2cl14/lGw1ntUi/qGfU+uUz+nsJBy4P4tuYzQK1e6O25Gq76vKFhK/Vw3iUhZ5t511tyn3/NcNwhNj7jV+HhbjQHqxPPnYtWWZAGAJWc3ih7U2yWcr5bIy2aQzdEqv/PIVna/14prFWztr25Xzb+nX/3C01jEdW7X70V3aur5TmeS0HJbHNPT5Yb358jFdcf3tT/+ldq+fFARPVu7Te++6v80jvfFCpjcqq/+Pv9CB7mf1gy8lfwkN6tTz/1vxv0a28N2U/Wf/2Z9q/5a2ZJ/7dT5+Ub97pS/eLjzyXT19X0/yr4x77jf/TgeODMc9AFhKtqDdrr7L6hkr3TBjzRapK/zX/5T05qlYVOk3v1XwznvJjhob7Vo7uGmdLudnOEfXyRYZBYCVhJnFALDELNj1vEgpN6RNu96QG9neuATT9Cy7WOV7CqLaInlhZM+2eGEwACxLl/p0xU6SpmOTHti/MenMomOnnvjufm2/YyIoNn42r667H9HXv/ew1ib7bqXzvz+svrGk43Rs3pXUYt6mL981HhRb8H1YhwiKATSJbBCpxSY4JP3ruHFsdNWdrzxP0cioQluozvF8d0YLQoV9X7iTWiW+Pz7m8hVFw8nx7v7oymB8/GTjr9NWqndUDQAYR1gMAE3Ai7z4hGylKNxwue5SFKbLDZTtC3220J09li/bAcBUF/TeycHk/JhSx10Pa8+sJdZ7tefJB7U2KSNc6T+qN375M/39bw+rv1jbl1m9Q/fvlo7/wy/0wvNvqX9SHjH08c/ib7q88Lcv6vgHL+rXbvu985MOsBnHdv/zv9CBeS9ad0JvH+lTsu6dlO3V1v29Kjy2Q732FRNTuaATrx3VSNIFgKVm5SCsBMVMwnN9cWgcfnJKpf/xK3ceq9YWtbtyReX/81tFF5Oq7eWyKq+9oeCj4/Hxcs8ZXbVVPG5kgXG+Mv5JIQCgXoTFANAEbFE6W5zOJq+l3PaledRXK8SPq80stvkazCsGgBv1v/pHnb6chAapTm3e+7AKtd6N7t6p9d3jdScGdPoPb+mzIWmk71192Dc+WzeljvU7k+1ba+TIQZ3onwhAOu54WF/Z0pP0Al06+oqOuL8vADQL3w1Qrc0k7KuV01E2o6hon8rVDo7KZUWjY3EoHPfHxhRdvBhvx8LA3T+adG5kC90BAOaHsBgAmoTFvLWwWLrkBrb1zoNIu9btebUyFO45bEhc+xMAMKFPh976TCPJZ3F+zw49+uWJ2r/XWd+mZFKxHahtf/5cXLPS2hOT6gVnWsfrCd9qwzryzikNjf9Dke9RVzKrOBw4pjfepvwEgOYSV0qzKhK17g3Cc+fcnZ787m55+RZF1WrtjqkPKJUVDg7JG69DbyFy+dp3LW5g9ZABAPNDWAwATSAZP8fNSlGY/nnMhNiQSsVBseUGBMUAMIPPX9E7n03MDF517z4VlmuOcO6gTn4xtRZnWRdPvkX5CQBNJ/Q8VfyZvwEXXrYlQ91YuKNdymYVnj3nBrU3Hh2VSlKpKLW0uIPd842OTQTLk9gjrRXTk4rOAwDqQlgMAE2iVorCTsxWVsLTxwrrrj9sM+CsHEXVjYrj2sXLNfwAgEV23QJx2V6t7Ui2ZxIO6MQvkxrEU9uvDiYHXS/lzzBjuZHu3Ke7101d4T+rtfc/qa1JDwCaRTnlqzRDcGvD1mgk+ZgrnYlvgk9Ox7dTRdVAymTj2cdxjeMLF2up8AyGs/YdPADAfBAWA0CTiMNid2v1h20o3RcFKs42+p2i07NSFEkZivofBgArzAn94fCkBeKmc3ls4n6/R5uf3K9770xqAq/eqG2PPalnntlX60+jsOZBbZorhF6QXu15eKs6xnOXocGJ2cT5jbr3axuTDgA0BwuKxzLpmUe2lWptAOv78tIZBac+lTddCYkgcCfZgjybWeyEX1xwf07/rPaaI9la+AwAqB9hMQA0ERsS27W/laIYcQPmk/MIi7tsZrG7tYCDUhQAMIsPXtTRc1NLOEzywSldGp997GS6t+r+b363Vrf4e0/qoXs3qnCtqLEZUGXy03Vs1aNW5/ivvqXtya5GWvv4I9o8vgCfyur/6CV9NmnBu8KWh7VnQ9IBgCZQ8X1dzWYUzFSKIgglW9gu5ctrKyi6YCHwFBYmu2P89japtbVWhqK/P76dyl5jIJ+LS18AAOaHsBgAmoQNZW12sf3UIgBPvw/Kdce+bW6gnHPNZheH7kH1Pg4AVqLjBw+rf8a8+ITePnJWxYn8dQ59OtF/ixaV27BPD93deW0QHw6c0KEPhnXk/bMTs4tTndq892EVki4ALDUrkXah0KJieoayEGGo8MKlOBD2e9fFtYhv4I4JvuiXl8tdW+AuHLgc305mY2ALpfvd6wU+kQcAzBdnTgBoInFg7LlBcrwd6VwYqG8ese9GNyC2msUsdAcAcxg6qkMfXpixNvzIkZf0m9+/q7MXx1SZHBoHZRUvn9Xxdw8nO2r6DxzQkdODqow/YVjWlZNHdTzpNkabdu+dVH5Cwzr/drKg3ecHdOL8RPrt92zTnvtvQe1kAKjT1VxWl/K5eIQ6eZQab8dh8cW472+c+GqETaKojZCdyI1ureyE1T5OQuBoeGT83tj4c9us4sutLazjAQA3wfvJT388+TwNAMuaLTi0EC+9fijZarwWz9MP/ZxaZ/mczk7IoRfGYcNBBToaVvRMOqcnvPoW57ASFIergXstKe9ezxbKGzfmnv3nYVFF+wrfInnysT3JFgAAAHC9QrmivWcuqrVSnRwDK0r5ynxtv7JPfUMaGVX5H/9J2T99VhodVfXt95S6f6e8jg5V33tPXkteqXu2uwd7Gv2P/0WyRe8S9nmdLab34ZounesoNCQsthJEALCSMLMYAJpIPJ51o1rfDX7Hx7bHwrq/By2LlC0oripyg2U+CwQAAEDzsAXnDvd2K3BjXRupXhut2qzhwaHadqFV2e88VdtubVX6sb3yOjvkBshK735Aqe3b4qBYpZKiSUHx+HNZSPxFe55ZxQBwkwiLAaDJ+PKSMhQ1n0WBBusc7NphPb6vihsd1+oWExgDAACgeQy0tuiDdd3Xh8Vu4Bp+fkaVlw7U2mtvTGy//Koqv3+5tv3//qDKgVfi7dL//HX8UHsOm1Fst5dac/podaeq1CoGgJtGGQoAt5XlXoZiXNUL9VoU6HBghSWkr6Vz+m6dpShsfsU71ara3evZgncWPhvKUAAAAKAZpMJIdwyNaNulIeWqwbVJEjbDuG42u9ixR1g4bAvaHentcdt1zrKoE2UoAKw0fNwGAE3IAt7Jw9z3g7KmWRN6WrbuUbcbPFfdLZ8GAgAAoNkEvqfPO9t0dG13vBidjVnjcasbw3p1NPfHtceMZtM62dMez1ZudFAMACsRYTEANCFvSso77Fr/PKLfVXEpCpucUf9jAAAAgFsl9KS+tryO9Hbr2JpODWcz8WjXSkpYM+MjWbud2iopX6e72/T+uh532x73AQALx9kUAJqSd93M4moU6Xhkc4Xr05rMtqh/aTwAAADg1rJF6CwkPtXdoT/euUbvbFilvva8yunUtVB4vB5xPLb1PV1uyeqjNV16ddM6fbS6SwOtOWYUA0AD1VezOIpUDcK4yfPjr3wstZT7K2Tsk0P+TQAwye1Ss9i8ooreS2oWmx53/v336bzqq1wsHQ+CuBRFwT3OTpXULAYAAADmh5rFAFaaOcPiMAzVP3BVbx45pWOfXlTUtkV+plWpJfzkzvc8bejJ6Ov3d2h1e4bAGMA1t3NYbH6UyeueOh8/rEifBKE63OtaXExYDAAAAMwPYTGAlWbOxGFweEwvvvqBXnvnpAaGRlQJItkE43I1WrJWrIT65ItS3ELqcQJooHjBjCb2dlCJv4JXj4I8Zd3teM23xdbs7x0AAAAAAJjdrGFxGIX67PyAjp3+wvWaL5QtlsMm/FsBWM7SqVSy1ZzOuPNyOdmei0W3bZ6n4BZ9qNbs7x0AAAAAAJjdrGFxFEa6MHBVQcASSQBWhpaczcVtXpejUH3z+Jis3fPicPlWxMXN/t4BAAAAAIDZzVmGokpQDGAFaS+0JlvNyUpKHAjrnVtcm1lsUfGtCIub/b0DAAAAAACzq2+VJABYIbo6OpKt5vVhUNWVZHsuVhhile/HZYUW23J47wAAAAAAwMwIiwFgktXdnU2/UJvFvsejaq1Th27PX/RF7uw9s/cOAAAAAAAsX7c0LI6iSFEYuFZNmtu+RQsvAUA9bJG29WtWJb3mdXweM4WtknC6trlo7D1jgTsAAAAAAJa3RQ+LLRSulkZUHh1Q6WqfxgbPaOzy53ErDp1TebhflbErCipjBMcAmsKdveuSreZ10p1by3VOgLbDWn1/USsXL4f3DAAAAAAAzG7RwmKbNVwZvayxK2c0OvCJRi+e0NjAKZUGz6p09Xzcilc+1+ilTzTi7ht19xUHz6haukpoDGBJFVrz2rS+ucPPUXeePBTVvwBpp+ctWikKe6/sPQMAAAAAAMvbooTFYbWoscunNTrwqUpD5xVYABzOVF8zUhSUVR27oqIFy5csUD6n0O0DgKWybfOdai+0Jr3m9GrVnTuT7bnkrC1CKWZ7j+y9AgAAAAAAy1/Dw2KbGTzcf1yl4X6F1TG35/pZwrYIUi6TUSadnmYRqUhBeVjFwbNx2GylKQBgqey8e2t8rmo0OyvWSkLYn+M/UuhOiVZaYtSLNORayQ6exaB71AmFGnCPGXbn05K7Dd3tTN/NaPcae8q398beIwAAAAAAcHvwfvLTH8+UKygIAr148KgOvHks7nupjNrW7VQ6W4j7U1WKgxq58HE8U3gmf/MXT6l3dZd77lAH3zuulw8dVbk63dw4T+l8twqrtspP25y4Gz22vU2P39uulD81dAawUr3w/M+Srca4cnVYh4+dUGXa89T8ZN157Vt+VpE7ZY24/lAU6qoijbhb+2is7Lar7owculsrMDHjyXkSO/tZ8+2c6TYs2m51262epw63t8udH3s8X51un5X4+UVQUqkBpX4sKN61Y5u62tuSPQAAAMDt5wc/ei7ZAoCVoWHTzKql4biExGxBsdm6ca3yuazaWlu0qrNNuWwmuWeqSNWxAY1d+TyufwwAS8HC0C/v3NGQkhQWBv82LOm3QUkvu/ZOWNGJsKrzUagrrlkd4jgwdsfWG+facVaLuOq2iu7xw671u+f61J0333fP/3K1rP9VKeq/V8b0t9WSyg0Iiu29sPeEoBgAAAAAgNtLQ8LisFqOS0eEdZSNqAYTSyyFUTTnYnbl4f64pEX90QkANJYt3rZ3186GLHpnZ0A7m93KM9r46wXuz4W+rr0H9l6woB0AAAAAALefBYfFFvZWxgZULQ1Zr7ZzFm99cFLHPj2nDz85o0/PXVCxUknumZktfEf9YgBLzRZye/SB+7Rh7eppaq7fvux3td/ZfncWswMAAAAA4Pa18LC4WlR59LKiYO7Q1/zmwFt64XcH9cI/vq53PjylanXuEhNRWFFx8Jxt1XYAwBKxGbX33LVFX93zoHZuuysOUa0sw/SLdi4/9jvY72K/k/1u9jva72q/M7OJAQAAAAC4vS1wgbtI5ZEBjV46qShc+OJPs/FSWbX33qdUZiKsYIE7AFM1eoE7AAAAACsXC9wBWGkWNLM4CkNVyyOLHhQbe41KcTDpAQAAAAAAAAAaaYFhcVVBeTTpzW775vV68pFd+sajtfbEnvt0R++q5N46RJGC4tWkAwAAAAAAAABopIWFxVEY1yyeSz6X1dP7H9K3H9+tp75Sa8989SHte2C7CvmW5Ki5RArca9mCegAAAAAAAACAxlrYAndRpLCOEhS+70+78JPv9lmrmwXF0dwL4gEAAAAAAAAA5mdhM4vdTz2qQaDLg8MaGhlL9tws94rMLAYAAAAAAACAhltQWBzPFq5jZnCpXNGBQ0f19y+/ney5WZ57uYVNhgYAAAAAAAAA3GhhYbH78VPZpDe70+cv6J2PTiW9m+P5adcIiwEAAAAAAACg0RaWvPoppdL1LlC3UJ5SmXx8CwAAAAAAAABorIXNLPbTSuUKSW+Reb7S+Y6kAwAAAAAAAABopIWFxZ6vVLYgr47Zxdl0Wvnc9SUrUilfLbmMUnWUlrBgOtPSlfQAYHpWHgcAAAAAFoprCwAr0YILAFtpiEyLzfid+SSaTqX0z5/ap//w199P9tTc/6VN+nf/4tvafc8W+bMulOeppaNXnp9K+gAwvcyUD6UAAAAA4GZwbQFgJVpwWGwL3GXy3fJmWegul81oTU+HWqbOLPZ9FVpyWtvdMevCdTZ7Ode+LukBwMwKbW3JFgAAAADcPK4tAKxECw6LjZdKy59l1m8YhnGbSTWY+T4LofNdm+IyFAAwl65V3ckWAAAAANw8ri0ArEQNCYvDSklhUEl6NyqVqzr47jG98s5HenVKe/nQh/ro1Nlpw2QLiFs6Nyqd70z2AMDs1vb2JlsAAAAAcPO4tgCwEi04LI6iUEG1qCisJntuFLpj3j12Wv908LBefP369tIfD+ts/4B7nig5umY8KM61rZE3az1jAJiwftMdLEQBAAAAYEHsmsKuLQBgpVl4WBxUFFbGbKu2YwbVINBYqaSx4pRWKt8YFKdyyndvUS5e1I7yEwDql8lktGX73UkPAAAAAObPrins2gIAVpoFh8VhUFZYLSa9qWx233ibiyfPSymT71H7unuVa18b9wFgvr60855kCwAAAADmj2sKACtVQ8pQRGGQ9Go8Ly0/nY9rDec61ivT2qNUpjWeMeylMvFs4bilsu64FqWybcq2r1Nh3T0qrN3h+q3JMwHA/HV2d2v7/TuTHgAAAADUz64l7JoCAFaiBYfFqXROmXxXHA6nsgVlWlfFtYYLa7apbe0OtfZsUdua7WqzIHjV3cp3bVZL153udpPyPZtVWO2O673X3XeXMi2d1CcG0BC79z6s7lWrkh4AAAAAzM2uIexaAgBWqgWHxX46p5bODWrt2ezaXSqsvlstXRuVzrVPlJHwvHgGcaa1Ky4v0dKxPq5HnCusUbqlQ75PHSAAjbf3q/uUzeWSHgAAAADMzK4d7BoCAFayBYfFVmu4FgT3KN3SzoJ0AJqGfXXs8W98ncAYAAAAwKzsmsGuHSg/AWCla0BYDADNa/W6tfr6d75FSQoAAAAA07JrBbtmsGsHAFjpCIsB3PZsdsA3n32GRe8AAAAAXMeuEexagRnFAFBDWAxgxbCFKp76/p9o6/Zt8twPAAAAgJXHrgXsmsCuDVjMDgCu5/3kpz+Oku0bBEGgFw8e1YE3j8V9L5VR27qdSmcLcX+pPba9TY/f266UT+gDYH4qlYrOf3ZG/X19unLpskaGh1UplRW5HwAAAAC3BwuGM7msCm1t6lrVrbW9vVq/6Q5lMiy0DwDTISwGAAAAAAAAACzvMhQeGTEAAAAAAAAANMSyDYszaU9rOjJiUjEAAAAAAAAALNzcZSheO6oDh46ruz2vO9atUnvPBvmprHx/6XLmTCaljatbtLW3RS0Z1ugDAAAAAAAAgIWaMyx+6fWPdPaLy3p89zYV8ln53tKHs7mWjDo68kqlCIoBAAAAAAAAoBHmTFt7Ogvav3ubutryyqRS8WJy481KQCyk1fNck4+Z3KhXDAAAAAAAAACNM+vM4jAM1X9hUKlpMuUoilQqleLZxzcrk8nEzV6nWCwmeyekUillszeWvLCZxW3tLUtaCgMAAAAAAAAAbiezpq2+56mttSXpXc/CYgt4LTC+2VapVOLnsdvp7rdm9wMAAAAAAAAAFtesM4tNsVjW1cGxpDdhPOS1WcE3K51Ox82eYzw4nsxmDtv9zCwGAAAAAAAAgMU1Z1gcBKGGr46pXKome5ZePp9VoT0nrwkW2wMAAAAAAACA28GcaWvK99XW1qJ8a1apVLKw3BI1e+10JqVsLk1QDAAAAAAAAAANNOfM4muiSPGBS11D2PNkP3GADAAAAAAAAABoiPqn51pIa833l7bZ9GKCYgAAAAAAAABoKGo5AAAAAAAAAAAIiwEAAAAAAAAAhMUAAAAAAAAAAIewGAAAAAAAAABAWAwAAAAAAAAAICwGAAAAAAAAADiExQAAAAAAAAAAwmIAAAAAAAAAAGExAAAAAAAAAMAhLAYAAAAAAAAAEBYDAAAAAAAAAAiLAQAAAAAAAAAOYTEAAAAAAAAAgLAYAAAAAAAAAEBYDAAAAAAAAABwCIsBAAAAAAAAAITFAAAAAAAAAADp/wPXtVR4AR7/bAAAAABJRU5ErkJggg==;" parent="1" vertex="1">
          <mxGeometry x="150" y="120" width="1069" height="681.03" as="geometry" />
        </mxCell>
        <mxCell id="T_ImtbYxqF7imKT2f7U9-2" value="&lt;font color=&quot;#6e5d57&quot;&gt;&lt;b style=&quot;font-size: 15px;&quot;&gt;ADD NEW ELEMENT&lt;/b&gt;&lt;br&gt;&lt;div style=&quot;text-align: justify;&quot;&gt;&lt;span style=&quot;font-size: 15px;&quot;&gt;&lt;b&gt;In this window you can enter the data of a new element, its structure is identical to that shown when selecting an element from the list.&lt;/b&gt;&lt;/span&gt;&lt;br&gt;&lt;/div&gt;&lt;/font&gt;" style="rounded=1;whiteSpace=wrap;html=1;strokeColor=#6e5d57;strokeWidth=5;fillColor=default;gradientColor=none;spacingTop=0;spacingLeft=0;spacingBottom=0;spacingRight=0;spacing=20;" parent="1" vertex="1">
          <mxGeometry x="160" y="390.51" width="330" height="140" as="geometry" />
        </mxCell>
      </root>
    </mxGraphModel>
  </diagram>
</mxfile>
